<svg xmlns="http://www.w3.org/2000/svg" xmlns:xlink="http://www.w3.org/1999/xlink" width="1280" height="580" viewBox="0 0 1280 580">
  <defs>
    <linearGradient id="linear-gradient" x1="0.5" x2="0.517" y2="1" gradientUnits="objectBoundingBox">
      <stop offset="0" stop-color="#153151"/>
      <stop offset="1" stop-color="#181a43"/>
    </linearGradient>
    <clipPath id="clip-path">
      <rect id="Rectángulo_1595" data-name="Rectángulo 1595" width="436.436" height="581.992" fill="none"/>
    </clipPath>
    <clipPath id="clip-Back">
      <rect width="1280" height="580"/>
    </clipPath>
  </defs>
  <g id="Back" clip-path="url(#clip-Back)">
    <rect width="1280" height="580" fill="#fff"/>
    <g id="Grupo_3183" data-name="Grupo 3183">
      <rect id="Rectángulo_1569" data-name="Rectángulo 1569" width="1280" height="580" fill="url(#linear-gradient)"/>
    </g>
    <g id="Grupo_3179" data-name="Grupo 3179" transform="translate(422 1.68)" opacity="0.101">
      <rect id="Rectángulo_1594" data-name="Rectángulo 1594" width="711.677" height="3.425" transform="matrix(0.579, -0.815, 0.815, 0.579, 21.241, 580.007)" fill="#fff"/>
      <g id="Grupo_3178" data-name="Grupo 3178">
        <g id="Grupo_3177" data-name="Grupo 3177" clip-path="url(#clip-path)">
          <path id="Trazado_2386" data-name="Trazado 2386" d="M116.354,269.723c29.884,11.825,61.794,18.49,92.606,28.083,8.9,2.772,17.926,5.4,26.832,8.285l68.579-96.45c-18.73-6.245-37.846-11.576-56.683-17.526-23.042-7.279-46.473-13.4-69.287-21.316-11.279-3.915-17.374-13.549-16.37-26.027s8.864-20.611,20.224-23.438a117.437,117.437,0,0,1,33.654-3.521c30.957,1.518,59.779,11.27,86.882,26.042,7.515,4.1,14.865,8.632,22.382,13.2L387.2,69.834c-49.446-37.978-106.14-53.84-167.829-54.978-37.614-.7-74.228,3.416-108.028,21.206-52.2,27.467-76.069,71.285-73.734,129.724,2.106,52.8,32.366,85.588,78.748,103.937" transform="translate(-15.451 -6.099)" fill="#fff"/>
          <path id="Trazado_2387" data-name="Trazado 2387" d="M110.938,673.893l65.394-91.969a201.426,201.426,0,0,1-45.089-14.083c-21.653-9.556-41.757-22.61-63.324-34.522C46.487,558.955,23.949,585.922,0,614.571c16.142,11.1,30.548,22.549,46.345,31.58a308.552,308.552,0,0,0,64.593,27.742" transform="translate(0 -220.036)" fill="#fff"/>
          <path id="Trazado_2388" data-name="Trazado 2388" d="M399.676,516.828c-26.342-11-54.283-18.231-81.6-26.858-9.994-3.157-20.065-6.089-30.123-9.053L221.07,574.989c19.763,5.926,39.926,10.846,59.635,16.982,18.853,5.87,38.287,11,55.786,19.79,18.756,9.416,17.279,33.361-1.194,43.511a45.194,45.194,0,0,1-13.929,4.907c-35.031,5.941-68.827.021-100.756-14.07-12.482-5.509-24.431-12.228-36.466-19.191l-60.587,85.212c4.965,3.379,9.963,6.608,15.12,9.555,60.287,34.469,125.637,44.98,194.044,37.526a182.055,182.055,0,0,0,85.784-31.962c64.028-44.687,79.432-169.374-18.831-210.422" transform="translate(-50.978 -198.417)" fill="#fff"/>
          <path id="Trazado_2389" data-name="Trazado 2389" d="M514.591,342.335c9.192,5.01,18.029,10.67,27.418,16.267,19.806-28.014,39.207-55.456,59.031-83.5-2.151-1.869-3.16-2.837-4.259-3.688A245.333,245.333,0,0,0,533.6,235.971l-62.635,88.091a219.179,219.179,0,0,1,43.629,18.273" transform="translate(-194.309 -97.357)" fill="#fff"/>
        </g>
      </g>
    </g>
  </g>
</svg>
