<?xml version="1.0" encoding="utf-8"?>
<!-- Generator: Adobe Illustrator 27.0.1, SVG Export Plug-In . SVG Version: 6.00 Build 0)  -->
<svg version="1.1" id="Capa_1" xmlns="http://www.w3.org/2000/svg" xmlns:xlink="http://www.w3.org/1999/xlink" x="0px" y="0px"
	 viewBox="0 0 121 142" style="enable-background:new 0 0 121 142;" xml:space="preserve">
<style type="text/css">
	.st0{clip-path:url(#SVGID_00000016068094683785934040000010472016559771473078_);}
	.st1{fill:#1373D0;}
	.st2{fill:#71E4DE;}
</style>
<g>
	<defs>
		<rect id="SVGID_1_" width="121" height="142"/>
	</defs>
	<clipPath id="SVGID_00000179608291170020305790000017376068938472966571_">
		<use xlink:href="#SVGID_1_"  style="overflow:visible;"/>
	</clipPath>
	<g id="Gotas-2" style="clip-path:url(#SVGID_00000179608291170020305790000017376068938472966571_);">
		<g id="Grupo_3198" transform="translate(-99.343 -968.609) rotate(71)">
			<path id="Trazado_163" class="st1" d="M1009.1,202.9c0,0-19.1-5.5-24.7-14c-5.6-8.5-2.2-14.6,2-18.7s11.6-5.8,16.3-3.9
				c5.2,2.4,7.9,8.2,6.5,13.7C1007,188.8,1007.4,191.4,1009.1,202.9"/>
			<path id="Trazado_164" class="st2" d="M1038.4,233.2c-8.5-12.6-12.7-27.6-11.7-42.8c1.7-25.2,23.5-46.6,47.4-33.4
				s8.7,42.8-5.1,48.4C1055.2,211,1038.4,233.2,1038.4,233.2"/>
		</g>
	</g>
</g>
</svg>
