<?xml version="1.0" encoding="utf-8"?>
<!-- Generator: Adobe Illustrator 27.0.1, SVG Export Plug-In . SVG Version: 6.00 Build 0)  -->
<svg version="1.1" id="Capa_1" xmlns="http://www.w3.org/2000/svg" xmlns:xlink="http://www.w3.org/1999/xlink" x="0px" y="0px"
	 viewBox="0 0 138 142" style="enable-background:new 0 0 138 142;" xml:space="preserve">
<style type="text/css">
	.st0{clip-path:url(#SVGID_00000029751553521516620070000005598966991669300159_);}
	.st1{fill:#FFFFFF;}
	.st2{fill:#E6973E;}
	.st3{fill:#D76039;}
</style>
<g>
	<defs>
		<rect id="SVGID_1_" width="138" height="142"/>
	</defs>
	<clipPath id="SVGID_00000075882150181589632990000015404027555603943854_">
		<use xlink:href="#SVGID_1_"  style="overflow:visible;"/>
	</clipPath>
	<g id="Icon_sales" style="clip-path:url(#SVGID_00000075882150181589632990000015404027555603943854_);">
		<g id="Grupo_3160" transform="translate(-340.082 -30.579)">
			<g id="Grupo_3158" transform="translate(381.975 43.305)">
				<path id="Trazado_2347" class="st1" d="M7.2,19.1c-1.1,0-2.2-0.1-3.2-0.2c-0.7-0.1-1.4-0.4-2.1-0.7c-0.4-0.2-0.8-0.4-1.2-0.7
					c-0.5-0.4-0.8-1.1-0.7-1.8c0.4-1,1.5-1.5,2.5-1.1c-0.2-0.5-0.2-1.1,0-1.7c0.3-0.5,0.7-0.9,1.3-1.1c1.1-0.4,1.6,0,2.3,0.8
					c0.1-0.7,0.5-1.4,1.1-1.8c0.5-0.3,1.1-0.6,1.8-0.6c0.3,0,0.7,0,1,0.1c0.3,0,0.5,0.1,0.7,0.2c0.2,0.1,0.4,0.4,0.5,0.6
					c0.2,0.3,0.2,0.7,0.2,1c0.4-0.5,1.1-0.7,1.7-0.6c0.8,0.1,1.2,0.9,1.1,1.6c0,0.1,0,0.2-0.1,0.3c1.1-0.2,2.3,0.5,2.5,1.6
					c0.2,0.8-0.1,1.6-0.8,2c-0.6,0.4-1.2,0.8-1.9,1c-1.2,0.5-2.4,0.8-3.6,0.9C9.4,19.1,8.3,19.2,7.2,19.1z M5.2,18.9
					c0.9,0,1.8,0.1,2.7,0.1c0.6,0,1.2-0.1,1.8-0.1c0.7-0.1,1.3-0.1,2-0.2c0.7-0.2,1.4-0.4,2.1-0.6c0.6-0.2,1.2-0.4,1.7-0.8
					c0.5-0.3,0.9-0.7,1.1-1.2c0.1-0.8-0.3-1.6-1-2c-0.5-0.3-1.1-0.3-1.6,0c-0.1,0.1-0.2,0-0.2,0c0,0,0-0.1,0-0.1
					c0-0.1,0.1-0.2,0.2-0.2c0.3-0.6,0.1-1.3-0.5-1.6c-0.2-0.1-0.4-0.1-0.6-0.1c-0.6,0-1.1,0.3-1.5,0.7c0,0.1,0,0.2,0,0.4
					c0,0.1-0.1,0.1-0.2,0.1c0,0,0,0,0,0c0,0,0,0,0,0c0,0,0,0,0,0c0,0,0,0,0,0c0,0,0,0,0,0c0,0,0,0,0,0c-0.2,0,0-0.4,0-0.5
					c0-0.3,0-0.7-0.1-1c-0.1-0.3-0.2-0.5-0.4-0.7c-0.2-0.1-0.5-0.2-0.7-0.3c-0.6-0.1-1.3-0.1-1.9,0.1c-0.7,0.2-1.3,0.7-1.6,1.4
					c-0.1,0.2-0.1,0.4-0.2,0.7c0,0.1,0,0.2,0,0.3c-0.1,0.1-0.2,0-0.2-0.1c0-0.1-0.1-0.1-0.1-0.2c-0.6-0.6-1-1-1.9-0.7
					c-0.6,0.2-1.1,0.6-1.4,1.3c-0.1,0.4,0,0.7,0.1,1.1c0,0.1,0.1,0.2,0.1,0.3c0,0.1,0.1,0.2,0,0.2c0,0.1-0.1,0.1-0.2,0
					c-0.2-0.1-0.3-0.2-0.5-0.2c-0.2,0-0.4,0-0.6,0c-0.5,0-0.9,0.3-1.2,0.7c-0.6,0.8-0.1,1.6,0.6,2.1C2.3,18.4,3.7,18.8,5.2,18.9
					L5.2,18.9z"/>
				<path id="Trazado_2348" class="st1" d="M32,9c-0.8,0-1.6-0.1-2.4-0.2c-0.5-0.1-1-0.3-1.4-0.5c-0.7-0.2-1.4-0.5-2.1-0.9
					c-0.4-0.3-0.7-0.7-0.9-1.2c-0.1-0.5,0.1-1,0.5-1.2c0.7-0.2,1.5-0.1,2.1,0.4c-0.2-0.5-0.3-1-0.2-1.5c0.1-0.5,0.2-0.9,0.5-1.3
					c0.4-0.6,1.1-0.7,1.7-0.4c0.6,0.3,1.2,0.7,1.6,1.2c0-0.7,0.2-1.4,0.5-2.1C32.3,0.4,33.1-0.1,34,0c1.1,0,2,0.7,2.4,1.7
					c0.2,0.4,0.2,0.9,0.3,1.3c0.1-0.2,0.3-0.5,0.5-0.7c0.4-0.3,0.8-0.6,1.2-0.8C39.6,1,40.8,1,41.9,1.4c1.3,0.6,1.9,2.2,1.4,3.6
					c-0.3,0.6-0.7,1.2-1.2,1.7c-0.5,0.4-1,0.7-1.6,1c-0.7,0.3-1.4,0.4-2.1,0.6C36.3,8.8,34.1,9,32,9z M32.2,8.6c0.5,0,1,0,1.5-0.1
					c1-0.1,1.9-0.2,2.9-0.4C37.8,8,39,7.7,40.2,7.3c0.5-0.2,0.9-0.5,1.4-0.8c0.6-0.4,1-1,1.3-1.6c0.5-1.2-0.1-2.6-1.3-3.1
					c0,0,0,0-0.1,0c-1.1-0.4-2.2-0.2-3.2,0.3c-0.3,0.1-0.5,0.3-0.7,0.4c-0.2,0.2-0.3,0.4-0.5,0.6C37,3.2,37,3.3,36.9,3.3
					c0,0.1-0.1,0.2-0.2,0.1c0,0,0,0,0,0c-0.1,0-0.1-0.2-0.2-0.3c-0.2-0.5-0.2-1-0.4-1.4c-0.2-0.4-0.5-0.8-0.9-1
					c-0.7-0.5-1.6-0.5-2.4-0.1c-0.2,0.1-0.4,0.3-0.5,0.5c-0.4,0.8-0.6,1.8-0.5,2.7c0,0.1-0.1,0.2-0.2,0.2c0,0-0.1,0-0.1,0
					c-0.1-0.1-0.1-0.1-0.2-0.2c-0.4-0.5-0.9-0.9-1.4-1.1c-0.3-0.2-0.7-0.3-1.1-0.2c-0.7,0.3-0.8,1.2-0.9,1.8c0,0.3,0.1,0.6,0.2,0.9
					c0.1,0.2,0.1,0.3,0.2,0.5c0,0.1,0.1,0.1,0.1,0.2c0.1,0.1,0,0.2-0.1,0.1c0,0-0.1,0-0.1,0c-0.1-0.1-0.3-0.2-0.4-0.3
					c-0.4-0.2-0.9-0.4-1.4-0.4c-0.3,0-0.6,0.2-0.7,0.6c0,0.1,0,0.2,0,0.3c0.2,0.4,0.5,0.7,0.8,0.9c0.4,0.2,0.8,0.4,1.2,0.5
					C28.1,7.8,28.5,8,29,8.1c0.5,0.2,1.1,0.3,1.6,0.4C31.1,8.6,31.7,8.6,32.2,8.6L32.2,8.6z"/>
				<path id="Trazado_2349" class="st1" d="M28.4,5.2c0-0.2,0-0.4,0-0.7c0-0.2,0.1-0.4,0.1-0.5l0,0c0,0,0.1,0,0.1,0
					c0.1,0,0,0.1,0,0.2c0,0.2-0.1,0.4-0.1,0.7c0,0.1,0,0.2,0,0.3c0,0.1-0.1,0.1-0.1,0.1C28.5,5.3,28.4,5.2,28.4,5.2L28.4,5.2z"/>
				<path id="Trazado_2350" class="st1" d="M41.2,5.3c-0.1-0.1,0-0.2,0-0.3c0.1-0.2,0.1-0.3,0.2-0.5c0.1-0.6-0.2-1.2-0.8-1.4
					c-0.2-0.1-0.1-0.2,0.1-0.2C41,3,41.3,3.3,41.5,3.7c0.2,0.4,0.2,0.9,0,1.3C41.4,5.1,41.4,5.4,41.2,5.3z"/>
				<path id="Trazado_2351" class="st1" d="M39.7,6.1c-0.1-0.2,0.1-0.2,0.3-0.3c0.1,0,0.1-0.1,0.2-0.1C40.3,5.8,40,5.9,40,6
					C39.9,6.1,39.8,6.2,39.7,6.1z"/>
				<path id="Trazado_2352" class="st1" d="M3.4,14.9c-0.1-0.3-0.2-0.6-0.2-0.9c0-0.4,0.1-0.7,0.4-0.9c0.1,0,0.2-0.1,0.3,0
					c0,0,0,0.1,0,0.1c0,0,0,0,0,0c0,0,0,0,0,0c-0.3,0.2-0.3,0.9-0.3,1.2c0,0.1,0.1,0.2,0.1,0.4c0,0.1,0,0.1,0,0.1S3.5,14.9,3.4,14.9
					L3.4,14.9z"/>
				<path id="Trazado_2353" class="st1" d="M1.1,16.7C1,16.5,1,16.3,1.1,16.1c0-0.2,0.2-0.5,0.4-0.3c0,0,0,0,0,0c0,0,0,0,0,0
					c0,0,0,0,0,0c0,0,0,0,0,0c-0.2-0.1-0.2,0.5-0.2,0.6c0,0.1,0.1,0.2,0,0.3C1.3,16.8,1.2,16.7,1.1,16.7z"/>
				<path id="Trazado_2354" class="st1" d="M14.9,16.6c0-0.1,0-0.1,0-0.2c0,0,0,0,0,0c0.1,0,0.2-0.1,0.3-0.2
					c0.2-0.2,0.2-0.5,0.2-0.8c0-0.3-0.2-0.5-0.4-0.6c0,0-0.1,0-0.1-0.1c0-0.1,0.1,0,0.1,0c0.4,0.1,0.7,0.6,0.6,1
					c0,0.3-0.1,0.5-0.3,0.7C15.2,16.5,15,16.7,14.9,16.6z"/>
				<path id="Trazado_2355" class="st1" d="M13.9,17.1c-0.1,0-0.1-0.1-0.1-0.1c0,0,0-0.1,0.1-0.1c0.1,0,0.1,0,0.2,0
					c0.1,0,0.1,0,0.1,0.1c0,0,0,0,0,0s0,0,0,0c0,0,0,0,0,0C14,17,14,17.1,13.9,17.1z"/>
			</g>
			<path id="Trazado_2356" class="st1" d="M458.5,73.2c-0.6,0-1.2-0.1-1.8-0.1c-0.7-0.1-1.4-0.2-2.1-0.3c-0.4-0.1-0.9-0.3-1.3-0.4
				c-0.8-0.3-1.5-0.6-2.2-1c-1.2-0.8-2.4-1.8-2-3.4c0.4-1.4,1.8-2.2,3.2-2c-0.4-0.9-0.4-2.5,0.8-2.6c0.6-0.1,1.2,0,1.7,0.3
				c-0.1-0.8,0-1.6,0.4-2.3c0.5-0.8,1.1-1.5,1.9-1.9c0.5-0.3,1-0.5,1.5-0.5c0.8,0,1.6,0.3,2.3,0.8c0.6,0.7,0.8,1.6,0.6,2.5
				c0.9-0.9,2.4-1.2,3.6-0.6c0.6,0.4,1,0.9,1.3,1.6c0.2,0.4,0.3,0.8,0.4,1.3c0.1,0.5,0.1,0.9,0.1,1.4c0.6-0.5,1.4-0.8,2.3-0.6
				c0.6,0.2,1.1,0.7,1.2,1.3c0.5,1.2,0,1.8-0.6,2.8c-0.4,0.5-0.8,0.9-1.3,1.2c-0.9,0.6-1.8,1.1-2.8,1.4
				C463.3,72.7,460.9,73.2,458.5,73.2z M458.1,72.8c2.4,0.1,4.7-0.3,6.9-1.1c0.8-0.3,1.6-0.6,2.4-1c0.6-0.3,1.1-0.7,1.7-1.2
				c0.3-0.3,0.5-0.6,0.7-0.9c0.5-0.6,0.6-1.6,0.2-2.3c-0.2-0.4-0.6-0.7-1-0.8c-0.9-0.1-1.8,0.4-2.3,1.2c0,0,0,0.1,0,0.1c0,0,0,0,0,0
				c0,0-0.1,0-0.1,0c-0.1,0-0.1-0.1-0.1-0.2c-0.2-0.1,0-0.4,0-0.6c0.1-0.4,0.1-0.8,0.1-1.3v0c0-0.5-0.1-1-0.3-1.5
				c-0.2-0.6-0.6-1.1-1.1-1.4c-1.1-0.5-2.4-0.2-3.3,0.7c-0.2,0.2-0.3,0.4-0.4,0.7c-0.1,0.2-0.2,0.5-0.4,0.5c-0.1,0-0.1-0.1-0.1-0.2
				c0-0.3,0.2-0.6,0.3-0.8c0.1-0.4,0.2-0.8,0.2-1.2c0-0.5-0.1-0.9-0.3-1.3c-0.2-0.3-0.6-0.6-0.9-0.7c-0.6-0.3-1.4-0.4-2.1-0.1
				c-0.8,0.3-1.5,0.9-2.1,1.6c-0.4,0.4-0.6,0.9-0.8,1.4c-0.1,0.5-0.1,1,0,1.4c0,0.2,0.2,0.4,0,0.5c-0.1,0.1-0.2,0.1-0.2,0
				c0,0,0,0,0-0.1c-0.3-0.4-0.7-0.6-1.2-0.6c-0.4,0-1-0.1-1.3,0.4c-0.2,0.6-0.2,1.2,0.1,1.7c0.1,0.2,0.2,0.4,0.3,0.6
				c0.1,0.1,0.1,0.3,0,0.4s-0.3,0-0.3-0.2c-0.5-0.7-1.6-0.3-2.2,0.1c-0.5,0.3-0.8,0.8-1,1.3c-0.1,0.5,0,1,0.2,1.5
				c0.4,0.6,0.8,1.1,1.4,1.4c1,0.6,2,1,3.1,1.3C455.3,72.6,456.7,72.8,458.1,72.8L458.1,72.8z"/>
			<path id="Trazado_2357" class="st1" d="M461.4,64.5c0-0.2,0-0.3,0.1-0.5c0.1-0.3,0.4-0.6,0.7-0.7c0.1,0,0.2,0,0.2,0.1
				c0,0.1,0,0.2-0.1,0.2c-0.1,0-0.2,0.1-0.3,0.1c-0.2,0.2-0.4,0.4-0.5,0.6C461.5,64.4,461.5,64.6,461.4,64.5z"/>
			<path id="Trazado_2358" class="st1" d="M465.5,67.4c-0.1,0-0.1-0.1-0.1-0.2c0,0,0,0,0,0c0-0.1,0.1-0.2,0.1-0.3
				c0-0.3,0-0.6-0.1-0.8c0-0.1-0.2-0.5,0-0.5c0.1,0.2,0.2,0.4,0.3,0.6c0.1,0.3,0.1,0.6,0.1,0.9C465.7,67.2,465.7,67.5,465.5,67.4z"
				/>
			<path id="Trazado_2359" class="st2" d="M451.3,70.3c-0.5-0.2-0.8-0.6-1-1c-0.1-0.4,0-0.7,0.1-1.1c0-0.1,0.1-0.4,0.3-0.3
				c0,0,0,0.1,0,0.1l0,0c-0.2,0.4-0.2,0.9,0,1.2c0.2,0.3,0.4,0.5,0.7,0.7c0.1,0.1,0.1,0.2,0,0.3C451.5,70.3,451.4,70.3,451.3,70.3z"
				/>
			<path id="Trazado_2360" class="st1" d="M452.6,70.3c0-0.1,0.1-0.2,0.2-0.2c0.1,0,0.2,0.1,0.2,0.2c0,0.1-0.1,0.2-0.2,0.2
				c0,0,0,0,0,0C452.7,70.5,452.6,70.4,452.6,70.3z"/>
			<path id="Trazado_2361" class="st1" d="M447.7,95.1c-0.8,0-1.6-0.1-2.4-0.2c-0.5-0.1-1-0.1-1.6-0.2c-0.9-0.2-1.7-0.4-2.5-0.7
				c-1.1-0.2-2-0.9-2.7-1.7c-0.2-0.2-0.4-0.5-0.5-0.7c-0.3-0.6-0.2-1.3,0.4-1.7c0.1-0.1,0.3-0.1,0.5-0.2c0.6-0.2,1.1-0.2,1.7,0
				c-0.5-0.6-0.8-1.2-0.9-1.9c0-0.7,0.3-1.4,0.9-1.8c0.5-0.5,1.3-0.6,2-0.4c0.5,0.2,1,0.5,1.4,0.9c-0.3-1-0.1-2.1,0.6-2.9
				c0.5-0.5,1.1-0.8,1.7-1c0.6-0.2,1.3-0.2,1.8,0.1c0.9,0.5,1.5,1.3,1.8,2.2c0.1,0.4,0.2,0.8,0.3,1.3c0,0.4,0,0.7,0.1,1.1
				c0.2-0.6,0.6-1.2,1.1-1.6c0.4-0.3,0.9-0.5,1.3-0.7c0.4-0.2,0.8-0.3,1.2-0.3c1.1-0.3,2.2,0.4,2.5,1.5c0.1,0.6,0,1.2-0.3,1.7
				c0.4-0.1,0.9-0.2,1.3-0.2c0.5,0,1,0.2,1.4,0.6c0.3,0.4,0.5,0.9,0.5,1.4c0.2,0.9-0.1,1.8-0.8,2.5c-0.7,0.6-1.5,1.2-2.4,1.6
				C453.5,94.6,450.6,95.2,447.7,95.1z M447.5,94.8c2.5,0.1,4.9-0.2,7.3-1c1.3-0.4,2.5-1.1,3.5-2c0.6-0.6,0.9-1.4,0.7-2.2
				c-0.1-0.4-0.2-0.9-0.5-1.2c-0.3-0.3-0.7-0.4-1.1-0.4c-0.4,0-0.7,0.1-1.1,0.2c-0.2,0.1-0.4,0.1-0.6,0.2c-0.1,0.1-0.2,0.3-0.4,0.3
				c-0.1,0-0.1-0.1-0.1-0.1c0-0.2,0.2-0.4,0.4-0.5c0.3-0.4,0.4-0.9,0.4-1.5c0-0.4-0.1-0.7-0.4-1c-0.4-0.3-0.9-0.5-1.3-0.5
				c-0.8,0-1.6,0.3-2.3,0.7c-0.7,0.4-1.3,1-1.5,1.8c0,0.1-0.1,0.2-0.1,0.3c-0.1,0.1-0.1,0.2-0.2,0.2c-0.2-0.1-0.3-0.4-0.3-0.6
				c-0.1-0.4-0.1-0.8-0.1-1.2c-0.1-1.1-0.5-2.1-1.3-2.9c-0.3-0.3-0.7-0.4-1.2-0.5c-0.5,0-1.1,0.1-1.6,0.3c-1.7,0.9-1.8,2.2-1.2,3.9
				c0.1,0.1,0,0.2-0.1,0.3c0,0,0,0,0,0c-0.1,0-0.2,0-0.2-0.1l0,0c-0.2-0.3-0.5-0.6-0.8-0.8c-0.5-0.5-1.2-0.7-1.9-0.6
				c-0.9,0.3-1.5,1.1-1.5,2c0,0.3,0.2,0.7,0.4,0.9c0.3,0.4,0.6,0.9,0.9,1.3c0,0.1,0.1,0.1,0.2,0.2c0.1,0.1,0,0.2-0.1,0.3
				c-0.1,0-0.2,0-0.2,0c-0.1-0.1-0.2-0.2-0.3-0.3c-0.4-0.3-0.8-0.4-1.3-0.4c-0.8,0.1-1.8,0.3-1.6,1.3c0.1,0.5,0.4,0.9,0.8,1.2
				c0.6,0.7,1.5,1.3,2.4,1.4c0.8,0.2,1.6,0.5,2.5,0.6C445,94.6,446.2,94.7,447.5,94.8L447.5,94.8z"/>
			<path id="Trazado_2362" class="st1" d="M445.1,86.6c-0.2-0.4-0.1-2.3,0.4-2.3c0.1,0,0.1,0,0.2,0.1c0,0.1-0.1,0.1-0.1,0.2
				c-0.2,0.3-0.2,0.7-0.2,1.1c0,0.2,0,0.4,0,0.7c0,0.1,0.1,0.3-0.1,0.4C445.2,86.7,445.1,86.7,445.1,86.6z"/>
			<path id="Trazado_2363" class="st1" d="M441,88.4c-0.1-0.3-0.1-0.6,0-0.8c0-0.1,0.2-0.1,0.2,0c0,0.2,0.1,0.5,0.1,0.7
				c0,0.1,0,0.2-0.1,0.2C441.1,88.5,441,88.5,441,88.4z"/>
			<path id="Trazado_2364" class="st1" d="M456.9,91.7c-0.2-0.2,0.2-0.3,0.2-0.5c0.3-0.4,0.2-1,0-1.4c-0.3-0.3-0.7-0.2-1-0.1
				c-0.1,0-0.1,0-0.2,0c0,0-0.1,0-0.1-0.1c0-0.1,0.1-0.2,0.1-0.2c0.5-0.3,1.1-0.2,1.5,0.2c0.2,0.2,0.3,0.5,0.3,0.9
				c0,0.4-0.2,0.8-0.4,1.1C457.3,91.7,457.1,91.9,456.9,91.7z"/>
			<path id="Trazado_2365" class="st1" d="M422.8,94C422.8,94,422.8,94,422.8,94C422.8,94,422.8,94,422.8,94z M390.4,103.7
				L390.4,103.7L390.4,103.7z M355.5,159.7c-0.1,0-0.1,0-0.2,0C355.4,159.7,355.4,159.7,355.5,159.7z M429.5,160.2
				c-0.8,0-1.7,0-2.5,0c-1,0-2-0.1-3-0.2c-1.9-0.1-3.9,0-5.8-0.1c-1.1,0-2.1-0.1-3.2-0.2c-1.1,0-2.3,0-3.4,0c-1.7,0-3.3,0-5,0
				c-1.1,0-2.3,0.1-3.4,0.1c-1.5,0-3.1-0.2-4.6-0.2c-1.4,0-2.8,0.2-4.3,0.1c-3.2-0.2-6.4,0.2-9.7,0c-1.2,0-2.3,0-3.5,0
				c-2,0-4.1,0.1-6.1,0.2c-2,0.2-3.9,0.4-5.9,0.4c-1.4,0-2.9,0.1-4.3,0.1c-0.7,0-1.5-0.1-2.2-0.1c-2-0.1-4-0.1-6,0
				c-0.6,0-1.2-0.1-1.8-0.1c-0.1,0-0.3-0.2-0.2-0.3c0,0,0,0,0,0c0,0,0,0,0,0c0,0,0-0.1,0-0.1c0.1-0.4,0.1-0.7,0.1-1.1
				c0-1.1,0-2.2,0.1-3.3c0.1-1.6,0.1,2,0.1,0.4c0-1,0.1-2.1,0.1-3.1c0-0.6,0-1.2,0.1-1.9c0-1.1,0.1-2.1,0-3.2c0-0.8,0-1.6,0-2.4
				c0-0.8,0-1.5,0-2.3c0-0.7,0.1-1.4,0.1-2.1c0-0.2,0-0.4,0.1-0.6c0-0.2,0-0.4,0-0.6c-0.1,0-0.1-0.1-0.1-0.2c0,0,0-0.1,0-0.1
				c0,0,0-0.1,0-0.1c0,0,0,0,0,0c0,0,0.1,0,0.1,0c0.1,0,0.1,0,0.1,0c0.3,0,0.5,0,0.8-0.1c0.3,0,0.5,0,0.8,0c0.5,0,1,0,1.4,0
				c0.7,0,1.4,0,2.1,0c1.4,0,2.8,0,4.2,0c1.1,0.1,2.3,0,3.4,0c0.7,0,1.5,0.1,2.2,0.1c0.8,0,1.6,0,2.3,0c0.3,0,0.6,0,0.9,0
				c0-0.2,0.1-0.4,0-0.5c0-0.5,0.1-0.9,0.1-1.4c0.1-1.3,0.2-2.5,0.2-3.8c0-1.2,0-2.3,0-3.5c0-1.2,0-2.4,0-3.6c0-0.9,0.1-1.8,0.1-2.7
				s0.2-1.8,0.2-2.7c0-0.1,0-0.3,0.1-0.4c0,0,0,0,0,0c0-0.1,0-0.2,0-0.3c0-0.1,0.2-0.1,0.3-0.1c0.2,0,0.3-0.1,0.5-0.1
				c0.6-0.1,1.2-0.1,1.8-0.2c0.6-0.1,1.3,0,1.9,0c0.7,0,1.3,0,2,0c0.9,0,1.8,0.1,2.7,0c0.6,0,1.3,0,1.9,0c0.4,0,0.9,0,1.3,0
				c0.7,0,1.5,0,2.2,0c0.1,0,0.2,0,0.2,0c0,0,0-0.1,0-0.1c0-1,0.1-2,0.1-2.9c0.1-0.6,0.1-1.3,0.1-1.9c0-0.4,0.1-0.7,0.1-1.1
				c0-0.7,0.1-1.4,0.1-2c0.1-0.9,0-1.8,0-2.7c0-1.5,0.1-3.1,0.1-4.6c0-0.2,0.1-0.7,0.2-0.9c0-0.1,0.1-0.1,0.2-0.1c0.2,0,0.3,0,0.5,0
				c0.3,0,0.7,0,1-0.1c0.3-0.1,0.6,0,1-0.1c0.4-0.1,0.7-0.1,1.1-0.1c0.4,0,0.7-0.1,1.1-0.1c0.3,0,0.6,0,1,0c1.2,0,2.5,0,3.7,0
				c1.7-0.1,3.4,0.1,5.1,0.1c0-0.6,0.1-1.2,0.2-1.8c0-0.5,0.1-1,0.2-1.5c0.1-0.5,0.1-0.9,0.1-1.4c0.1-1,0.1-2.1,0.2-3.2
				c0-0.5,0.1-0.9,0.1-1.4c0-0.2,0-0.5,0-0.7c0,0,0,0,0.1-0.1c0-0.1,0-0.3,0.1-0.4c0.5-0.4,21.3-0.4,21.3-0.4L429.5,160.2z"/>
			<g id="Grupo_3159" transform="translate(347.618 72.482)">
				<path id="Trazado_2366" class="st3" d="M24.3,12.4c-0.7-0.4-0.2-1.5,0.5-1.5C25.7,11,25,12.7,24.3,12.4z"/>
				<path id="Trazado_2367" class="st3" d="M16,18c-0.4-0.4,0.2-0.8,0.5-1c0.4-0.3,0.9-0.5,1.3-0.7c0.4-0.1,0.8-0.3,1.2-0.4
					c0.5-0.1,1.1-0.2,1.5-0.5c0.3-0.1,0.7-0.2,1-0.4c0.2-0.1,0.5-0.3,0.7-0.5c0.6-0.6,1.2-1.3,1.6-2c0.2-0.3,0.4-1.1,0.8-0.7
					c0.1,0.3,0,0.6-0.1,0.9c-0.1,0.6-0.4,1.1-0.7,1.6c-0.7,0.8-1.6,1.5-2.5,2.1c-0.9,0.7-1.9,1.1-3,1.3c-0.5,0.1-1.1,0.3-1.7,0.4
					C16.5,18.1,16.2,18.2,16,18z"/>
				<path id="Trazado_2368" class="st1" d="M26.4,3.7c0.4-0.1,0.4,0.6,0,0.5h0c-0.1,0-0.2-0.1-0.2-0.2c0,0,0-0.1,0-0.1
					C26.3,3.8,26.3,3.7,26.4,3.7z"/>
				<path id="Trazado_2369" class="st1" d="M3.1,17.2c0-0.1,0.1-0.2,0.1-0.3c-0.2-0.1-0.4-0.2-0.6-0.3c-0.3-0.1-0.6-0.2-0.8-0.4
					c0,0.1-0.1,0.1-0.1,0.2c-0.1,0.2-0.1,0.3-0.2,0.4c0,0.1-0.1,0.2-0.1,0.2c-0.4,0-0.8,0.1-1.2,0.2c0.3,0.1,0.6,0.1,0.9,0
					c0.1,0,0.2,0.1,0.2,0.2c0,0,0,0.1,0,0.1c-0.1,0.1-0.2,0.1-0.3,0.1c-0.1,0-0.3,0.1-0.4,0.2c0.3,0.1,0.6,0,0.8,0
					c0.1,0,0.1,0.1,0.1,0.2c0,0-0.1,0.1-0.1,0.1c-0.2,0-0.3,0.1-0.5,0.1c0.2,0.1,0.4-0.1,0.6-0.1c0.1-0.1,0.3-0.2,0.4-0.2
					c0.1,0,0.1,0.1,0.1,0.2c0,0,0,0.1-0.1,0.1c-0.2,0.1-0.3,0.2-0.5,0.3C2.3,18.8,2.9,17.8,3.1,17.2z M24.2,11.2
					c0.2-0.2,0.3-0.4,0.4-0.6c-0.6-0.2-1.2-0.3-1.9-0.4c0,0.3,0.1,0.6,0.1,1c0,0.3,0,0.9,0.5,0.9c0.2,0,0.3-0.2,0.4-0.3
					C23.9,11.6,24,11.4,24.2,11.2z M26.3,11.9c0.1-0.3,0.2-0.6,0.2-0.8c-0.5-0.1-1-0.2-1.5-0.4c0,0.4,0.1,2.1,0.6,2
					C25.9,12.6,26.1,12.2,26.3,11.9L26.3,11.9z M28.3,4.5c0.1-0.1,0.2-0.1,0.1-0.2c-0.4,0.1-0.9-0.1-1.2-0.3C27,3.3,26.8,2.7,26.6,2
					c-0.6,0.1-1.2,0.4-1.8,0.7c-0.3,0.2-0.7,0.4-0.7,0.9c0.1,0.3,0.2,0.6,0.3,0.8c0.1,0.2,0.1,0.4,0.2,0.7c0,0.2-0.1,0.3-0.3,0.3
					c-0.1,0-0.1,0-0.2,0c-0.3-0.2-0.5-0.6-0.8-0.8C22.9,4.5,22.9,5,23,5.2c0.1,0.2,0.3,0.2,0.4,0.4c0.2,0.2,0.1,0.6,0.1,0.9
					c0,0.1,0,0.1,0,0.2c0,0,0,0.1,0,0.1c-0.2,0.9-0.4,1.8-0.6,2.7c0,0.1-0.1,0.2-0.1,0.3c0.6,0.1,1.3,0.3,1.9,0.4
					c0.3,0.1,0.5,0.2,0.8,0.3c0.3,0.1,0.6,0.1,0.9,0.2c0-0.8,0-1.6,0.1-2.4c0.1-0.5,0-0.9,0.1-1.4c0-0.2,0.2-0.2,0.4-0.2
					c0.2,0,0.4-0.1,0.7-0.2c0.4-0.2,0.1-0.8,0.1-1.2c0-0.2-0.2-0.5,0.1-0.6C27.9,4.6,28.1,4.6,28.3,4.5L28.3,4.5z M44.3,5.8
					c0.2-0.3,0.4-0.6,0.6-0.9c-0.2,0.1-0.4,0.2-0.6,0.4c0,0-0.1,0.1-0.1,0.1c0,0.1-0.2,0-0.2-0.1l0,0c-0.1-0.1,0.1-0.2,0.2-0.3
					c0.1-0.2,0.2-0.4,0.3-0.6c-0.3,0.2-0.6,0.5-0.7,0.9l0,0c0,0.1-0.1,0.1-0.2,0C43.3,5.2,44,4.6,44,4.3c-0.2,0.1-0.3,0.4-0.5,0.6
					c-0.1,0.1-0.2,0.3-0.3,0.4c-0.1,0-0.1,0-0.2-0.1c0,0,0,0,0,0c0.1-0.4,0.5-0.7,0.5-1.1c-0.4,0.2-0.6,0.7-0.9,1.1
					c-0.2,0.6-0.4,1.3-0.6,1.9c-0.2,0.7-0.5,1.4-0.8,2c-0.2,0.6-0.4,1.1-0.7,1.6c-0.3,0.7-0.6,1.4-1,2c-0.2,0.5-0.5,0.9-0.9,1.2
					c-0.1,0.1-0.2,0.3-0.3,0.4c-0.3,0.1-0.5,0.2-0.8,0.1c-0.4,0-0.7-0.1-1.1-0.3c-0.5-0.2-1.1-0.3-1.6-0.4c-0.9-0.2-1.8-0.5-2.8-0.8
					c-0.4-0.1-0.9-0.3-1.3-0.5c-0.5-0.1-1-0.3-1.5-0.5c-0.3-0.1-0.6-0.2-0.9-0.3c-0.3-0.1-0.6-0.4-1-0.5c-0.1-0.1-0.3-0.1-0.4-0.2
					c0,0.1-0.1,0.1-0.1,0.2c-0.2,0.6-0.7,2-1.6,1.6c-0.3-0.2-0.4-0.5-0.4-0.8c-0.1-0.3-0.1-0.7-0.1-1c-0.5,0.4-1,1.4-1.7,1.1
					c-0.2-0.2-0.4-0.4-0.4-0.7c-0.1-0.3-0.1-0.7-0.2-1c0-0.1,0-0.3-0.1-0.4c-0.1,0-0.2,0-0.2-0.1c-0.7-0.2-1.5-0.5-2.2-0.7
					c-1.1-0.4-2.2-0.7-3.3-1c-1.3-0.4-2.6-0.8-3.9-1.2C11,6.8,8.9,6.1,7.3,6.9C6.4,7.5,5.6,8.2,5,9.1c-0.4,0.6-0.7,1.2-1,1.9
					c-0.4,0.8-0.7,1.6-1,2.5C2.6,14.2,2.4,15.1,2,16l0,0c0.5,0.2,1,0.4,1.4,0.6c0.1-0.1,0.1-0.3,0.2-0.4c0.3-0.5,0.6-1,0.9-1.5
					c0.1-0.2,0.2-0.4,0.3-0.6c0.4-0.9,1-1.8,1.6-2.5c0.9-1.3,2.5-1.2,3.9-0.9c0.3,0.1,0.6,0.1,0.9,0.2c0.5,0.1,1,0.3,1.6,0.4
					c1,0.3,2,0.7,3.1,1c0.3,0.1,0.7,0.1,0.8,0.3c0.1,0.1,0.1,0.2,0.1,0.3c0,0.5-0.1,1.1-0.3,1.6c-0.2,0.7-0.4,1.3-0.6,2
					c-0.2,0.4-0.4,0.9-0.5,1.3c-0.1,0.5-0.4,0.9-0.5,1.4c0,0.1,0,0.2-0.1,0.3c0,0.1,0,0.2,0,0.4c0.4,0.2,0.9,0.4,1.4,0.5
					c0.6,0.2,1.2,0.3,1.8,0.5c1.1,0.4,2.2,0.9,3.3,1.2c1.1,0.5,2.2,0.8,3.3,1.1c0.4,0.1,0.8,0.2,1.2,0.3c0,0,0.1,0,0.1,0
					c0.1-0.1,0.2-0.2,0.3-0.3c-0.1-0.1,0-0.3,0.1-0.4c0.6-1.4,1-2.8,1.5-4.2c0.2-0.4,0.4-0.7,0.5-1.1c0.1-0.2,0.1-0.5,0.4-0.5
					c0.7,0.1,1.5,0.3,2.2,0.5c0.7,0.2,1.5,0.4,2.2,0.6c1.1,0.1,2.2,0.3,3.2,0.3c1.4,0.2,2.9-0.3,3.8-1.4c0.3-0.4,0.6-0.9,0.8-1.4
					c0.5-1,0.9-2,1.2-3c0.3-0.7,0.5-1.4,0.7-2.1c0.3-0.7,0.5-1.5,0.7-2.3C43.8,7.3,44,6.7,44.2,6C44.2,5.9,44.3,5.9,44.3,5.8
					L44.3,5.8z M45,4.6c0.6,0.1-0.4,1.1-0.4,1.4c-0.2,1-0.6,2-0.8,3c-0.2,0.7-0.5,1.3-0.7,2c-0.2,0.9-0.6,1.8-0.9,2.7
					c-0.2,0.7-0.5,1.4-0.9,2c-0.2,0.4-0.4,0.7-0.6,1c-0.8,1.2-2.1,1.9-3.6,2c-0.9,0.1-1.8,0-2.7-0.1c-0.8-0.1-1.5-0.1-2.3-0.3
					c-1.2-0.3-2.3-0.7-3.5-0.9c-0.2,0.5-0.5,1-0.6,1.5c-0.2,0.6-0.4,1.1-0.6,1.7c-0.3,0.7-0.5,1.5-0.8,2.2c0,0.2-0.1,0.3-0.2,0.5
					c-0.1,0.2-0.2,0.4-0.4,0.5c0,0.2,0.1,0.3,0.1,0.5c0.1,0.5,0.2,1,0.3,1.5c0.1,0.4,0.3,0.9,0.4,1.3c0.1,0.5,0.1,1,0.2,1.5
					c0.2,0.9,0.3,1.8,0.5,2.8c0.2,0.9,0.3,1.7,0.5,2.6c0.3,1.5,0.6,2.9,0.9,4.4c0.1,0.5,0.3,1.1,0.4,1.6c0.1,0.6,0.3,1.2,0.5,1.8
					c0.2,0.9,0.4,1.8,0.5,2.6c0.2-0.1,0.5,0,0.7-0.1c0.7-0.2,1.4-0.3,2.1-0.4c0.2,0.1,0.1,0.3,0,0.4c-0.2,0.3-0.4,0.6-0.7,0.8
					c-0.7,0.7-1.7,0.9-2.6,0.6c-0.2-0.1-0.4-0.1-0.6-0.2c0,0.1,0,0.2,0,0.3c0,0.3,0.1,0.9-0.5,0.8c-0.3,0-0.7-0.1-0.9-0.3
					c-0.1-0.1-0.1-0.2-0.2-0.4c-0.4-0.7-0.7-1.5-0.9-2.3c-0.4-1.3-0.8-2.6-1.3-3.9c-0.3-0.9-0.5-1.7-0.7-2.6c-0.6-1.7-1-3.5-1.5-5.2
					c-0.2-0.7-0.5-1.5-0.7-2.2c-0.2-0.5-0.4-1-0.6-1.6c-0.4-0.9-0.8-1.9-2-1.2c-0.1,1.1-0.1,2.2-0.1,3.3c0,1.2-0.1,2.4,0,3.6
					c0.1,1.7,0.2,5.2-0.7,6.5c-1.3,1.8-3.6,1-5.4,0.5c-1.1-0.4-2.2-0.9-3.2-1.6c-0.5-0.3-1-0.5-1.5-0.8c-0.5-0.3-1-0.6-1.5-0.9
					c-0.7-0.4-1.3-0.8-1.9-1.3c-0.3-0.2-0.6-0.4-0.9-0.7c-0.2-0.2-0.4-0.4-0.7-0.6c-0.3-0.1-0.5-0.2-0.8-0.2c-0.1,0-0.1,0.1-0.2,0.2
					c-0.3,0.3-0.6,0.6-0.9,0.9C1.9,36,1.5,36.6,1,36.5c-0.4-0.2,0-1.1,0.2-1.4c0.1-0.4,0.3-0.8,0.6-1.1c0.4-0.5,0.8-0.9,1.4-1.2
					c-0.3-0.2-1.1-0.4-1-0.8c0.1-0.3,0.2-0.5,0.3-0.8C2.5,31,2.6,31,2.8,31.1c0.4,0.1,0.8,0.1,1.2,0.2c1.4,0.4,2.7,0.9,4,1.5
					c1.2,0.4,2.4,0.9,3.6,1.3c0.7,0.2,1.5,0.5,2.2,0.8c0.5,0.1,1,0.3,1.5,0.4c-0.1-1.3-0.4-2.7-0.5-4c-0.1-1.6-0.2-3.1-0.2-4.7
					c0-1.2,0-2.4,0-3.6c0-0.7,0.1-1.3,0.2-2c0-0.2,0-0.3,0.1-0.5c0,0,0-0.1,0-0.1c-0.1,0-0.1-0.1-0.2-0.1c-0.3-0.2-0.3-0.5-0.1-0.7
					c-0.2-0.2,0.3-1.2,0.4-1.5c0.2-0.7,0.5-1.5,0.8-2.2c0.2-0.7,0.4-1.3,0.6-2c0.1-0.3,0.2-0.7,0.3-1.1c-1.2-0.4-2.4-0.8-3.6-1.1
					c-0.8-0.1-1.5-0.4-2.2-0.5c-1-0.4-2.1-0.4-3.1,0c-0.3,0.2-0.6,0.4-0.8,0.7c-0.6,0.9-1.2,1.8-1.6,2.8c-0.5,1-1.3,1.9-1.7,2.9
					C3.1,18.3,2.6,19,1.7,19c-0.2,0-0.6-0.1-0.6-0.4c-0.3,0.1-0.7-0.1-0.6-0.5c-0.2-0.1-0.4-0.3-0.2-0.5C0,17.6-0.2,17.2,0.3,17
					c0.3-0.1,0.7-0.2,1-0.2C1.7,15.9,2,15,2.3,14c0.2-0.8,0.6-1.6,0.8-2.3c0.4-1.1,1-2.2,1.7-3.2c0.4-0.6,1-1.1,1.6-1.4
					c0.4-0.3,0.8-0.5,1.2-0.7c1.8-0.6,4.4,0.2,6.2,0.7c0.9,0.3,1.8,0.5,2.7,0.8c0.9,0.3,1.8,0.5,2.7,0.8c0.9,0.3,1.9,0.7,2.8,1
					c0.1,0,0.2,0.1,0.3,0.1c0,0,0-0.1,0-0.1c0.2-0.8,0.4-1.6,0.6-2.3c0,0,0-0.1,0-0.1c-0.2,0.1-0.4,0.1-0.6,0
					c-0.3-0.2-0.4-0.6-0.3-0.9c0.1-0.2,0.2-0.3,0.3-0.4l0,0c-0.6-0.6-0.8-1-0.3-1.7c-0.7-0.8-0.1-1.3,0.7-1.6
					c-0.2-0.4-0.1-1,0.4-1.2c0.4-0.2,0.8,0,1.3,0c-0.3-1.3,0.9-1.3,1.7-0.8c0.3-0.2,0.5-0.7,0.9-0.5c0.6,0.3,0.3,1.5-0.3,1.9
					C27,2,27.1,2.2,27.1,2.3c0.2,0.4,0.3,0.7,0.4,1.1c0,0.1,0,0.3,0.2,0.4c0.3,0.1,0.6,0,0.8,0.1c0.1,0,0.2,0.2,0.2,0.3
					c-0.1,0.4-0.5,0.4-0.7,0.6c0.1,0.3,0.1,0.7,0.1,1c0.1,0.2,0,0.5-0.1,0.7c-0.2,0.4-0.7,0.4-1.1,0.5c0,0.5,0.1,0.9,0.1,1.4
					c0,0.7,0,1.3-0.1,2c0,0.1,0,0.2,0,0.3c0,0,0.1,0,0.1,0.1c0.6,0.2,1.1,0.6,1.7,0.8c0.3,0.1,0.6,0.2,0.9,0.3
					c0.4,0.2,0.9,0.3,1.3,0.5c0.8,0.3,1.7,0.6,2.5,0.8c1,0.3,2.1,0.4,3.2,0.8c0.5,0.2,1,0.2,1.5,0.1c0.2-0.4,0.6-0.6,0.8-1
					c0.6-0.9,1-1.9,1.5-2.9C40.8,9.5,41,8.7,41.3,8c0.3-1,0.7-2,1.1-3c0.3-0.4,0.5-0.9,0.9-1c0.1-0.1,0.3,0,0.3,0.1
					c0,0.1,0,0.1,0,0.2C44,3.9,44.4,4,44.2,4.5c0.1-0.1,0.2-0.2,0.4-0.2c0.1,0.1,0,0.3,0,0.5C44.7,4.7,44.9,4.6,45,4.6L45,4.6z"/>
				<path id="Trazado_2370" class="st3" d="M24.8,1.8c0-0.1,0-0.2,0-0.3c0-0.1,0.1-0.1,0.2-0.1c0,0,0.1,0,0.1,0.1
					c0,0.1,0.1,0.4-0.1,0.4C24.9,1.9,24.9,1.9,24.8,1.8C24.8,1.8,24.8,1.8,24.8,1.8z"/>
				<path id="Trazado_2371" class="st3" d="M25.3,1.5c0-0.1,0.1-0.2,0.2-0.2s0.2,0.1,0.2,0.2c0,0.1-0.1,0.2-0.2,0.2
					C25.4,1.7,25.3,1.6,25.3,1.5z"/>
				<path id="Trazado_2372" class="st3" d="M25.9,1.4c0-0.1,0.1-0.2,0.2-0.2c0.1,0,0.2,0.1,0.2,0.2c0,0.1-0.1,0.2-0.2,0.2
					C26,1.6,25.9,1.5,25.9,1.4z"/>
				<path id="Trazado_2373" class="st3" d="M22.7,4c0,0-0.1-0.1-0.1-0.1c0,0,0,0,0,0c0.1,0,0.1-0.1,0.2,0c0.1,0,0.1,0,0.1,0.1
					c0,0,0,0,0,0.1C22.9,4,22.8,4,22.7,4C22.8,4,22.7,4,22.7,4L22.7,4z"/>
			</g>
			<path id="Trazado_2374" class="st3" d="M403.5,66C403.5,66,403.5,66,403.5,66L403.5,66L403.5,66L403.5,66L403.5,66
				C403.5,65.9,403.4,65.9,403.5,66C403.4,65.9,403.4,66,403.5,66C403.4,66,403.4,66,403.5,66z M409,73.2c-0.2-0.2-0.3-0.4-0.4-0.6
				c-0.3-0.4-0.5-0.7-0.8-1.1s-0.4-0.8-0.6-1.2c-0.7-1.3-1.2-2.7-1.6-4.1c-0.1-0.3-0.2-0.6-0.3-0.8c0,0,0,0.1-0.1,0.1
				c-0.2,0.7-0.9,1.1-1.6,1c-0.5,0-1-0.5-0.6-1c0.1-0.1,0.3-0.2,0.4-0.1c0.1,0,0.2,0,0.2,0.1c0.2,0.2,0.2,0.4,0.1,0.6
				c0.3,0,0.5-0.1,0.7-0.2c0.3-0.3,0.5-0.6,0.5-1c0-0.4-0.1-0.7-0.3-1c-0.2-0.3-0.5-0.6-0.9-0.8c-0.5-0.3-1.1-0.2-1.5,0
				c-0.4,0.2-0.8,0.5-1.1,0.8c-0.5,0.5-0.8,1.1-0.8,1.8c-0.2,0.9,0,1.9,0.4,2.7c0.1,0.5,0.3,0.9,0.6,1.2c0.3,0.3,0.5,0.6,0.7,0.9
				c0.3,0.3,0.7,0.6,1,0.8c0.3,0.2,0.6,0.4,1,0.5c0.2,0.1,0.4,0.2,0.7,0.3c0.4,0.1,0.8,0.2,1.3,0.3c0.8,0.1,1.5,0.3,2.2,0.5
				C408.6,73.1,408.8,73.1,409,73.2L409,73.2z M428.9,64.7C428.8,64.7,428.8,64.7,428.9,64.7C428.8,64.7,428.8,64.7,428.9,64.7z
				 M431.3,66c0.2-0.7,0.3-1.5,0.1-2.2c-0.1-0.5-0.3-1-0.7-1.3c-0.4-0.2-0.8-0.3-1.2-0.3c-0.4,0-0.8,0-1.1,0.2
				c-0.4,0.1-0.8,0.4-1,0.8c-0.2,0.6-0.1,1.2,0.3,1.7c0.1,0.1,0.2,0.2,0.4,0.3c0.4,0.2,0.8,0.3,0.9-0.2c-0.4,0-0.6-0.4-0.3-0.6
				c0.2-0.1,0.5-0.1,0.7,0.2c0,0,0,0,0,0.1c0.1,0.3,0.1,0.6,0,0.9c-0.1,0.2-0.3,0.4-0.6,0.5c-0.3,0-0.7,0-1-0.2
				c-0.3-0.1-0.5-0.3-0.7-0.6c0,0-0.1-0.1-0.1-0.1c-0.1,0.7-0.3,1.4-0.5,2.1c-0.3,0.9-0.6,1.8-1,2.7c-0.2,0.6-0.5,1.1-0.8,1.6
				c-0.2,0.4-0.4,0.7-0.7,1c0.1-0.1,0.2-0.1,0.2-0.2c0.3-0.2,0.6-0.4,1-0.7c0.7-0.4,1.3-0.9,2-1.3c0.5-0.3,1-0.6,1.4-0.9
				c0.4-0.3,0.8-0.7,1.2-1C430.5,67.7,431,66.9,431.3,66L431.3,66z M432.1,64.1c0.1,0.9,0,1.9-0.5,2.7c-0.3,0.7-0.8,1.4-1.4,2
				c-0.6,0.5-1.2,1-1.8,1.5c-0.8,0.5-1.6,0.8-2.3,1.3h0l0,0c-0.6,0.4-1.2,0.8-1.8,1.2c-1.1,0.8-1.7,2-1.7,3.4c0,0.5,0.2,1,0.5,1.3
				c0.6,0.5,1.4,0.6,2.1,0.2c0.8-0.3,1.3-0.9,1.5-1.7c0-0.2-0.1-0.5-0.2-0.6c-0.2-0.3-0.5-0.4-0.9-0.3c0.6,0.1,0.3,1.1-0.3,0.9
				c-0.3-0.1-0.4-0.5-0.3-0.8c0,0,0,0,0-0.1c0.3-0.4,0.9-0.5,1.3-0.2c0.4,0.2,0.6,0.7,0.6,1.1c-0.1,1.4-1.8,2.4-3,2.3
				c-0.2,0-0.5-0.1-0.7-0.2c-0.4-0.2-0.7-0.5-1-0.9c-0.4-1.1-0.3-2.3,0.4-3.3c-0.3,0.2-0.5,0.4-0.8,0.6c-0.7,0.6-1.5,1.1-2.4,1.5
				c-0.6,0.3-1.2,0.6-1.8,0.9c0,0,0.1,0.1,0.1,0.1c0.2,0.1,0.3,0.3,0.3,0.5c-0.1,0.5-0.6,0.7-1,0.8c0.1,1.2,0.2,2.5,0.1,3.7
				c0,1.9-0.1,3.7,0,5.6c0,0.9,0,1.7,0.1,2.6c0,0.3,0.1,0.7,0.1,1c0,0,0.1,0,0.1,0c0.4,0,0.9,0,1.3,0.1c0.6,0.1,1.1,0.1,1.7,0.3
				c1.5,0.3,0.2,1.1-0.6,1.3c-0.4,0.1-0.9,0.1-1.4,0.1c-0.8,0-1.5,0-2.3,0.1c-0.6,0.1-1.1,0-1.7,0c-0.3,0.1-0.6,0.1-1,0.1
				c-0.6-0.1-1.2,0-1.8,0c-0.8-0.1-1.7-0.3-0.4-0.8c0.4-0.2,0.9-0.3,1.3-0.4c0.4-0.1,0.8-0.2,1.2-0.3s0.8-0.1,1.1-0.2l0.1,0
				c-0.1-2.6,0-5.3-0.3-7.9c-0.1-1.7,0-3.4-0.2-5.1c-0.3,0-0.7-0.2-0.8-0.5c0-0.1,0-0.3,0.1-0.4c0.1-0.1,0.1-0.2,0.2-0.4
				c-0.3,0-0.5-0.1-0.7-0.2c-0.7-0.3-1.4-0.6-2.1-1c-0.2-0.1-0.5-0.3-0.7-0.4c0.4,0.7,0.4,1.6,0,2.4c-0.2,0.4-0.5,0.7-1,0.8
				c-0.4,0.2-0.8,0.3-1.3,0.2c-0.5,0-0.9-0.1-1.3-0.4c-0.5-0.5-0.7-1.2-0.5-1.8c0.2-0.5,0.5-0.8,1-0.7c0.2,0.1,0.4,0,0.5,0.2
				c0.3,0.2,0.3,0.6,0.1,0.8c-0.1,0.1-0.1,0.1-0.2,0.2c-0.5,0.1-1-0.5-0.7-0.9c-0.1,0-0.2,0.1-0.3,0.2c-0.3,0.5-0.2,1.1,0.1,1.5
				c0.3,0.6,1.5,0.6,2.1,0.4c0.5-0.1,0.9-0.4,1.1-0.9c0.2-0.5,0.2-1,0-1.5c-0.2-0.4-0.3-0.8-0.6-1.2c-0.2-0.3-0.5-0.5-0.7-0.6
				c-0.3-0.2-0.6-0.3-1-0.4c-0.7-0.2-1.5-0.4-2.3-0.5c-0.3-0.1-0.6-0.2-1-0.3c-0.3-0.1-0.7-0.2-1-0.4c-0.3-0.1-0.6-0.2-0.9-0.4
				c-0.3-0.2-0.5-0.4-0.8-0.6c-0.3-0.2-0.5-0.4-0.8-0.7c-0.2-0.2-0.3-0.4-0.5-0.6c-0.4-0.5-0.6-1-0.8-1.6c-0.1-0.3-0.2-0.6-0.3-1
				c-0.1-0.3-0.1-0.7-0.1-1c0-0.3,0-0.7,0.1-1c0.1-0.5,0.3-1,0.6-1.4c0.2-0.3,0.4-0.5,0.7-0.7c0.6-0.6,1.5-0.9,2.3-0.7
				c0.4,0.2,0.8,0.4,1.1,0.8c0,0,0,0,0-0.1c0,0,0,0,0-0.1c0,0,0-0.1,0-0.1c0-0.1,0.1-0.2,0.2-0.1l0,0c0,0,0,0.1,0,0.1
				c0.1,0,0.1,0,0.2,0c0.4,0,0.7,0,1.1,0c0.9,0,1.9,0,2.8-0.1c0.7,0,1.4,0,2.1,0c1.4-0.1,2.8-0.1,4.2,0c0.9,0,1.9,0,2.8,0
				c0.8,0,1.5,0,2.3-0.1c0.5,0,0.9,0,1.4-0.1c0.5,0,1,0,1.4-0.1c0.5,0,1,0,1.5,0c0.5-0.1,1-0.1,1.6-0.1c0.2,0,0.3,0,0.5,0
				c0.1,0,0.2,0,0.3,0l0,0c0.1-0.1,0.2-0.2,0.3-0.3c0.4-0.3,0.9-0.5,1.4-0.6c0.6-0.1,1.2,0,1.8,0.2c0.5,0.2,0.9,0.6,1.2,1.1
				C432,63.4,432,63.7,432.1,64.1L432.1,64.1z"/>
			<path id="Trazado_2375" class="st1" d="M407.4,67.8c-0.2-0.3-0.3-0.7-0.5-1c-0.2-0.4-0.3-0.8-0.4-1.2c0-0.1-0.1-0.2,0-0.3l0,0
				c0,0,0.1,0,0.1,0c0,0,0,0,0,0.1c0.3,0.1,0.4,0.5,0.6,0.8c0.2,0.3,0.3,0.7,0.4,1c0,0.1,0.1,0.3,0,0.4
				C407.7,67.8,407.6,68,407.4,67.8z"/>
			<path id="Trazado_2376" class="st1" d="M406.5,64.7c-0.1,0-0.1-0.1-0.1-0.2c0-0.1,0.2-0.3,0.3-0.2c0.1,0,0.1,0.2,0.1,0.3
				c0,0,0,0,0,0.1c0,0,0,0,0,0C406.6,64.7,406.5,64.7,406.5,64.7z"/>
			<path id="Trazado_2377" class="st1" d="M415.2,77.6C415.2,77.6,415.1,77.6,415.2,77.6c-0.1,0-0.1,0-0.1,0c0,0,0,0,0,0
				c0,0,0,0,0,0L415.2,77.6c-0.2-0.1-0.2-0.2-0.2-0.2c0-0.1,0.1-0.1,0.1-0.1c0,0,0.1,0,0.1,0.1C415.4,77.3,415.4,77.7,415.2,77.6z"
				/>
		</g>
	</g>
</g>
</svg>
