<?xml version="1.0" encoding="utf-8"?>
<!-- Generator: Adobe Illustrator 27.0.1, SVG Export Plug-In . SVG Version: 6.00 Build 0)  -->
<svg version="1.1" id="Capa_1" xmlns="http://www.w3.org/2000/svg" xmlns:xlink="http://www.w3.org/1999/xlink" x="0px" y="0px"
	 viewBox="0 0 168 142" style="enable-background:new 0 0 168 142;" xml:space="preserve">
<style type="text/css">
	.st0{clip-path:url(#SVGID_00000156556539566050341290000017613680105546370696_);}
	.st1{fill:#FFFFFF;}
	.st2{fill:#E0B764;}
	.st3{fill:#E40022;}
	.st4{fill:#F1F2F2;}
	.st5{fill:#EAB754;}
</style>
<g>
	<defs>
		<rect id="SVGID_1_" width="168" height="142"/>
	</defs>
	<clipPath id="SVGID_00000120543677516185414920000012331653207167410614_">
		<use xlink:href="#SVGID_1_"  style="overflow:visible;"/>
	</clipPath>
	<g id="Icon_RGM" style="clip-path:url(#SVGID_00000120543677516185414920000012331653207167410614_);">
		<g id="Grupo_3157" transform="translate(-1009.408 -257.264)">
			<path id="Trazado_2135" class="st1" d="M1098.7,355.8c-0.3-0.1-0.3-0.6,0-0.7c0.1,0,0.3,0,0.4-0.1c1-0.1,2.1-0.2,3.1-0.2
				c1.2,0,2.3-0.1,3.5-0.3c0.9-0.1,1.7-0.3,2.6-0.5c1.7-0.3,3.3-0.8,4.9-1.4c1.1-0.4,2.3-0.8,3.4-1.3c1.1-0.5,2.2-0.8,3.2-1.3
				c0.8-0.4,1.5-0.8,2.2-1.2c0.9-0.5,1.8-1,2.7-1.6c0.9-0.7,1.8-1.4,2.6-2.1c0.9-0.8,1.8-1.6,2.7-2.5c1.3-1.6,2.6-3.2,3.7-4.9
				c0.4-0.7,0.9-1.4,1.2-2.1c0.1,0,0.1,0,0.2,0c0,0,0,0,0.1,0c0.1,0.1,0.1,0.1,0.2,0.1c0,0,0.1,0,0.1,0c0.1,0,0.2-0.1,0.2-0.2
				l0.1-0.1l0,0.1c-2.4,5-6,9.2-10.6,12.3c-1.3,0.9-2.6,1.7-4,2.4c-1,0.5-2,1-3.1,1.3c-1.1,0.4-2.2,0.9-3.4,1.3
				c-1.8,0.7-3.7,1.3-5.7,1.8c-2.1,0.4-4.2,0.7-6.3,0.8c-1,0.1-1.9,0.1-2.9,0.2c-0.2,0-0.3,0.1-0.5,0.1c-0.1,0-0.2,0-0.4,0
				L1098.7,355.8C1098.8,355.8,1098.7,355.8,1098.7,355.8z"/>
			<path id="Trazado_2136" class="st1" d="M1137.3,330.9L1137.3,330.9L1137.3,330.9z"/>
			<path id="Trazado_2137" class="st1" d="M1137.4,330.8L1137.4,330.8L1137.4,330.8L1137.4,330.8z"/>
			<path id="Trazado_2138" class="st1" d="M1137.6,329c0.2-0.7,0.5-1.4,0.7-2.1c0.6-1.8,1-3.7,1.3-5.6c0.2-1.7,0.3-3.5,0.2-5.3
				c0-1.2-0.1-2.4-0.3-3.6c-0.3-2-0.8-3.9-1.3-5.8c-0.3-1.2-0.7-2.4-1.2-3.5c-0.2-0.6-0.5-1.1-0.8-1.7c-0.3-0.5-0.6-0.9-0.8-1.3
				c-0.2-0.3-0.3-0.6-0.5-1c-0.3-0.6-0.7-1.1-1-1.7c-0.4-0.9-0.9-1.8-1.5-2.6c-0.7-1.1-1.5-2.1-2.4-3.1c-1-1.2-2.1-2.3-3.2-3.4
				c-1.3-1-2.7-2-4.1-2.9c-1.1-0.7-2.2-1.3-3.3-1.9c-0.6-0.3-1.2-0.4-1.8-0.7c-0.8-0.3-1.5-0.6-2.3-0.8c-1.2-0.4-2.4-0.8-3.7-1
				c-0.7-0.2-1.5-0.2-2.3-0.3c-0.6-0.1-1.2-0.3-1.8-0.4c-0.4,0-0.7,0-1.1,0c-0.3,0-0.5,0-0.8,0c-0.3,0-0.6,0-0.9,0
				c-0.4,0-0.8,0-1.3,0c-0.1,0-0.1,0-0.2,0c-0.1,0-0.2,0-0.3-0.1c-0.1-0.1-0.1-0.3,0-0.4c0.2,0,0.4-0.1,0.6-0.1c0.3,0,0.7,0,1,0
				c0.4,0,0.9,0,1.3,0s0.9,0,1.3,0c0.7,0.1,1.4,0.3,2.1,0.4c0.9,0.1,1.9,0.2,2.8,0.4c1.1,0.2,2.2,0.5,3.2,0.9c0.3,0.1,0.7,0.2,1,0.3
				c0.6,0.2,1.2,0.5,1.8,0.7c1,0.3,2,0.8,3,1.4c1,0.5,1.9,1.1,2.8,1.7c0.6,0.4,1.3,0.8,1.8,1.2c0.9,0.7,1.7,1.4,2.5,2.2
				c0.8,0.8,1.5,1.6,2.3,2.5c0.5,0.5,0.9,1.1,1.4,1.6c0.6,0.8,1.2,1.7,1.7,2.6c0.3,0.6,0.7,1.3,1.1,1.9c0.4,0.6,0.8,1.3,1.1,2
				c0.4,0.6,0.8,1.2,1.1,1.9c0.4,1,0.9,2,1.2,3c0.2,0.7,0.4,1.4,0.6,2.1c0.4,1.1,0.6,2.2,0.8,3.3c0.3,1.1,0.4,2.1,0.6,3.2
				c0.1,1.5,0.2,3,0.2,4.5c0,1.2-0.1,2.3-0.2,3.5c-0.3,1.9-0.7,3.7-1.2,5.5c-0.2,0.5-0.3,0.9-0.5,1.4l-0.2,0.2c0,0-0.1,0.1-0.1,0.1
				l-0.2,0.2c-0.2,0.2-0.3,0.3-0.5,0.5L1137.6,329z"/>
			<path id="Trazado_2139" class="st1" d="M1065.1,305.8c-0.1,0-0.3-0.1-0.3-0.3c0.1-0.4,0.2-0.8,0.3-1.2c0.2-0.8,0.5-1.6,0.8-2.3
				c1-2.3,2.3-4.5,3.9-6.5c1-1.3,2.1-2.5,3.3-3.7c0.4-0.4,0.9-0.9,1.4-1.3s1-0.8,1.4-1.2c0.4-0.3,0.7-0.6,1.1-0.9
				c0.7-0.5,1.4-1,2.1-1.6c0.7-0.5,1.3-1,2-1.4c1-0.7,2.1-1.3,3.2-1.8c1-0.4,1.9-0.8,2.9-1.2c0.6-0.2,1.2-0.3,1.8-0.5
				s1.1-0.4,1.7-0.6c1-0.3,2.1-0.5,3.1-0.6c1.2-0.2,2.3-0.4,3.5-0.5c1.1,0,2.2-0.3,3.3-0.4c0.8,0,1.5,0,2.2,0c0.2,0,0.4,0,0.6,0
				c0.2,0,0.3,0,0.5,0c0.2,0,0.3,0.2,0.2,0.4c0,0.1,0,0.1-0.1,0.2c-0.1,0-0.2,0-0.2,0c-1.3,0.2-2.5,0-3.8,0.1
				c-0.6,0.1-1.1,0.2-1.7,0.2s-1.1,0.1-1.7,0.1c-1.7,0.3-3.5,0.5-5.2,0.9c-0.7,0.2-1.4,0.4-2.1,0.7c-0.6,0.2-1.1,0.3-1.7,0.5
				c-0.8,0.3-1.6,0.7-2.4,1c-0.6,0.2-1.3,0.5-1.9,0.8c-0.8,0.4-1.6,1-2.3,1.5c-1,0.6-1.9,1.4-2.9,2.1c-0.6,0.5-1.2,1-1.8,1.4
				c-0.6,0.5-1.2,1-1.8,1.5c-3.2,2.9-5.9,6.4-7.8,10.4c-0.4,0.9-0.8,1.9-1,2.9c-0.1,0.3-0.2,0.6-0.3,0.9c0,0.1-0.1,0.1-0.1,0.2
				C1065.3,305.8,1065.2,305.8,1065.1,305.8z"/>
			<path id="Trazado_2140" class="st1" d="M1099.4,355.4c-0.8,0-1.6-0.1-2.4-0.2c-0.7-0.1-1.4-0.2-2.1-0.3c-0.7-0.1-1.4-0.2-2.1-0.3
				c-0.4-0.1-0.9-0.2-1.3-0.3c-0.9-0.2-1.7-0.5-2.6-0.7c-0.7-0.2-1.3-0.5-2-0.8c-0.6-0.2-1.3-0.4-1.9-0.7c-0.6-0.3-1.3-0.6-1.9-1
				c-1.3-0.6-2.5-1.3-3.7-2c-1.2-0.7-2.3-1.5-3.5-2.3c-0.9-0.7-1.9-1.4-2.7-2.2c-0.3-0.3-0.7-0.7-1-1.1c-0.6-0.6-1.2-1.3-1.8-1.9
				c-0.6-0.7-1.2-1.4-1.8-2.2c-1.1-1.6-2-3.2-2.8-5c-0.4-0.9-0.7-1.8-1-2.7c-0.3-0.9-0.6-1.8-0.9-2.7c-0.3-0.9-0.5-1.8-0.8-2.7
				c-0.2-0.8-0.4-1.6-0.5-2.5c-0.2-0.9-0.5-1.8-0.6-2.7c-0.2-1.9-0.3-3.8-0.3-5.6c0-1,0.2-1.9,0.4-2.8c0.1-0.6,0.2-1.2,0.4-1.7
				c0.1-0.3,0.2-0.8,0.5-1c0.1-0.1,0.3-0.1,0.4,0c0.1,0.1,0.3,0.2,0.2,0.3c-0.1,0.1-0.2,0.1-0.3,0.1c0,0-0.1,0-0.1,0
				c-0.2,0.4-0.3,0.8-0.3,1.2c-0.1,0.3-0.1,0.6-0.2,0.9c-0.2,0.8-0.4,1.7-0.4,2.5c0,1,0,2,0,3c0.1,1.1,0.1,2.2,0.3,3.4
				c0.1,0.7,0.3,1.4,0.5,2.2c0.1,0.5,0.2,1.1,0.3,1.6c0.3,1.4,0.7,2.7,1.1,4c0.3,1,0.7,1.9,1,2.9c0.2,0.5,0.3,1.1,0.5,1.6
				c0.7,1.6,1.5,3.2,2.5,4.7c0.6,0.9,1.4,1.8,2.1,2.7c0.4,0.6,0.9,1.1,1.4,1.6c0.8,0.8,1.6,1.6,2.4,2.4c0.8,0.7,1.7,1.4,2.5,2
				c0.7,0.5,1.5,0.9,2.2,1.4c1.1,0.7,2.2,1.3,3.3,1.9c1,0.5,2,1.1,3.1,1.5c0.8,0.3,1.7,0.6,2.5,0.9c0.5,0.2,1.1,0.4,1.6,0.5
				c0.8,0.2,1.7,0.5,2.5,0.7c0.7,0.1,1.4,0.2,2.1,0.3c0.7,0.1,1.3,0.2,2,0.3c1,0.2,2,0.3,3,0.3c0.4,0,0.7-0.1,1.1,0
				c0.1,0,0.3,0.1,0.3,0.2c0,0.2-0.1,0.3-0.3,0.3C1100.3,355.3,1099.9,355.4,1099.4,355.4z"/>
			<path id="Trazado_2141" class="st1" d="M1095.1,355.4c-0.4-0.1-0.7-0.3-1.1-0.4c-0.1,0-0.2-0.1-0.3-0.1c-0.2-0.2,0.1-0.5,0.3-0.5
				c0.2,0,0.4,0,0.6,0.1c1.2,0.3,2.5,0.4,3.8,0.5c0.5,0.1,0.9,0,1.4-0.1c0.1,0,0.3,0,0.4,0.1c0,0.1,0,0.2-0.1,0.3c0,0,0,0,0,0
				c-0.2,0.1-0.3,0.1-0.5,0.1c0.2,0,0.5,0,0.4,0.3c0,0-0.1,0.1-0.1,0.1c-0.2,0-0.3,0-0.5,0l0,0c-0.2,0-0.3,0-0.5,0h-0.1
				C1097.6,355.8,1096.4,355.6,1095.1,355.4z"/>
			<path id="Trazado_2142" class="st1" d="M1098.1,355.2c-0.9,0-1.7,0-2.6-0.1c-0.7-0.1-1.4-0.2-2.1-0.3c-1.6-0.3-3.1-0.8-4.6-1.4
				c-0.4-0.2-0.8-0.3-1.2-0.5c-1.5-0.6-3-1.2-4.4-1.9c-1.3-0.6-2.5-1.2-3.6-2c-1.1-0.7-2.3-1.4-3.4-2.2c-0.4-0.3-0.8-0.5-1.2-0.8
				c-0.7-0.5-1.3-1-1.9-1.5c-0.4-0.3-0.8-0.7-1.2-1.1c-0.6-0.7-1.2-1.5-1.9-2.2c-0.6-0.7-1.2-1.5-1.7-2.3c-0.3-0.4-0.5-0.8-0.8-1.1
				c-0.5-0.8-0.9-1.7-1.4-2.5c-0.3-0.6-0.6-1.3-0.9-1.9c-0.3-0.8-0.6-1.6-0.9-2.3c-0.3-0.9-0.6-1.8-0.9-2.7
				c-0.3-0.7-0.5-1.5-0.7-2.3c-0.2-0.8-0.4-1.7-0.4-2.6c-0.1-0.6-0.3-1.2-0.4-1.9c-0.1-0.5-0.1-1-0.1-1.4c-0.2-2-0.2-4.1-0.2-6.1
				c0.1-1,0.2-1.9,0.5-2.8c0.2-0.9,0.4-1.7,0.6-2.5c0.1-0.4,0.8-0.3,0.8,0.1c-0.2,1-0.6,2.1-0.8,3.1c-0.2,0.6-0.3,1.3-0.3,2
				c-0.1,1,0,1.9,0,2.9c0,0.9,0.1,1.7,0.1,2.6c0,0.9,0.1,1.8,0.3,2.6c0.2,1,0.3,2,0.5,3c0.2,0.9,0.4,1.8,0.7,2.7
				c0.2,0.4,0.3,0.9,0.4,1.4c0.3,0.9,0.6,1.8,1,2.7c0.2,0.5,0.3,0.9,0.5,1.4c0.6,1.4,1.3,2.8,2,4.1c0.5,0.8,1,1.5,1.5,2.3
				c0.5,0.7,1,1.3,1.6,1.9c0.5,0.5,0.9,1.1,1.4,1.7c0.5,0.5,1,1,1.5,1.4c0.7,0.6,1.4,1.1,2.2,1.6c1.1,0.8,2.3,1.4,3.4,2.2
				c1,0.7,2.1,1.3,3.3,1.9c0.8,0.4,1.7,0.7,2.5,1.1c0.8,0.3,1.5,0.7,2.3,1c1,0.4,2.1,0.8,3.1,1.1c1,0.3,1.9,0.6,2.9,0.8
				c0.7,0.1,1.4,0.2,2,0.3c0.5,0.1,1,0.1,1.5,0.1c0.7,0.1,1.3,0.1,2,0.1c0.2-0.2,0.5,0,0.3,0.2
				C1099.2,355.3,1098.5,355.2,1098.1,355.2z"/>
			<path id="Trazado_2143" class="st1" d="M1102.1,354.9c-0.2,0-0.3-0.1-0.3-0.3c-0.1-0.3-0.1-0.7-0.2-1c-0.3-1.9-0.4-3.8-0.4-5.7
				c-0.2-2-0.3-3.9-0.4-5.9c-0.2-2.1-0.2-4.2-0.2-6.3c-0.1-2.3-0.1-4.6-0.1-6.9c-0.1-1.9-0.1-3.8-0.1-5.6c0-1.6-0.1-3.2-0.1-4.9
				c0-6.4-0.1-12.8,0.1-19.2c0.1-2.4,0-4.7,0.2-7.1c0-0.8,0-1.7,0-2.5c0-1.6,0.1-3.2,0.2-4.7c0-1.3,0.1-2.5,0.2-3.8
				c0-0.2,0-0.4,0-0.5c0-0.1,0.1-0.3,0.2-0.3c0.1,0,0.3,0,0.3,0.1c0.1,0.1,0.1,0.2,0.1,0.3c0,0.2,0,0.4,0,0.6
				c-0.1,1.2-0.2,2.4-0.2,3.6c-0.1,1.6-0.2,3.2-0.2,4.7c0,1.2,0,2.4,0,3.5c-0.1,1.6-0.1,3.2-0.1,4.8c-0.2,5.2-0.2,10.4-0.2,15.6
				c0,2,0,3.9,0,5.9c0.1,2.4,0.1,4.8,0.2,7.3c0.1,2.3,0.1,4.8,0.1,7.1c0,1.6,0.1,3.2,0.1,4.9c0,1.6,0.2,3.2,0.2,4.8
				c0.1,1.5,0.2,3.1,0.3,4.6c0.2,1.9-0.1,3.8,0.3,5.7c0.1,0.3,0.1,0.5,0.1,0.8c0,0.1,0,0.2,0,0.3
				C1102.4,354.7,1102.3,354.8,1102.1,354.9C1102.2,354.9,1102.2,354.9,1102.1,354.9z"/>
			<path id="Trazado_2144" class="st1" d="M1101.5,354.9c-0.3-0.1-0.6-0.2-0.8-0.3c-0.3-0.2-0.6-0.3-0.9-0.5
				c-0.6-0.4-1.3-0.8-1.8-1.3c-0.3-0.2-0.5-0.5-0.8-0.8c-0.5-0.5-1.1-1-1.6-1.6c-0.8-0.8-1.5-1.7-2.2-2.6c-1.4-1.8-2.6-3.7-3.6-5.8
				c-0.8-1.4-1.4-2.8-2-4.3c-0.5-1.5-0.9-3.1-1.3-4.6c-0.6-1.9-1-3.8-1.3-5.8c-0.4-2.8-0.6-5.5-0.7-8.3c-0.1-1.5-0.1-3.1-0.1-4.6
				c0.1-1.6,0.3-3.2,0.6-4.8c0.4-1.9,0.9-3.9,1.5-5.7c1.2-3.3,2.6-6.6,4.3-9.7c0.8-1.6,1.6-3.2,2.6-4.7c0.9-1.3,1.8-2.5,2.9-3.6
				c0.6-0.7,1.2-1.3,1.8-2c0.6-0.8,1.2-1.6,1.8-2.3c0.4-0.4,0.8-1,1.2-0.8c0.1,0,0.2,0.2,0.2,0.3c0,0.1-0.1,0.1-0.2,0.1c0,0,0,0,0,0
				c-0.3,0.2-0.5,0.4-0.7,0.7c-0.8,1.1-1.6,2.2-2.5,3.2c-1.6,1.7-3,3.4-4.3,5.3c-1.5,2.5-2.8,5.1-4,7.7c-0.8,1.6-1.5,3.3-2.2,5
				c-0.5,1.3-0.9,2.7-1.2,4c-0.8,3.1-1.2,6.3-1.2,9.5c0.1,1.6,0.1,3.1,0.2,4.7c0.1,1.6,0.3,3.1,0.4,4.7c0.1,1.1,0.3,2.1,0.5,3.2
				c0.3,1.4,0.7,2.7,1,4.1c0.4,1.6,0.8,3.1,1.3,4.6c1,2.5,2.2,4.9,3.6,7.1c0.6,1,1.3,1.9,2,2.8c0.7,1,1.5,1.9,2.4,2.8
				c0.9,0.9,1.8,1.7,2.7,2.5c0.7,0.5,1.5,0.9,2.3,1.3c0.1,0.1,0.4,0.1,0.3,0.4C1101.7,354.9,1101.6,354.9,1101.5,354.9z"/>
			<path id="Trazado_2145" class="st1" d="M1100.6,354.9c-5.6,0-10-3.6-14.3-6.7c-1.7-1.4-3.4-2.9-4.9-4.5c-2.3-2.5-4.1-5.4-5.5-8.5
				c-1.8-3-3.1-6.3-3.7-9.8c-2.4-8.8,0.6-17.9,5.3-25.5c1.4-2.4,3.3-4.3,4.9-6.5c3.9-4.6,8.4-8.9,13.9-11.5c0.8-0.5,4.1-2,4.5-0.9
				c0,0.1-0.1,0.2-0.3,0.1c-0.7,0-1.3,0.1-1.9,0.4c-2,0.9-4,1.9-5.8,3.1c-3.9,2.7-7.3,5.9-10.2,9.5c-5.8,6.7-10.3,15-10.7,24
				c-0.1,2.1,0.2,4.3,0.7,6.3c0.4,2.7,1.2,5.4,2.4,7.9c1.8,3.2,3.2,6.6,5.5,9.5c3.5,4.3,8.1,7.6,12.8,10.4c1.4,0.7,2.8,1.3,4.3,1.7
				c1,0.2,2,0.3,3,0.3C1100.9,354.3,1101.1,354.9,1100.6,354.9z"/>
			<path id="Trazado_2146" class="st1" d="M1102.6,354.9c0.2-0.2,0.5-0.5,0.7-0.7c0.3-0.2,0.6-0.5,0.8-0.8c0.7-0.8,1.4-1.7,2.2-2.4
				c1-1,1.9-2.1,2.7-3.2c0.8-1.2,1.6-2.4,2.4-3.6c0.7-1.2,1.4-2.5,1.9-3.8c0.7-1.5,1.3-3.1,1.8-4.7c0.3-0.8,0.6-1.6,0.8-2.5
				c0.7-2.9,1.2-5.9,1.5-8.8c0.2-2,0.3-4,0.2-5.9c-0.2-7.8-1.8-15.4-4.5-22.7c-0.6-1.3-1.3-2.6-2-3.8c-0.5-0.9-1.1-1.9-1.7-2.8
				c-1.1-1.6-2.4-3-3.7-4.5c-0.7-0.8-1.7-1.4-2.5-2.2c-0.4-0.4-0.9-0.7-1.4-1c-0.4-0.3-1.3-0.7-0.9-1.1c0.1,0,0.1,0,0.2,0
				c0.1,0,0.2,0,0.3,0c0,0,0.1,0,0.1,0c0.1,0,0.2,0,0.2,0.1c0.1,0.2-0.2,0.3-0.3,0.3c0.4,0.3,0.9,0.5,1.3,0.8c0.4,0.3,0.9,0.7,1.2,1
				c0.6,0.5,1.2,0.9,1.8,1.5c0.5,0.5,1,1.1,1.5,1.7c1,1.2,2,2.4,2.9,3.7c0.9,1.3,1.6,2.7,2.4,4.1c0.4,0.7,0.7,1.4,1,2.1
				c0.8,2.2,1.6,4.4,2.2,6.7c1,3.5,1.7,7,2.1,10.6c0.3,2.9,0.4,5.8,0.4,8.8c0,1.3-0.2,2.6-0.4,3.9c-0.2,1.6-0.4,3.3-0.7,4.9
				c-0.6,3-1.5,5.9-2.7,8.7c-0.4,0.8-0.7,1.7-1.1,2.5c-0.3,0.8-0.7,1.5-1.1,2.3c-0.5,0.8-1,1.5-1.5,2.3c-0.5,0.8-1,1.6-1.6,2.4
				c-0.8,1-1.6,2-2.5,2.9c-0.5,0.5-1,1-1.5,1.6c-0.5,0.6-1,1.1-1.5,1.6c-0.3,0.2-0.5,0.5-0.9,0.6
				C1102.6,355.4,1102.4,355.1,1102.6,354.9z"/>
			<path id="Trazado_2147" class="st1" d="M1102.6,355.9c0.1-0.1,0.2-0.1,0.3-0.2c0.4-0.1,0.7-0.3,1.1-0.4c0.8-0.3,1.4-0.6,2.1-1
				c0.8-0.4,1.6-0.6,2.3-1c1.3-0.7,2.5-1.6,3.6-2.6c0.9-0.7,1.8-1.3,2.7-2c0.6-0.5,1.2-1.1,1.9-1.6c0.8-0.7,1.6-1.4,2.3-2.1
				c0.9-1,1.8-1.9,2.6-2.9c1-1.4,1.9-2.9,2.7-4.4c0.7-1.3,1.2-2.7,1.7-4.2c0.3-0.7,0.5-1.5,0.8-2.2c0.5-1.9,0.8-3.8,1.1-5.7
				c0.1-1.2,0.2-2.3,0.2-3.5c0.2-3.7-0.1-7.4-0.9-11c-0.5-2.6-1.1-5.1-1.9-7.5c-1.5-4.2-4.1-7.8-6.7-11.4c-0.9-1-1.8-2-2.9-2.9
				c-1-0.9-1.9-2-2.9-2.8c-1.1-0.9-2.2-1.7-3.3-2.5c-0.8-0.6-1.7-1.1-2.6-1.6c-1.3-0.6-2.6-1-3.9-1.4c-0.4-0.1-0.7-0.2-1.1-0.2
				c-0.1,0-0.2,0-0.3,0c-0.1,0-0.2,0-0.2-0.1c-0.1-0.1-0.2-0.3,0-0.4c0.1,0,0.3,0,0.4,0c0.4,0.1,0.8,0.1,1.1,0.2
				c1,0.2,2,0.5,2.9,0.9c2.1,0.9,4.1,2.2,5.9,3.7c1.3,1,2.5,2.1,3.6,3.3c1.1,1.1,2.4,2.1,3.4,3.3c0.5,0.6,0.9,1.2,1.4,1.9
				c1.4,1.9,2.7,4,3.9,6.1c0.8,1.4,1.4,2.9,1.9,4.4c0.6,2,1.1,4,1.5,6c0.3,1.5,0.7,3.1,0.9,4.7c0.2,2,0.4,4,0.3,6
				c0,1.2,0,2.4-0.1,3.7c-0.2,1.6-0.4,3.2-0.7,4.8c-0.3,1.6-0.7,3.1-1.3,4.6c-0.4,1.1-0.8,2.3-1.3,3.4c-0.8,1.8-1.8,3.5-3,5.2
				c-1,1.2-2,2.4-3.1,3.6c-0.9,1-2,1.8-3,2.7c-1,0.9-2.1,1.7-3.2,2.5c-1.1,0.8-2.1,1.7-3.2,2.4c-0.9,0.5-1.8,1-2.8,1.4
				c-0.7,0.3-1.3,0.6-1.9,0.9l-0.2,0c-0.4,0-0.8,0.1-1.2,0.2h0c-0.2,0-0.4,0-0.7,0.1L1102.6,355.9L1102.6,355.9z"/>
			<path id="Trazado_2148" class="st1" d="M1077.7,289.4c-0.1,0-0.3,0-0.4-0.1c-0.1-0.1,0-0.3,0.1-0.4c0,0,0,0,0,0v0c0,0,0,0,0,0
				l0,0c0-0.1,0.1-0.1,0.2,0c0,0,0,0,0.1,0.1c1,0,2-0.1,2.9-0.2c0.6,0,1.2,0,1.8,0c1.7,0,3.4,0,5-0.1c1.6-0.1,3.3-0.1,4.9-0.1
				c3.7-0.1,7.4,0.1,11.2,0c1.7,0,3.3,0.1,5,0.1c2.3,0,4.5,0,6.8,0c2.4,0,4.7-0.1,7.1-0.2c1.1,0,2.2,0,3.4,0c0.5,0,1,0,1.6,0
				c0.1,0,0.2,0.1,0.2,0.2s-0.1,0.3-0.2,0.3c-0.3,0-0.5,0-0.8,0c-1.4,0-2.8,0-4.1,0c-1,0-2.1,0.1-3.1,0.1c-2.7,0.1-5.4,0.1-8.1,0.1
				c-1.1,0-2.1,0-3.2,0c-1.8,0-3.6-0.1-5.4-0.1c-2.2,0.1-4.3,0-6.5,0c-3.2,0-6.4,0.1-9.6,0.2c-1.1,0-2.1,0.1-3.2,0.1
				c-0.8,0-1.7,0-2.5,0C1079.8,289.3,1078.7,289.4,1077.7,289.4z"/>
			<path id="Trazado_2149" class="st1" d="M1069.8,306.1c-1.6,0-3.2-0.1-4.8-0.3c-0.1-0.1-0.1-0.2-0.1-0.3c0,0,0-0.1,0.1-0.1
				c0.4,0,0.9,0.1,1.3,0.1c4.5,0.4,8.9,0,13.4-0.2c7.6-0.2,15.2-1,22.8-1.6c10-0.8,20.1-1.1,30.1-2.1c1.1-0.1,2.2-0.4,3.3-0.5
				c0.3,0,0.3,0.5,0,0.5c-1,0-2,0.4-3,0.4c-8.3,0.8-16.5,1.2-24.8,1.7c-7.2,0.5-14.4,1.2-21.6,1.7
				C1081,305.7,1075.4,306.1,1069.8,306.1z"/>
			<path id="Trazado_2150" class="st1" d="M1065.9,321.6c-0.9,0-1.7,0-2.6-0.1c-0.3,0-0.6-0.1-0.9-0.1c-0.1,0-0.3,0-0.4-0.2
				c0-0.1,0.1-0.3,0.2-0.3c0,0,0,0,0,0c0,0,0.1,0,0.1,0c0.5,0.1,1,0.2,1.6,0.2c3.7,0.2,7.4,0,11.1-0.2c1.9-0.1,3.8-0.1,5.7-0.1
				c4.6-0.2,9.3-0.4,13.9-0.5c2.9-0.1,5.9-0.2,8.8-0.4c4.6-0.3,9.2-0.7,13.8-1.1c1.2-0.1,2.5-0.3,3.7-0.4c2.1-0.2,4.1-0.6,6.2-0.9
				c2.7-0.4,5.3-1.1,8-1.7c0.9-0.3,1.9-0.3,2.9-0.6c0.5-0.1,1-0.2,1.5-0.4c0.1,0,0.2-0.1,0.3,0c0.1,0.1,0.2,0.2,0.1,0.4
				c0,0,0,0.1-0.1,0.1c-0.1,0.1-0.3,0.1-0.4,0.2c-0.4,0.1-0.8,0.2-1.1,0.2c-0.6,0.2-1.2,0.3-1.8,0.4c-1.9,0.4-3.9,0.9-5.8,1.3
				c-5.3,1.1-10.6,1.8-16,2.2c-3.4,0.3-6.8,0.6-10.1,0.8c-4.1,0.2-8.2,0.4-12.3,0.5c-5,0.1-10,0.5-15.1,0.5
				C1073.5,321.4,1069.7,321.6,1065.9,321.6z"/>
			<path id="Trazado_2151" class="st1" d="M1100.6,339.6c-3.6,0-7.1-0.1-10.7-0.2c-2.8-0.1-5.7-0.3-8.5-0.5
				c-2.3-0.1-4.6,0.1-6.9-0.1c-1.2-0.1-2.4-0.2-3.6-0.3c-0.7-0.1-1.4-0.1-2.1-0.2c-0.2,0-0.4-0.1-0.6-0.2c-0.1-0.1-0.1-0.4,0.1-0.4
				c0.1,0,0.1,0,0.2,0c0.7,0.1,1.4,0.2,2.2,0.2c1.4,0.1,2.8,0.3,4.2,0.4c1.9,0.1,3.8,0,5.7,0.1c3,0.1,6,0.4,9,0.5
				c5.8,0.2,11.7,0.3,17.5,0.2c4.6-0.1,9.1-0.2,13.6-0.3c2.7,0,5.5-0.2,8.2-0.5c0.9-0.1,1.7-0.3,2.6-0.4c0.7-0.1,1.4-0.3,2.1-0.5
				c0.1,0,0.2,0,0.3-0.1c0.1,0,0.2,0.1,0.2,0.2c0,0.1,0,0.3-0.1,0.3c-0.1,0-0.1,0-0.2,0.1c-0.2,0-0.5,0.1-0.7,0.1
				c-0.5,0.1-1.1,0.2-1.6,0.3c-4.9,1-9.9,0.9-14.8,1C1111.4,339.4,1106,339.6,1100.6,339.6z"/>
			<path id="Trazado_2152" class="st1" d="M1083,350.5c-0.1-0.1-0.2-0.3-0.1-0.5c0,0,0,0,0,0c0.1-0.1,0.2-0.1,0.3-0.1
				c0.2,0,0.5,0,0.7,0c0.8,0,1.7-0.1,2.5-0.1c2.1,0,4.2-0.2,6.3-0.3c1.7-0.1,3.4,0,5.2-0.1c0.8,0,1.6-0.1,2.5-0.1
				c1.3-0.1,2.6-0.1,3.9-0.1c3-0.1,5.9-0.1,8.9-0.1c1.2,0,2.5-0.1,3.7-0.1c0.8,0,1.6,0,2.4,0c0.5,0,1,0,1.5-0.1
				c0.2,0,0.5-0.1,0.7-0.1c0.1,0,0.3-0.1,0.4,0c0.1,0.1,0.1,0.3,0,0.4c0,0,0,0,0,0c-0.1,0.1-0.2,0.1-0.3,0.1c-0.2,0-0.3,0-0.5,0.1
				c-0.4,0.1-0.7,0.1-1.1,0.1c-1.4,0.1-2.8,0-4.1,0c-1.9,0.1-3.8,0.1-5.7,0.1c-2,0-4,0-5.9,0.1c-1.7,0-3.5,0-5.2,0.2
				c-2,0.1-3.9,0-5.9,0.1c-1.7,0.1-3.4,0.3-5.1,0.3c-1.6,0-3.1,0.1-4.7,0.2c-0.1,0-0.2,0-0.2,0
				C1083.1,350.5,1083.1,350.6,1083,350.5z"/>
			<path id="Trazado_2153" class="st1" d="M1101.8,355.9c-0.4,0-0.8,0-1.2-0.1c-0.2,0-0.4,0-0.6,0s-0.4,0-0.6,0l0,0
				c-0.2,0-0.3,0-0.5,0l-0.3,0c0,0,0-0.1-0.1-0.1c0-0.2,0.2-0.3,0.4-0.3c0.3,0,0.6,0.1,0.8,0.1c0.5,0,1,0,1.4,0c1,0,1.9-0.3,2.9-0.3
				c0.8-0.1,1.6-0.2,2.4-0.5c0.2-0.1,0.4-0.1,0.6-0.2l0.4-0.1c0.1,0,0.2-0.1,0.3,0c0.7-0.1,1.3-0.2,2-0.4c0.3-0.1,0.6-0.1,0.9-0.2
				c0.3,0,0.3,0.4,0.1,0.6c-0.1,0.1-0.2,0.2-0.2,0.2c-0.4,0.1-0.7,0.2-1.1,0.3l-0.6,0.1c-0.2,0-0.4,0.1-0.5,0.1h0l-0.1,0l0,0l-0.1,0
				c-0.2,0-0.3,0-0.5,0c-0.2,0-0.4,0.1-0.6,0.1s-0.4,0.1-0.6,0.1s-0.4,0.1-0.6,0.1c-0.4,0-0.8,0.1-1.2,0.1s-0.8,0.1-1.2,0.2
				c-0.2,0-0.4,0.1-0.7,0.1l-0.2,0C1102.4,355.9,1102.1,355.9,1101.8,355.9z M1106,355.5c0.1,0,0.3,0,0.4,0c0,0,0,0,0,0L1106,355.5z
				"/>
			<path id="Trazado_2154" class="st1" d="M1099.4,355.8L1099.4,355.8z"/>
			<path id="Trazado_2155" class="st1" d="M1100.6,355.8c-0.2,0-0.4,0-0.6,0s-0.4,0-0.6,0h0h-0.1c-0.3,0-0.7,0-1,0
				c-0.1-0.1-0.2-0.2-0.1-0.4c0,0,0-0.1,0.1-0.1c0.2-0.1,0.4-0.1,0.6-0.1c0.1,0,0.2,0,0.2,0c0.2,0,0.5,0,0.7,0
				c0.5,0.1,0.9,0,1.4-0.1c-0.3-0.1-0.7-0.1-1-0.1c-0.1,0-0.3-0.1-0.3-0.2c0,0,0-0.1,0-0.1c0-0.1,0.1-0.2,0.2-0.2c0.4,0,0.7,0,1.1,0
				c0.4,0,0.8,0,1.1,0.1c0.1,0,0.2,0.1,0.1,0.2c0,0.3-0.3,0.2-0.4,0.2c0,0,0,0,0,0c0,0,0,0.1,0,0.1c1.8-0.1,3.5-0.3,5.2-0.6
				c1.4-0.2,2.7-0.5,4.1-0.9c0.8-0.2,1.6-0.4,2.3-0.7c0.4-0.2,0.9-0.4,1.3-0.6c0.4-0.2,0.9-0.4,1.4-0.6c0.5-0.2,1-0.5,1.5-0.7
				c0.5-0.2,0.9-0.5,1.4-0.8c0.1-0.1,0.3-0.2,0.5-0.2c0.2,0,0.3,0.4,0.1,0.5c0,0.1-0.1,0.1-0.2,0c0,0,0,0,0,0
				c-0.6,0.4-1.3,0.8-2,1.1c-0.4,0.2-0.8,0.4-1.2,0.6c-0.3,0.1-0.6,0.2-0.9,0.3c-0.3,0.2-0.7,0.3-1,0.5c-0.4,0.2-0.9,0.4-1.4,0.6
				c-0.9,0.3-1.9,0.6-2.8,0.8c-1.9,0.5-3.9,0.8-5.9,1c-1,0.1-2.1,0.2-3.1,0.2C1101,355.8,1100.8,355.8,1100.6,355.8z"/>
			<path id="Trazado_2156" class="st1" d="M1099.4,355.8L1099.4,355.8z"/>
			<path id="Trazado_2157" class="st2" d="M1165.2,348c-0.3-0.1-0.5-0.2-0.8-0.3c-0.2-0.1-0.4-0.1-0.6-0.2c-0.2-0.1-0.3-0.2-0.5-0.2
				c-0.2-0.1-0.4-0.2-0.6-0.2l0.1,0l-0.2-0.1l0.1,0c-0.2-0.1-0.4-0.2-0.6-0.2c-0.2-0.1-0.4-0.2-0.7-0.3c-0.4-0.1-0.8-0.3-1.1-0.4
				c-0.4-0.1-0.7-0.3-1.1-0.4c-0.2-0.1-0.4-0.1-0.6-0.2c-0.2-0.1-0.3-0.1-0.5-0.2s-0.3-0.2-0.5-0.2s-0.3-0.1-0.5-0.2
				c-0.2-0.1-0.4-0.2-0.6-0.3c-0.2-0.1-0.3-0.1-0.5-0.2c-0.3-0.1-0.5-0.3-0.8-0.4s-0.5-0.3-0.8-0.4c-0.2-0.1-0.5-0.3-0.7-0.4
				c-0.3-0.2-0.6-0.3-0.9-0.5l0,0c-0.1-0.1-0.3-0.1-0.4-0.2c-0.1,0-0.2-0.1-0.4-0.1c-0.1,0-0.1,0-0.2-0.1c0,0-0.1,0-0.1,0
				c0,0-0.1,0-0.1,0l0,0v0v0c0,0,0,0,0,0c0,0,0-0.1,0-0.1c0,0-0.1,0-0.1,0c0,0,0,0.1,0,0.1c-0.9-0.6-1.8-1.2-2.6-2
				c-0.6-0.6-1.1-1.3-1.4-2.1c0,0,0,0,0,0c0,0,0-0.1,0-0.2l0-0.1c0,0,0,0,0,0c0,0,0-0.1,0-0.1c0-0.1,0-0.1-0.1-0.2l0,0v0
				c0-0.1-0.1-0.2-0.1-0.4c0-0.1,0-0.2-0.1-0.3c0-0.2,0-0.4,0-0.6v0c0-0.1,0-0.3,0-0.4v0v0c0,0,0,0,0,0c0-0.2,0-0.4,0-0.5
				c0-0.1,0-0.3,0-0.4c0-0.1,0-0.2,0-0.4c0-0.1,0-0.2,0.1-0.3c0-0.2,0.1-0.5,0.1-0.7l0,0l0,0c0-0.2,0.1-0.3,0.1-0.5
				c0-0.1,0.1-0.3,0.1-0.4c0-0.1,0.1-0.1,0.1-0.2c0.1-0.2,0.3-0.4,0.4-0.6c0.1-0.2,0.2-0.3,0.3-0.5c0.1-0.1,0.2-0.3,0.3-0.4
				c0.1-0.1,0.2-0.3,0.4-0.4s0.3-0.3,0.4-0.4l0,0l0,0l0,0l0,0l0,0l0,0l0,0l0,0l0,0l0,0l0,0l0,0l0,0l0,0l0,0l0,0l0,0l0,0l0,0l0,0
				c0,0,0,0,0.1-0.1l0.2-0.2c0.1-0.1,0.3-0.2,0.4-0.3l0.1-0.1c0.1-0.1,0.2-0.1,0.3-0.2c0.2-0.1,0.4-0.2,0.7-0.3s0.4-0.2,0.6-0.3
				c0.2-0.1,0.5-0.2,0.7-0.2c0.1,0,0.2,0,0.3-0.1c0.1,0,0.3,0,0.4,0c0.2,0,0.3,0,0.5,0.1s0.3,0,0.5,0h0c0.1,0,0.2,0,0.3,0
				s0.2,0,0.3,0c0.1,0,0.2,0,0.2,0l0.2,0.1c0.2,0.1,0.3,0.2,0.5,0.4c0.2,0.1,0.4,0.2,0.6,0.3c0.1,0.1,0.2,0.1,0.3,0.2
				s0.2,0.2,0.3,0.2c0.2,0.1,0.5,0.3,0.8,0.4c0.1,0.1,0.2,0.1,0.3,0.2c0.1,0.1,0.3,0.2,0.4,0.3c0.1,0.1,0.3,0.1,0.4,0.2
				c0.2,0.2,0.4,0.5,0.6,0.7c0.4,0.5,0.8,1,1.1,1.6c0,0,0,0,0,0.1s0,0,0,0.1c-0.1,0.2-0.2,0.4-0.2,0.7s-0.2,0.4-0.3,0.6l0,0
				c-0.1,0.2-0.2,0.4-0.3,0.6c-0.1,0.2-0.3,0.5-0.4,0.7l0,0l0,0l0,0c-0.1,0.2-0.2,0.5-0.3,0.7s-0.2,0.5-0.3,0.7
				c-0.1,0.3-0.2,0.5-0.4,0.8s-0.2,0.5-0.4,0.8l0,0v0l0,0l0,0l0,0c-0.1,0.2-0.1,0.3-0.2,0.5c-0.1,0.2-0.2,0.4-0.3,0.7
				c-0.1,0.2-0.2,0.4-0.3,0.7v0v0l0,0c0,0,0,0.1,0,0.1c0,0.1,0,0.2,0.1,0.3c0.1,0.1,0.2,0.1,0.3,0.1l0,0c0,0,0,0,0,0.1
				c0,0.1,0,0.1,0.1,0.2c0,0,0,0,0,0c0,0.1,0,0.1,0,0.2c0,0.1,0.1,0.2,0.2,0.2c0,0,0.1,0,0.1,0c0,0,0.1,0,0.1-0.1
				c0.1-0.1,0.1-0.1,0.2-0.2c0.1-0.2,0.2-0.3,0.3-0.5c0,0,0,0,0,0.1v0c0,0.1,0,0.1-0.1,0.2s0,0.1-0.1,0.2c0,0,0,0.1,0,0.1
				c0,0.1,0,0.2,0.1,0.2c0,0,0,0,0,0c0.1,0.1,0.2,0,0.3,0c0,0,0.1-0.1,0.1-0.1l0.1-0.1c0.1-0.1,0.1-0.2,0.2-0.3l0,0c0,0,0,0,0,0.1
				l0,0.1c0,0.1-0.1,0.2-0.1,0.3c-0.1,0.2-0.1,0.4,0,0.5c0.1,0.1,0.1,0.1,0.2,0.1h0c0.1,0,0.2-0.1,0.2-0.1c0.1-0.1,0.1-0.2,0.2-0.3
				c0-0.1,0.1-0.2,0.1-0.2c0-0.1,0.1-0.3,0.1-0.4l0,0v0l0,0l0,0c0,0,0-0.1,0-0.1l0,0l0,0l0-0.1l0,0c0,0,0,0,0-0.1c0.1,0,0.1,0,0.2,0
				c0,0,0.1,0,0.1-0.1c0,0,0.1-0.1,0.1-0.1l0,0l0,0c0.1-0.2,0.2-0.3,0.3-0.5c0-0.1,0.1-0.2,0.1-0.3s0.1-0.2,0.1-0.3v0l0,0l0,0l0,0
				l0,0l0,0c0.1-0.2,0.1-0.4,0.2-0.6c0.1-0.2,0.1-0.4,0.2-0.5s0.2-0.4,0.2-0.6s0.1-0.4,0.2-0.6c0.1-0.4,0.3-0.8,0.4-1.2
				c0.3,0.7,0.6,1.5,0.8,2.2c0.2,0.6,0.4,1.2,0.6,1.9c0,0.1,0.1,0.3,0.1,0.4c0.1,0.3,0.1,0.5,0.2,0.8c0.1,0.2,0.1,0.5,0.2,0.7
				s0.1,0.5,0.2,0.8v0v0l0,0l0,0l0,0v0l0,0v0v0c0.1,0.5,0.2,0.9,0.3,1.4l0,0c0.1,0.4,0.1,0.8,0.2,1.2l0,0c0,0.1,0,0.2,0.1,0.4
				c0,0,0,0,0,0c0,0.2,0.1,0.5,0.2,0.7c0,0.2,0.1,0.4,0.1,0.6s0.1,0.4,0.2,0.6l0,0.1L1165.2,348z"/>
			<path id="Trazado_2158" class="st3" d="M1160.2,341.2"/>
			<path id="Trazado_2159" class="st3" d="M1161.2,339.8L1161.2,339.8L1161.2,339.8z"/>
			<path id="Trazado_2160" class="st3" d="M1158.4,339L1158.4,339z"/>
			<path id="Trazado_2161" class="st3" d="M1164.5,343.1L1164.5,343.1z"/>
			<path id="Trazado_2162" class="st3" d="M1160.2,341.2L1160.2,341.2z"/>
			<path id="Trazado_2163" class="st3" d="M1161.2,339.8L1161.2,339.8z"/>
			<path id="Trazado_2164" class="st3" d="M1158.4,339L1158.4,339z"/>
			<path id="Trazado_2165" class="st3" d="M1159.7,335.9L1159.7,335.9z"/>
			<path id="Trazado_2166" class="st3" d="M1164.5,343.1L1164.5,343.1z"/>
			<path id="Trazado_2167" class="st3" d="M1159.1,342L1159.1,342L1159.1,342L1159.1,342z"/>
			<path id="Trazado_2168" class="st3" d="M1158.8,341.9L1158.8,341.9z"/>
			<path id="Trazado_2169" class="st3" d="M1158.8,341.7L1158.8,341.7L1158.8,341.7z"/>
			<path id="Trazado_2170" class="st3" d="M1159.5,341.5L1159.5,341.5L1159.5,341.5z"/>
			<path id="Trazado_2171" class="st3" d="M1160.2,341.3L1160.2,341.3L1160.2,341.3z"/>
			<path id="Trazado_2172" class="st3" d="M1160.2,341.2L1160.2,341.2L1160.2,341.2L1160.2,341.2z"/>
			<path id="Trazado_2173" class="st3" d="M1160.6,340.8L1160.6,340.8L1160.6,340.8z"/>
			<path id="Trazado_2174" class="st3" d="M1159.4,340.7L1159.4,340.7z"/>
			<path id="Trazado_2175" class="st3" d="M1158.8,340.5L1158.8,340.5L1158.8,340.5L1158.8,340.5z"/>
			<path id="Trazado_2176" class="st3" d="M1159.9,339.8L1159.9,339.8L1159.9,339.8L1159.9,339.8z"/>
			<path id="Trazado_2177" class="st3" d="M1158.2,339.5L1158.2,339.5L1158.2,339.5z"/>
			<path id="Trazado_2178" class="st3" d="M1161.3,338.6L1161.3,338.6z"/>
			<path id="Trazado_2179" class="st3" d="M1159.7,335.9L1159.7,335.9L1159.7,335.9z"/>
			<path id="Trazado_2180" class="st3" d="M1161.9,335.3L1161.9,335.3L1161.9,335.3L1161.9,335.3z"/>
			<path id="Trazado_2181" class="st3" d="M1164.5,343.1L1164.5,343.1z"/>
			<path id="Trazado_2182" class="st3" d="M1151.7,342.2L1151.7,342.2z"/>
			<path id="Trazado_2183" class="st3" d="M1147.5,337.6L1147.5,337.6L1147.5,337.6z"/>
			<path id="Trazado_2184" class="st3" d="M1147.4,336.9L1147.4,336.9z"/>
			<path id="Trazado_2185" class="st3" d="M1149.8,330.2L1149.8,330.2L1149.8,330.2L1149.8,330.2z"/>
			<path id="Trazado_2186" class="st3" d="M1149.8,330.1L1149.8,330.1L1149.8,330.1L1149.8,330.1L1149.8,330.1z"/>
			<path id="Trazado_2187" class="st3" d="M1149.8,330.1L1149.8,330.1L1149.8,330.1z"/>
			<path id="Trazado_2188" class="st3" d="M1149.8,330.1L1149.8,330.1z"/>
			<path id="Trazado_2189" class="st3" d="M1161.9,335.3L1161.9,335.3L1161.9,335.3L1161.9,335.3z"/>
			<path id="Trazado_2190" class="st3" d="M1149.8,330.2L1149.8,330.2z"/>
			<path id="Trazado_2191" class="st3" d="M1147.5,333.6L1147.5,333.6L1147.5,333.6z"/>
			<path id="Trazado_2192" class="st3" d="M1149.8,330.1L1149.8,330.1L1149.8,330.1z"/>
			<path id="Trazado_2193" class="st3" d="M1149.8,330.1L1149.8,330.1z"/>
			<path id="Trazado_2194" class="st3" d="M1149.8,330.1L1149.8,330.1z"/>
			<path id="Trazado_2195" class="st3" d="M1149.8,330.1L1149.8,330.1L1149.8,330.1z"/>
			<path id="Trazado_2196" class="st3" d="M1159.7,331.7c-0.2,0-0.4-0.3-0.6-0.4c-0.3-0.3-0.5-0.5-0.8-0.8l-0.2-0.2
				c0.1,0.1,0.2,0.1,0.3,0.2c0.1,0.1,0.3,0.2,0.4,0.3c0.2,0.1,0.4,0.2,0.6,0.3l0.2,0.1c0.1,0.1,0.2,0.1,0.3,0.2
				c0,0.1,0.1,0.2,0.1,0.2C1159.9,331.7,1159.8,331.7,1159.7,331.7L1159.7,331.7z"/>
			<path id="Trazado_2197" class="st4" d="M1154.3,338.7c-1.4-0.2-2.6-1.2-3-2.5c-0.4-1.9,0.8-3.7,2.7-4c0.3-0.1,0.6-0.1,0.9-0.1
				c0.8,0.1,1.5,0.4,2.1,0.9c0.4,0.4,0.7,0.8,0.8,1.4c0.5,1.9-0.7,3.8-2.6,4.2C1154.9,338.6,1154.6,338.7,1154.3,338.7z
				 M1154.4,338.1c0.8,0,1.6-0.4,2.1-0.9c0.9-0.9,1-2.3,0.4-3.4c-0.3-0.3-0.6-0.6-1-0.7c-0.5-0.2-0.9-0.4-1.4-0.4
				c-0.8,0.1-1.6,0.5-2.2,1.1c-0.4,0.6-0.6,1.3-0.7,2C1151.9,337,1153.1,338,1154.4,338.1L1154.4,338.1z"/>
			<path id="Trazado_2198" class="st1" d="M1079.2,368.8c0.1,0.1,0,0.3-0.1,0.4c-0.2,0.1-0.4,0.3-0.6,0.4c-0.6,0.4-1.3,0.9-1.9,1.4
				c-0.6,0.4-1.2,0.9-1.8,1.4c-0.3,0.3-0.7,0.5-1.1,0.7c-0.2,0.1-0.4,0.3-0.6,0.2c-0.1,0-0.2,0-0.3,0c-1.4-0.1-2.7-0.4-4.1-0.5
				c-1-0.1-1.9-0.2-2.9-0.4c-0.2,0-0.5-0.1-0.7-0.2c-0.2,0-0.4-0.2-0.4-0.4c-0.1-0.4-0.1-0.8-0.1-1.2c-0.1-0.5-0.1-1.1-0.1-1.6
				c-0.1-1-0.2-2.1-0.2-3.1c0-0.3,0-0.7,0-1c0,0,0-0.1,0-0.1c-0.1,0.1-0.2,0.1-0.3,0c0,0,0,0,0,0c0,0-0.1-0.1-0.1-0.1
				c0-0.1,0-0.1,0-0.2l0,0c0.8-0.7,1.6-1.4,2.4-2c0.8-0.6,1.5-1.2,2.3-1.8c0.2-0.1,0.4-0.3,0.6-0.4c0.1-0.1,0.2-0.1,0.3-0.1
				c0.9-0.1,1.8-0.1,2.7-0.1l0.8,0c0,0,0,0,0,0c0,0,0,0-0.1,0.1c-0.2,0.1-0.4,0.3-0.6,0.4c-0.5,0.3-1,0.7-1.5,1
				c-0.5,0.4-1,0.8-1.6,1.2c-0.6,0.4-1.2,0.9-1.7,1.4c-0.1,0.1-0.2,0.2-0.3,0.3h-0.4c-0.2,0-0.5,0-0.7,0c-0.5,0-0.9,0-1.4-0.1
				c-0.1,0-0.2,0.1-0.2,0.2c0,0.1,0.1,0.2,0.2,0.2c0.4,0.1,0.8,0.1,1.3,0.1c0.4,0,0.8,0,1.1,0c0,0.6,0,1.2,0,1.8
				c0,0.4,0,0.9,0.1,1.3c0,0.2,0,0.5,0.2,0.6c0.1,0.1,0.2,0.1,0.3,0.1c0.3,0.1,0.6,0.1,0.9,0.1c0.2,0,0.4,0,0.6-0.1
				c0.1,0,0.2-0.1,0.3-0.2c0,0,0,0,0,0c0.1-0.9-0.1-1.7,0-2.6c0-0.3,0.1-0.7,0.1-1c0-0.1,0-0.1,0-0.2c0.8,0,1.6,0.1,2.4,0.1
				c0.3,0,0.6-0.1,1-0.1c0,0.1,0,0.2,0.1,0.2c0,0,0,0,0,0c0.1,0.9,0.2,1.8,0.2,2.6c0,0.4,0.1,0.7,0.1,1.1c0,0.3,0,0.6,0,0.9
				c0.1,1-0.1,2.1,0,3.1c0,0.3,0.4,0.3,0.4,0c0-0.5-0.1-1,0-1.4c0-1.1,0-2.2-0.1-3.4c0-0.5,0-1,0-1.5c-0.1-0.5-0.1-1.1-0.2-1.6
				c0,0,0,0,0.1,0c0.3-0.3,0.6-0.6,1-0.9c0.4-0.3,0.8-0.7,1.2-1c0.3-0.2,0.7-0.5,1-0.8c0.5-0.3,0.8-0.8,1.3-1
				c0.1-0.1,0.2-0.2,0.3-0.3c0.1-0.2-0.1-0.5-0.3-0.4c-0.3,0.3-0.7,0.5-0.9,0.7c-0.5,0.5-1.1,0.9-1.7,1.3c-0.3,0.3-0.6,0.6-1,0.9
				c-0.4,0.3-0.8,0.7-1.2,1c-0.1,0-0.3,0-0.4,0c-0.6,0.1-1.1,0.1-1.7,0.1c-0.3,0-0.6,0-1,0c0.2-0.2,0.4-0.3,0.6-0.5
				c0.7-0.6,1.5-1.1,2.2-1.7c0.2-0.2,0.5-0.4,0.7-0.6c0.3-0.2,0.5-0.4,0.7-0.6c0.2-0.1,0.4-0.3,0.6-0.5c0.1,0,0.1-0.1,0.2-0.2
				c0.1-0.1,0.1-0.2,0-0.3l1.2,0c0.6,0,1.2,0,1.7,0.1c0.1,0,0.3,0,0.4,0c0-0.1,0.1-0.2,0.2-0.2c0,0,0,0,0,0c0.3,0.1,0.2,0.6,0.2,0.8
				c0,0.5,0.1,1,0.1,1.4c0.1,0.7,0,1.5,0.1,2.2c0,1.2,0,2.5,0.1,3.7c0,0.2,0,0.4,0,0.5C1079.1,368.7,1079.2,368.8,1079.2,368.8z"/>
			<path id="Trazado_2199" class="st1" d="M1089.4,372.9C1089.4,372.9,1089.4,372.9,1089.4,372.9L1089.4,372.9
				c-0.4,0.1-0.8,0.1-1.2,0.1c-0.7,0.1-1.4,0.1-2.1,0.1c-0.7,0-1.5,0-2.2,0c-0.5,0-1,0-1.4-0.1c-0.1,0-0.1,0-0.2-0.1
				c0,0-0.1,0-0.1-0.1c-0.2-0.1-0.1-0.4-0.2-0.6c0-0.4,0-0.7,0-1.1c0-0.4,0-0.9-0.1-1.3c0-0.5,0-1,0-1.5c-0.1-1-0.1-2-0.2-3l0,0
				c-0.1-0.1-0.1-0.2-0.1-0.3c0,0,0,0,0,0l0,0c0.7-0.7,1.4-1.5,2.1-2.2c0.5-0.6,1.2-1.2,1.9-1.6c0.2-0.1,0.4-0.1,0.5-0.1
				c0.9-0.1,1.8-0.1,2.7-0.1c-0.1,0.1-0.1,0.2-0.2,0.2c-0.9,0.6-1.6,1.6-2.4,2.3c-0.6,0.5-1.2,1-1.8,1.5c-0.1,0.1-0.2,0.2-0.4,0.3
				c-0.4,0-0.8,0-1.2-0.1c-0.1,0-0.3,0-0.4,0s-0.3,0-0.3,0.2c0,0.1,0,0.2,0.2,0.3c0.5,0,1.1,0.1,1.6,0.1c0,0,0,0,0,0
				c0,0.3,0,0.6,0,0.9c0,0.4,0.1,0.9,0.1,1.3c0.1,0.2,0.3,0.2,0.5,0.2c0.2,0.1,0.5,0.1,0.7,0.1c0.2,0,0.3,0,0.5,0
				c0.1,0,0.2-0.1,0.2-0.2c0-0.1,0-0.2,0-0.3c0-0.5,0-1,0.1-1.5c0-0.2,0.1-0.3,0.1-0.5c0,0,0,0,0,0l0.7,0c0.6,0,1.3,0,1.9,0
				c0,0,0,0.1,0,0.1c0,0.6,0,1.1,0,1.7c0.1,1,0.2,2,0.3,2.9c0,0.4,0.1,0.8,0.1,1.3C1089.2,372.2,1089.3,372.6,1089.4,372.9z"/>
			<path id="Trazado_2200" class="st1" d="M1094.2,364.2c0.1,1.4,0.1,2.8,0,4.2c0,0.1,0,0.3-0.1,0.4c-0.1,0.2-0.3,0.3-0.4,0.5
				c-0.4,0.4-0.8,0.7-1.2,1.1c-0.5,0.6-1.2,1-1.7,1.6c-0.3,0.2-0.5,0.5-0.8,0.8c-0.1,0.1-0.1,0.1-0.2,0.2c0,0-0.1,0.1-0.1,0.1
				c0-0.2,0-0.4,0-0.6c0-0.6-0.1-1.3-0.1-2s-0.2-1.3-0.2-1.9c-0.1-0.7-0.1-1.5-0.1-2.2c0,0,0-0.1,0-0.1c0.5-0.4,1-0.9,1.5-1.4
				c0.3-0.2,0.6-0.5,0.9-0.8c0.3-0.3,0.5-0.6,0.8-0.9c0.2-0.3,0.6-0.5,0.8-0.8c0.1-0.1,0.3-0.2,0.1-0.4c-0.1-0.1-0.2-0.1-0.3,0
				c-0.3,0.3-0.7,0.6-1,1c-0.3,0.4-0.6,0.7-0.9,1c-0.6,0.4-1.1,0.8-1.5,1.3c-0.2,0.2-0.3,0.3-0.5,0.5l0,0c0,0,0,0,0,0
				c-0.3,0-0.6,0-0.9,0c-0.6,0-1.1,0-1.7,0c0.5-0.5,1-1,1.5-1.4c0.4-0.3,0.8-0.5,1.1-0.8c0.4-0.4,0.8-0.8,1.3-1.2
				c0.1-0.1,0.3-0.3,0.4-0.4s0.3-0.3,0.3-0.5c0-0.1,0-0.1-0.1-0.2c0.4,0,0.8,0,1.2,0c0.5,0,1,0.1,1.5,0c0.2,0,0.3,0.2,0.2,0.4
				c0,0.1,0.1,0.3,0.1,0.5C1094.1,362.7,1094.2,363.4,1094.2,364.2z"/>
			<path id="Trazado_2201" class="st5" d="M1077.8,360.4c0.2-0.2,0.4,0.2,0.3,0.4c-0.1,0.1-0.2,0.2-0.3,0.3c-0.5,0.3-0.9,0.7-1.3,1
				c-0.3,0.3-0.7,0.5-1,0.8c-0.4,0.3-0.8,0.7-1.2,1c-0.3,0.3-0.7,0.6-1,0.9c0,0,0,0-0.1,0c0.1,0.5,0.1,1.1,0.2,1.6
				c0.1,0.5,0,1,0,1.5c0.1,1.1,0.1,2.2,0.1,3.4c0,0.5,0,1,0,1.4c0,0.3-0.3,0.3-0.4,0c-0.1-1,0-2.1,0-3.1c0-0.3,0-0.6,0-0.9
				c0-0.4-0.1-0.7-0.1-1.1c0-0.9-0.1-1.8-0.2-2.6c0,0,0,0,0,0c-0.1,0-0.1-0.1-0.1-0.2c-0.3,0-0.6,0.1-1,0.1c-0.8,0-1.6,0-2.4-0.1
				c0,0.1,0,0.1,0,0.2c0,0.3,0,0.7-0.1,1c-0.1,0.9,0,1.7,0,2.6c0,0.1-0.1,0.2-0.2,0.2c0,0,0,0,0,0c-0.2,0-0.4,0.1-0.6,0.1
				c-0.3,0-0.6-0.1-0.9-0.1c-0.1,0-0.2-0.1-0.3-0.1c-0.2-0.2-0.1-0.4-0.2-0.6c0-0.4,0-0.9-0.1-1.3c0-0.6,0-1.2,0-1.8
				c-0.4,0-0.8,0.1-1.1,0c-0.4,0-0.9,0-1.3-0.1c-0.1,0-0.2-0.1-0.2-0.2c0-0.1,0.1-0.2,0.2-0.2c0.5,0.1,0.9,0.1,1.4,0.1
				c0.2,0,0.5,0,0.7,0h0.4c0.1-0.1,0.2-0.2,0.3-0.3c0.6-0.5,1.1-0.9,1.7-1.4c0.5-0.4,1-0.8,1.6-1.2c0.5-0.4,1-0.7,1.5-1
				c0.2-0.1,0.4-0.2,0.6-0.4c0,0,0,0,0.1-0.1c0,0,0,0,0,0c0,0,0,0,0,0c0.1-0.1,0.2-0.1,0.3-0.1c0.4,0,0.8,0,1.2,0c0.1,0,0.2,0,0.3,0
				c0.1,0.1,0.3,0.2,0.4,0.2c0.1,0.1,0,0.2,0,0.3c-0.1,0.1-0.1,0.1-0.2,0.2c-0.2,0.2-0.4,0.4-0.6,0.5c-0.2,0.2-0.5,0.4-0.7,0.6
				c-0.3,0.2-0.5,0.4-0.7,0.6c-0.7,0.6-1.5,1.1-2.2,1.7c-0.2,0.2-0.4,0.3-0.6,0.5c0.3,0,0.6,0,1,0c0.6,0,1.1,0,1.7-0.1
				c0.1,0,0.3,0,0.4,0c0.4-0.4,0.8-0.7,1.2-1c0.3-0.3,0.6-0.6,1-0.9c0.6-0.4,1.1-0.8,1.7-1.3
				C1077.2,360.9,1077.5,360.7,1077.8,360.4z"/>
			<path id="Trazado_2202" class="st5" d="M1093.4,361.8c0.1,0.2,0,0.3-0.1,0.4c-0.3,0.3-0.6,0.5-0.8,0.8c-0.3,0.3-0.5,0.6-0.8,0.9
				c-0.3,0.3-0.6,0.5-0.9,0.8c-0.5,0.4-1,1-1.5,1.4c0,0,0,0.1,0,0.1c0,0.7,0,1.5,0.1,2.2c0,0.6,0.2,1.3,0.2,1.9s0.1,1.3,0.1,2
				c0,0.2,0,0.4,0,0.6c0,0.1-0.1,0.1-0.1,0.1c-0.1,0-0.1,0-0.2-0.1c0,0,0,0,0,0c-0.1-0.3-0.1-0.6-0.1-1c0-0.4-0.1-0.8-0.1-1.3
				c-0.1-1-0.2-2-0.3-2.9c0-0.6,0-1.1,0-1.7c0,0,0-0.1,0-0.1c-0.6,0-1.3,0-1.9,0l-0.7,0c0,0,0,0,0,0c0,0.2-0.1,0.3-0.1,0.5
				c-0.1,0.5-0.1,1-0.1,1.5c0,0.1,0,0.2,0,0.3c0,0.1-0.1,0.2-0.2,0.2c-0.1,0-0.3,0-0.5,0c-0.2,0-0.5-0.1-0.7-0.1
				c-0.2-0.1-0.4-0.1-0.5-0.2c0-0.4-0.1-0.9-0.1-1.3c0-0.3,0-0.6,0-0.9c0,0,0,0,0,0c-0.5,0-1.1-0.1-1.6-0.1c-0.1,0-0.2-0.1-0.2-0.3
				c0-0.2,0.2-0.2,0.3-0.2s0.3,0,0.4,0c0.4,0,0.8,0,1.2,0.1c0.1-0.1,0.3-0.2,0.4-0.3c0.6-0.5,1.2-1,1.8-1.5c0.9-0.7,1.5-1.7,2.4-2.3
				c0.1-0.1,0.1-0.2,0.2-0.2c0.1-0.1,0.2-0.2,0.3-0.1c0.1,0,0.1,0,0.2,0c0.2,0,0.5,0,0.7,0c0.2,0,0.7-0.1,0.9,0.1
				c0,0,0.1,0.1,0.1,0.2c0,0.2-0.2,0.3-0.3,0.5s-0.3,0.3-0.4,0.4c-0.4,0.4-0.9,0.8-1.3,1.2c-0.3,0.3-0.7,0.6-1.1,0.8
				c-0.5,0.5-1,0.9-1.5,1.4c0.6,0,1.1,0,1.7,0c0.3,0,0.6,0,0.9,0c0,0,0,0,0,0l0,0c0.2-0.2,0.3-0.3,0.5-0.5c0.5-0.5,1-0.9,1.5-1.3
				c0.3-0.3,0.6-0.7,0.9-1c0.3-0.4,0.7-0.6,1-1C1093.1,361.7,1093.3,361.7,1093.4,361.8z"/>
			<path id="Trazado_2203" class="st2" d="M1025.1,345.2c-0.7-0.7-1.4-1.5-2-2.3c-0.4-0.7-0.8-1.5-1-2.2c-0.2-0.7-0.4-1.3-0.6-2
				c-0.2-1.1-0.3-2.3-0.2-3.4c0-2.7,0.8-5.4,2.4-7.6c-1-0.5-1.7-1.3-2.2-2.3c-0.9-2.2,1.4-5.1,2.8-6.7c-2.4-1.4-2.3-3.6-1.1-5.9
				c1.1-1.8,2.4-3.4,3.9-4.8c1.3-1.3,2.8-2.5,4.3-3.7c1.1-0.8,2.3-1.5,3.5-2.2c0.1-0.1,0.3-0.1,0.4-0.2c0.1-0.1,0.3-0.1,0.4,0
				c0.1,0.1,0.1,0.2,0,0.3c0,0.1-0.1,0.1-0.2,0.1c-0.8,0.4-1.7,0.8-2.4,1.3c-1.2,0.7-2.3,1.6-3.3,2.4c-0.8,0.6-1.6,1.3-2.3,2.1
				c-1.3,1.2-2.4,2.5-3.5,4c-0.8,1-1.2,2.3-1.3,3.5c0.1,0.8,0.4,1.5,1,2c0.2,0.2,0.5,0.3,0.7,0.5c0.2,0.1,0.4,0.3,0.3,0.5
				c-0.7,0.7-1.3,1.4-1.8,2.2c-0.7,0.9-1.2,2-1.3,3.2c0,0.8,0.4,1.6,1,2.2c0.4,0.3,0.8,0.6,1.2,0.9c0.5,0.3,0.3,0.6,0,0.9
				c-0.5,0.7-0.9,1.5-1.2,2.4c-0.4,1.1-0.7,2.3-0.9,3.5c-0.1,0.9-0.1,1.8-0.1,2.7c0,0.6,0.1,1.3,0.2,1.9c0.2,0.9,0.5,1.7,0.8,2.6
				c0.5,1.3,1.3,2.4,2.3,3.3c0.2,0.1,0.3,0.3,0.5,0.4c0.1,0.1,0.1,0.3,0,0.4C1025.3,345.2,1025.2,345.3,1025.1,345.2
				C1025.1,345.2,1025.1,345.2,1025.1,345.2z"/>
			<path id="Trazado_2204" class="st2" d="M1029,332.1c-0.2-0.4-0.4-1-0.1-1.4c0.1-0.1,0.2-0.2,0.4-0.2c0.6-0.3,1.2-0.5,1.7-0.8
				c0.5-0.2,0.9-0.5,1.3-0.9c0.6-0.5,0.6-1.5,0.1-2c-0.1-0.1-0.1-0.1-0.2-0.2c-0.6-0.6-1.5-0.8-2.3-0.6c-0.7,0.1-1.3,0.4-2,0.5
				c-1.2,0.3-2.3-0.4-2.7-1.5c-0.1-1.5,0.6-3,1.7-3.9c0.4-0.3,0.9-0.5,1.4-0.8c0.5-0.2,1-0.5,1.5-0.9c1-0.8,1.3-2.3,0.7-3.4
				c-0.5-1-1.1-1.1-2.1-1.2c-0.5,0-0.9-0.2-1.2-0.5c-0.5-0.6-0.7-1.5-0.4-2.3c0.3-1.1,0.8-2.2,1.6-3.1c1.1-1.6,2.4-3.1,3.8-4.4
				c0.8-0.7,1.6-1.4,2.5-2.1c0.2-0.2,0.5-0.4,0.8-0.6c0.1-0.1,0.2-0.2,0.4-0.1c0.3,0.3-0.2,0.5-0.4,0.6s-0.4,0.3-0.6,0.5
				c-0.5,0.4-1,0.8-1.4,1.2c-0.9,0.7-1.8,1.5-2.6,2.4c-0.7,0.7-1.3,1.5-1.8,2.3c-0.5,0.7-1,1.4-1.4,2.2c-0.4,0.9-1,2.4,0,3.1
				c0.3,0.2,0.7,0.2,1.1,0.3c0.6,0,1.1,0.2,1.6,0.5c0.9,0.8,1.3,2,1,3.2c-0.4,2-2.6,2.4-4,3.4c-0.4,0.3-0.7,0.7-1,1.2
				c-0.6,0.9-1,2.6,0.2,3.2c0.6,0.2,1.2,0.3,1.8,0.1c0.4-0.1,0.8-0.2,1.1-0.3c0.1-0.1,0.1-0.1,0.2-0.1c0.5-0.1,1.1-0.1,1.6,0
				c0.4,0.1,0.7,0.3,1,0.5c1,0.6,1.3,1.8,0.7,2.8c-0.1,0.1-0.2,0.3-0.3,0.4c-0.5,0.4-1,0.8-1.6,1c-0.4,0.2-0.9,0.4-1.3,0.6
				c-0.2,0.1-0.3,0.2-0.5,0.3c-0.1,0.2,0,0.5,0.1,0.7c0.1,0.1,0.2,0.3,0,0.5C1029.2,332.2,1029.1,332.2,1029,332.1
				C1029,332.1,1029,332.1,1029,332.1z"/>
			<path id="Trazado_2205" class="st2" d="M1028.5,317.4c-0.4-0.1-0.6-0.6-0.5-1c0-0.1,0.1-0.3,0.2-0.4c0.2-0.3,0.7-0.3,0.8,0.2
				C1029.4,316.6,1029.1,317.6,1028.5,317.4z M1028.6,317.1c0.2,0,0.2-0.2,0.2-0.4c0,0,0-0.1-0.1-0.1c0-0.1,0-0.2-0.1-0.2
				c-0.2,0.1-0.4,0.4-0.3,0.6C1028.4,317,1028.5,317,1028.6,317.1L1028.6,317.1z"/>
			<path id="Trazado_2206" class="st2" d="M1023.5,333.1c-0.4-0.3-0.3-0.9-0.2-1.4c0.1-0.4,0.2-0.8,0.5-1.2c0.1-0.1,0.3-0.3,0.4-0.1
				c0-0.1,0.1-0.1,0.2-0.1c0,0,0.1,0,0.1,0.1c0.1,0.1,0.2,0.3,0.2,0.5C1024.8,331.5,1024.3,333.7,1023.5,333.1z M1023.7,332.8
				L1023.7,332.8L1023.7,332.8c0.4-0.1,0.5-1,0.6-1.4c0.1-0.2,0-0.4,0-0.7c0,0-0.1-0.1-0.1-0.1c-0.2,0.2-0.3,0.4-0.4,0.7
				c-0.1,0.3-0.2,0.6-0.2,1C1023.6,332.5,1023.6,332.7,1023.7,332.8C1023.7,332.8,1023.7,332.8,1023.7,332.8L1023.7,332.8z"/>
			<path id="Trazado_2207" class="st2" d="M1030.2,328.6c-0.3-0.1-0.5-0.5-0.4-0.8c0.1-0.3,0.5-0.5,0.8-0.4c0.1,0,0.3,0,0.3,0.2
				c0.1-0.1,0.3,0,0.3,0.1c0,0.2,0,0.3,0,0.5C1031.1,328.5,1030.7,328.7,1030.2,328.6C1030.3,328.6,1030.3,328.6,1030.2,328.6z
				 M1030.5,328.2c0.2,0,0.5-0.2,0.4-0.5c-0.2,0.1-0.3,0-0.5,0c-0.1,0-0.2,0.1-0.2,0.2C1030.2,328.1,1030.4,328.2,1030.5,328.2z"/>
			<path id="Trazado_2208" class="st2" d="M1110.9,304.6c0.4,0.3,0,0.7-0.2,1c-0.1,0.2-0.3,0.4-0.4,0.5c-1.3,1.5-2.6,3-4,4.5
				c-1.2,1.2-2.5,2.4-3.7,3.7c-0.8,0.8-1.6,1.7-2.5,2.4c-0.7,0.6-1.4,1.2-2.1,1.9c0,0.1-0.1,0.2-0.2,0.2c-0.1,0-0.1,0-0.2,0
				c-0.3-0.1-0.4-0.4-0.5-0.6c-0.4-0.9-0.6-1.8-0.7-2.7c-0.1-0.7-0.2-1.5-0.3-2.2c-2-0.2-4.1,0-6.1-0.1c-4-0.2-8.1-0.3-12.1-0.5
				c-2.9-0.2-5.8-0.3-8.7-0.5c-2.3-0.1-4.7-0.4-7-0.6c-1.8-0.1-3.5-0.5-5.1-1.1c-0.3-0.1-0.3-0.4-0.3-0.7s0-0.5-0.1-0.8
				c-0.1-1.1-0.2-2.2-0.2-3.2c-0.1-1.6,0-3.1,0.1-4.7c0-0.3,0.1-0.7,0.1-1c0-0.3,0.1-0.6,0.3-0.8c0-0.1,0.1-0.2,0.2-0.2
				c1.1-0.6,2.3-1.1,3.5-1.4c0.7-0.2,1.3-0.5,2-0.8c0.8-0.2,1.6-0.5,2.4-0.8c0.4-0.1,0.9-0.2,1.4-0.4c0.7-0.2,1.3-0.5,1.9-0.6
				c0.1,0,0.2,0,0.2,0l0.2-0.1c0.1,0,0.2-0.1,0.3-0.1c0.1-0.1,0.2,0,0.3,0c0.1,0.1,0.1,0.2,0,0.3c0,0-0.1,0.1-0.1,0.1
				c0,0.1-0.1,0.2-0.2,0.2c-0.2,0-0.3,0-0.5,0.1c-0.1,0.1-0.3,0.1-0.4,0.2c-1,0.3-2,0.6-3,0.9c-1.3,0.4-2.5,0.9-3.8,1.3
				c-1.3,0.4-2.5,0.9-3.6,1.5c0.1,0.1,0.2,0.2,0.3,0.3c0.3,0.2,0.7,0.3,1,0.5c0.3,0.1,0.7,0.2,1,0.3c1.5,0.3,3,0.6,4.5,0.8
				c2.3,0.3,4.7,0.4,7,0.6c2.4,0.2,4.8,0.4,7.1,0.6c2.3,0.2,4.7,0.3,7,0.5s4.7,0.4,7,0.6c1.2,0.1,2.3,0.2,3.5,0.3
				c0.1-0.5,0.1-1.1,0.2-1.6c0.1-1.1,0.4-2.2,0.5-3.3c0-0.3,0-0.5,0.1-0.8c0.1-0.3,0-0.8,0.3-0.9c0.1,0,0.2,0.1,0.3,0.2
				s0.2,0.2,0.3,0.2c1.1,0.8,2.3,1.6,3.5,2.2c2.4,1.5,5,2.9,7.6,4C1109.6,304.1,1110.2,304.3,1110.9,304.6z"/>
			<path id="Trazado_2209" class="st2" d="M1099.6,339.6c-0.3-0.2-0.6-0.3-0.9-0.4c-0.8-0.4-1.6-0.9-2.4-1.4c-0.5-0.3-1.1-0.7-1.6-1
				c-0.8-0.5-1.5-1.1-2.1-1.8c-0.5-0.4-1-0.8-1.4-1.3c-1.1-1.1-2.1-2.3-3-3.7c-0.3-0.5-0.7-1.1-0.9-1.6c-0.2-0.4-0.2-0.5,0.1-0.8
				c0.4-0.4,0.8-0.8,1.2-1.1c1.6-1.1,3.3-2.2,5.1-3.1c1.7-0.9,3.4-1.8,5.1-2.7c0.8-0.4,1.6-0.8,2.4-1.1c0.1-0.1,0.3,0,0.3,0.1
				c0,0,0,0,0,0c0.1,0.4,0.1,0.8,0,1.1c0,0.8-0.1,1.7,0,2.5c3,0,6-0.2,9-0.3c6.6-0.4,13.2-1.3,19.7-2.2l0.1,0.3
				c0.1,0.3,0.2,0.6,0.3,0.9c0.2,0.6,0.3,1.2,0.5,1.8s0.3,1.2,0.5,1.8c0.1,0.3,0.2,0.6,0.2,0.8l0.1,0.3c0.1,0.5,0.2,0.9,0.3,1.4
				c0.1,0.4,0.2,0.8,0.3,1.2l0,0.2c0,0.1,0,0.2,0,0.3c0,0.2,0.1,0.4,0.1,0.6c0,0.1,0.1,0.3,0.1,0.4c0.1,0.2,0.1,0.5,0.2,0.7
				c0,0.1,0,0.1,0.1,0.2c0.1,0.3,0.2,0.6,0.2,0.9v0c-1.5,0.2-3.1,0.4-4.6,0.7c-2.8,0.3-5.7,0.6-8.5,0.7c-3.8,0.1-7.6,0.4-11.4,0.3
				c-2.6,0-5.3-0.2-7.9-0.4l-0.2,0c0,0.3,0,0.5,0,0.8c-0.1,0.6-0.2,1.2-0.3,1.9c-0.1,0.7-0.2,1.4-0.2,2.1c-0.1,0.3,0,1-0.3,1
				C1099.6,339.7,1099.6,339.6,1099.6,339.6z"/>
			<path id="Trazado_2210" class="st3" d="M1139.8,330.9C1139.8,330.9,1139.9,330.9,1139.8,330.9L1139.8,330.9l-0.1,0.1
				L1139.8,330.9z"/>
			<path id="Trazado_2211" class="st2" d="M1135.9,330.2c-0.1-0.3-0.2-0.6-0.4-0.8s-0.2-0.6-0.3-0.8c-0.2-0.6-0.4-1.2-0.7-1.8
				c-0.1-0.3-0.2-0.6-0.3-0.8s-0.2-0.6-0.3-0.8c-0.2-0.5-0.4-1-0.6-1.5c-0.1-0.5-0.2-0.9-0.3-1.4l0,0c-0.1-0.5-0.2-0.9-0.4-1.4
				l-0.1-0.2c2.7-0.5,9.4-1.8,10.1-3.1c-0.1-0.1-0.1-0.3,0-0.4c0,0,0,0,0,0c0,0,0-0.1-0.1-0.1c-0.5-0.7-1.2-1.2-1.9-1.7
				c-0.1-0.1-0.1-0.3,0-0.4c0,0,0,0,0,0c0.3-0.1,0.5,0.2,0.7,0.4c0.6,0.6,1.6,1.2,1.7,2v0c0.1,0.2,0.1,0.4,0.2,0.6
				c0.1,1.1,0,2.2-0.1,3.3c-0.1,0.9-0.1,1.8-0.2,2.7l0,0c0,0,0,0-0.1,0.1c-0.3,0.3-0.6,0.5-0.9,0.8l0,0l0,0l0,0l0,0l-0.1,0.1
				l-0.2,0.2c-0.1,0.1-0.1,0.1-0.2,0.2c-0.1,0.1-0.2,0.2-0.3,0.2l-0.3,0.3l-0.2,0.1c-0.1,0.1-0.2,0.1-0.2,0.2c0,0,0,0,0,0
				c-0.2,0.1-0.3,0.3-0.5,0.4c-0.2,0.2-0.4,0.4-0.6,0.6c-0.2,0.2-0.3,0.3-0.5,0.5s-0.4,0.3-0.6,0.5l0,0l0,0l0,0l0,0l0,0l0,0
				c-0.3,0.3-0.7,0.6-1,0.9c-0.4,0.4-0.8,0.7-1.2,1.1l-0.1,0.1C1135.9,330.3,1135.9,330.2,1135.9,330.2z"/>
			<path id="Trazado_2212" class="st3" d="M1138.2,328.3L1138.2,328.3L1138.2,328.3z"/>
			<path id="Trazado_2213" class="st3" d="M1138.2,328.3"/>
			<path id="Trazado_2214" class="st3" d="M1138.2,328.3L1138.2,328.3z"/>
			<path id="Trazado_2215" class="st3" d="M1141,328"/>
			<path id="Trazado_2216" class="st3" d="M1133.5,325.4L1133.5,325.4L1133.5,325.4L1133.5,325.4z"/>
			<path id="Trazado_2217" class="st2" d="M1112.4,315.2c-0.1,0-0.2-0.1-0.2-0.2c-0.2-0.2-0.3-0.4-0.5-0.6c-0.4-0.4-0.7-0.8-1-1.3
				c-0.3-0.5-0.6-1-0.8-1.5c-0.3-0.7-0.4-1.4-0.3-2.1c0-0.4,0.2-0.9,0.4-1.2c0.1-0.1,0.1-0.2,0.2-0.4c0.4-0.4,0.9-0.7,1.4-0.8
				c0.8-0.1,1.5,0.3,1.9,1c0.4,0.8,0.5,1.6,0.4,2.4c-0.1,0.5-0.1,1.1-0.3,1.6c-0.2,0.6-0.3,1.3-0.5,1.9c-0.1,0.2-0.2,0.5-0.3,0.7
				c0,0.1-0.1,0.1-0.1,0.1C1112.7,315.1,1112.6,315.2,1112.4,315.2C1112.5,315.3,1112.4,315.3,1112.4,315.2
				C1112.4,315.3,1112.4,315.2,1112.4,315.2z M1111.4,308.5c-0.2,0-0.4,0.1-0.5,0.2c-0.5,0.4-0.5,1.1-0.2,1.5
				c0.2,0.2,0.4,0.3,0.6,0.4c0.1,0,0.2,0.1,0.4,0.1c0.1,0,0.2,0,0.2,0c0.1,0,0.3-0.1,0.4-0.2c0.2-0.2,0.3-0.4,0.4-0.7
				c0.1-0.3,0-0.7-0.3-0.9c-0.2-0.1-0.4-0.2-0.6-0.3c-0.1,0-0.2-0.1-0.3-0.1C1111.5,308.5,1111.4,308.5,1111.4,308.5L1111.4,308.5z"
				/>
			<path id="Trazado_2218" class="st2" d="M1081.3,332.5c0,0-0.1-0.1-0.1-0.1c-0.6,0-1.8-2-2.4-2.5c-1.6-1.7-1.7-5,0.5-6.1
				c1.2-0.5,2.5,0,3,1.2c0.1,0.2,0.2,0.4,0.2,0.7c0.3,2,0.1,4-0.7,5.8c-0.1,0.3-0.1,1-0.4,1C1081.3,332.6,1081.3,332.6,1081.3,332.5
				z M1079.8,325.2c-0.3,0.1-0.6,0.3-0.7,0.5c-0.1,0.1-0.1,0.3-0.2,0.4c0,0.2,0,0.3,0.1,0.5c0.1,0.2,0.2,0.4,0.4,0.5
				c0.2,0.1,0.4,0.2,0.6,0.3c0.1,0,0.1,0,0.2,0c0.1,0,0.3,0,0.4-0.1c0.2-0.1,0.4-0.3,0.6-0.6c0.1-0.2,0.2-0.5,0.1-0.8
				c-0.1-0.3-0.3-0.5-0.5-0.6c-0.2-0.1-0.4-0.2-0.6-0.2C1080,325.1,1079.9,325.1,1079.8,325.2L1079.8,325.2z"/>
			<path id="Trazado_2219" class="st2" d="M1079.3,298.3c-0.2-0.1-0.3-0.3-0.4-0.4c-0.3-0.4-0.6-0.8-0.9-1.3c-0.7-1-1.2-2.1-1.3-3.2
				c-0.1-0.9,0.2-1.8,0.8-2.5c0.6-0.7,1.8-1.3,2.5-0.5c0.5,0.4,0.8,1.1,0.8,1.8c0.2,1.5,0.1,3-0.5,4.5c-0.2,0.4-0.3,0.9-0.5,1.3
				c0,0.1-0.1,0.3-0.2,0.3c0,0.1-0.1,0.1-0.2,0.1C1079.4,298.4,1079.4,298.4,1079.3,298.3z M1078.4,291.4c-0.1,0.1-0.3,0.2-0.4,0.4
				c-0.1,0.2-0.2,0.3-0.2,0.5c0,0.1,0,0.3,0.1,0.4c0.1,0.3,0.4,0.6,0.7,0.7c0.1,0,0.1,0,0.2,0.1c0.1,0,0.2,0,0.2,0.1h0.1
				c0.1,0,0.2,0,0.3-0.1c0.3-0.2,0.4-0.4,0.4-0.8c0-0.1,0-0.2,0-0.3c0,0,0,0,0,0c0-0.1-0.1-0.3-0.1-0.4c0-0.1-0.1-0.1-0.1-0.2
				c-0.1-0.1-0.2-0.3-0.3-0.3c-0.1-0.1-0.3-0.1-0.4-0.1h0C1078.7,291.3,1078.5,291.3,1078.4,291.4L1078.4,291.4z"/>
			<path id="Trazado_2220" class="st3" d="M1079.2,293L1079.2,293z"/>
			<path id="Trazado_2221" class="st3" d="M1078.9,292.4L1078.9,292.4L1078.9,292.4z"/>
			<path id="Trazado_2222" class="st2" d="M1118.6,298.1c-0.1,0-0.2-0.2-0.3-0.3c-0.2-0.2-0.3-0.4-0.5-0.6c-0.3-0.4-0.5-0.9-0.6-1.4
				c-0.2-0.5-0.3-1-0.3-1.5c-0.2-1,0-2,0.4-3c0.4-0.5,0.9-0.8,1.5-0.9c0.5-0.1,1,0,1.4,0.3c0.4,0.4,0.6,0.9,0.6,1.4
				c0.1,0.5,0.1,1,0,1.5c-0.1,0.9-0.4,1.7-0.8,2.4c-0.1,0.3-0.3,0.7-0.5,1c-0.2,0.3-0.4,0.6-0.6,0.9c0,0.1-0.1,0.1-0.2,0.1
				C1118.7,298.1,1118.6,298.1,1118.6,298.1C1118.6,298.1,1118.6,298.1,1118.6,298.1z M1118.7,291.5c-0.1,0-0.2,0-0.3,0.1
				c-0.1,0-0.2,0.1-0.2,0.1c-0.1,0.1-0.2,0.2-0.2,0.3c0,0,0,0-0.1,0.1c-0.1,0.1-0.1,0.2-0.2,0.2c0,0.1-0.1,0.1-0.1,0.2
				c0,0.1,0,0.1,0,0.2c0,0.2,0.1,0.3,0.2,0.4c0.1,0.1,0.2,0.2,0.3,0.3c0.1,0.1,0.3,0.2,0.4,0.2c0.1,0,0.1,0,0.2,0.1c0,0,0.1,0,0.1,0
				c0,0,0.1,0,0.1,0c0.1,0,0.2,0,0.2-0.1c0.1,0,0.1-0.1,0.2-0.1c0.1-0.1,0.2-0.2,0.2-0.2c0.1-0.2,0.2-0.3,0.2-0.5c0-0.1,0-0.2,0-0.2
				c0-0.1,0-0.2,0-0.2c0-0.2-0.1-0.3-0.3-0.4c-0.1-0.1-0.2-0.2-0.3-0.2C1119,291.6,1118.9,291.5,1118.7,291.5
				C1118.7,291.5,1118.7,291.5,1118.7,291.5L1118.7,291.5z"/>
			<path id="Trazado_2223" class="st3" d="M1118.8,292.7L1118.8,292.7L1118.8,292.7z"/>
			<path id="Trazado_2224" class="st3" d="M1118.8,292.7L1118.8,292.7L1118.8,292.7z"/>
			<path id="Trazado_2225" class="st3" d="M1118.9,292.6L1118.9,292.6L1118.9,292.6z"/>
			<path id="Trazado_2226" class="st3" d="M1118.7,292.6L1118.7,292.6L1118.7,292.6z"/>
			<path id="Trazado_2227" class="st2" d="M1132.4,293.9c0,0-0.1-0.1-0.1-0.1c-0.9-1.1-1.4-2.4-1.5-3.8c-0.1-1.5,1.1-3.4,2.8-2.9
				c1.7,0.6,1.7,2.3,1.2,3.8c-0.4,0.8-0.8,1.5-1.4,2.1c-0.2,0.2-0.3,0.5-0.5,0.7c-0.1,0.1-0.2,0.3-0.3,0.3
				C1132.5,294,1132.4,293.9,1132.4,293.9z M1132.9,288.2L1132.9,288.2c-0.1,0-0.1,0-0.2,0c-0.3,0.1-0.6,0.3-0.7,0.6
				c-0.1,0.3-0.1,0.7,0.1,0.9c0.2,0.2,0.5,0.4,0.8,0.4h0c0.2,0,0.3-0.1,0.5-0.2c0.1-0.1,0.2-0.2,0.2-0.3c0,0,0,0,0,0
				c0.2-0.2,0.3-0.6,0.2-0.9c0-0.1-0.1-0.2-0.2-0.3c0,0,0,0,0-0.1c-0.1-0.1-0.2-0.2-0.3-0.2c-0.1,0-0.2,0-0.2,0
				C1133,288.2,1133,288.2,1132.9,288.2L1132.9,288.2z"/>
			<path id="Trazado_2228" class="st3" d="M1133,289L1133,289z"/>
			<path id="Trazado_2229" class="st3" d="M1133,289L1133,289z"/>
			<path id="Trazado_2230" class="st3" d="M1133,289"/>
			<path id="Trazado_2231" class="st3" d="M1133,289L1133,289z"/>
			<path id="Trazado_2232" class="st3" d="M1133,289"/>
			<path id="Trazado_2233" class="st2" d="M1056.9,347.9c-0.2,0-0.3-0.1-0.3-0.3c0-0.1,0-0.2,0.1-0.2c0.1-0.1,0.3-0.1,0.4-0.1
				c0.1,0,0.2,0,0.4,0c0.1,0.1,0.2,0.3,0.1,0.4c0,0-0.1,0.1-0.1,0.1C1057.2,347.9,1057,347.9,1056.9,347.9z"/>
			<path id="Trazado_2234" class="st2" d="M1056.8,348.9c-0.2,0-0.3-0.2-0.2-0.4c0-0.1,0.1-0.1,0.1-0.2l0,0c0.1,0,0.3-0.1,0.5,0
				c0.1,0,0.3,0,0.4,0.1c0.1,0.1,0.1,0.3,0,0.4c-0.1,0.1-0.3,0.1-0.5,0.1C1057,348.9,1056.9,348.9,1056.8,348.9z"/>
			<path id="Trazado_2235" class="st2" d="M1061.7,347c-0.2,0-0.4,0-0.5-0.2c0-0.1,0-0.2,0.1-0.3c0.2-0.1,0.3,0,0.5,0
				c0.1,0,0.2,0,0.3,0c0.1,0,0.2,0.2,0.2,0.3c0,0,0,0.1-0.1,0.1C1062,347,1061.9,347,1061.7,347z"/>
			<path id="Trazado_2236" class="st2" d="M1061.6,348.1c-0.1,0-0.2-0.2-0.2-0.3c0,0,0-0.1,0-0.1c0.1-0.1,0.2-0.2,0.4-0.2
				c0.1,0,0.2,0,0.3,0c0.1,0,0.2,0.2,0.2,0.3c0,0.1-0.1,0.1-0.1,0.1C1062,348,1061.8,348.1,1061.6,348.1z"/>
			<path id="Trazado_2237" class="st2" d="M1066.1,346.5c-0.2,0-0.3-0.1-0.3-0.3c0,0,0-0.1,0-0.1c0.1-0.3,0.6-0.2,0.8-0.3
				c0.2,0,0.3,0.3,0.1,0.4C1066.5,346.5,1066.3,346.6,1066.1,346.5z"/>
			<path id="Trazado_2238" class="st2" d="M1066.5,347.5c-0.1,0-0.2,0-0.3-0.1c-0.1-0.1-0.1-0.2,0-0.3c0.1-0.1,0.2-0.1,0.3-0.1
				c0.2,0,0.6-0.1,0.6,0.2C1067.1,347.4,1066.8,347.5,1066.5,347.5z"/>
			<path id="Trazado_2239" class="st2" d="M1124.3,364.9c0,0.1,0,0.3,0,0.4c0,0.1-0.1,0.2-0.2,0.2c-1.5,0.3-3,0.5-4.5,0.7
				c-2.7,0.4-5.4,0.6-8.1,0.8c-2.6,0.1-5.2,0.3-7.7,0.3c-0.2-0.1-0.2-0.4-0.3-0.6c-0.2-0.7-0.3-1.5-0.3-2.2c0-0.3-0.3-1.1,0.1-1.3
				c0.4-0.1,0.9-0.2,1.3-0.2c1.2-0.1,2.3-0.3,3.5-0.4c0.9-0.1,1.8-0.1,2.7-0.2c0.9-0.1,1.8-0.1,2.7-0.2c0.3,0,0.6-0.1,0.9-0.1
				c1.8-0.1,3.5-0.2,5.3-0.3c0.9,0,1.8-0.1,2.6-0.1c0.4,0,0.8,0,1.1,0c0.3,0,0.4,0.4,0.4,0.6c0.1,0.3,0.2,0.5,0.2,0.8
				C1124.1,363.8,1124.2,364.4,1124.3,364.9z"/>
			<path id="Trazado_2240" class="st4" d="M1106.2,365c-0.1-0.4-0.1-0.8-0.1-1.3c0-0.2-0.2-0.6,0.1-0.6c0.3,0,0.2,0.8,0.3,1
				c0,0.2,0.2,1,0,1C1106.3,365.2,1106.2,365.1,1106.2,365z"/>
			<path id="Trazado_2241" class="st4" d="M1111,364.6c-0.1-0.4-0.2-0.9-0.2-1.3c0-0.1,0-0.2,0-0.4c0-0.1,0-0.2,0-0.2
				c0.1-0.2,0.3,0,0.3,0.2c0,0.6,0.1,1.1,0.2,1.7C1111.3,364.9,1111,364.8,1111,364.6z"/>
			<path id="Trazado_2242" class="st4" d="M1115.9,364.7c-0.1,0-0.2-0.1-0.2-0.2c0-0.2,0-0.4-0.1-0.6c0-0.4-0.1-0.9-0.2-1.3
				c0-0.4,0.5-0.2,0.4,0.1c0.1,0.6,0.2,1.2,0.2,1.8C1116.1,364.6,1116.1,364.7,1115.9,364.7z"/>
			<path id="Trazado_2243" class="st4" d="M1120.7,364.5c-0.2,0-0.2-0.4-0.2-0.5c0-0.1,0-0.3-0.1-0.4c0-0.3-0.1-0.6-0.2-0.9
				c0-0.2-0.1-0.4,0.1-0.5c0.1,0,0.2,0.1,0.2,0.2c0.1,0.3,0.1,0.7,0.2,1c0,0.2,0.1,0.5,0.1,0.7
				C1120.8,364.3,1120.9,364.5,1120.7,364.5z"/>
			<path id="Trazado_2244" class="st1" d="M1041.8,322.6c0,0.2,0,0.5-0.3,0.4c-0.2-0.1-0.4-1.2,0-1c0.1,0,0.1,0.1,0.1,0.1
				C1041.7,322.3,1041.8,322.5,1041.8,322.6z"/>
			<path id="Trazado_2245" class="st1" d="M1035.3,345.2c0-0.1-0.1-0.2-0.1-0.2c-0.1-0.3-0.2-0.7-0.3-1.1c-0.3-0.9-0.6-1.9-0.9-2.8
				c-0.1-0.4-0.3-0.9-0.4-1.3c-0.2-0.8-0.4-1.3-1.1-0.4c0,0,0,0.1,0,0.1c0.3,0.9,0.4,1.9,0.7,2.9c0.2,0.7,0.3,1.5,0.5,2.2
				c0.2,0.8,0.4,1.6,0.5,2.4c0.1-0.2,0.3-0.4,0.4-0.7C1034.9,346,1035.1,345.6,1035.3,345.2z M1039.5,330.5c0-0.1,0-0.2,0.1-0.2
				c-0.1,0-0.2,0.1-0.3,0.1c-0.6,0.2-1.2,0.3-1.8,0.4c0.4,0.4,0.8,0.8,1.2,1.3c0.2-0.4,0.3-0.7,0.6-1
				C1039.3,330.9,1039.4,330.7,1039.5,330.5L1039.5,330.5z M1041.6,329.9c0-0.1,0-0.2,0-0.2c-0.6,0.2-1.2,0.4-1.8,0.5
				c0.2,0.1,0.4,0.1,0.5,0.2c0.4,0.2,0.7,0.4,1.1,0.6C1041.5,330.7,1041.6,330.3,1041.6,329.9L1041.6,329.9z M1043.3,338.6
				c-0.2,0.2-0.4,0.4-0.6,0.7c-0.1,0.1-0.1,0.2-0.2,0.3c-0.1,0-0.2,0-0.3-0.1c0,0,0,0,0,0c0-0.2,0.1-0.5,0.2-0.7
				c0.1-0.2,0.1-0.4,0.2-0.6c0-0.1,0.1-0.2,0-0.3c-0.4,0.3-0.6,0.6-0.8,1.1c-0.1,0.2-0.3,0.1-0.3-0.1c0-0.1,0-0.3,0.1-0.4
				c0.2,0,0.4-0.2,0.4-0.5c0-0.2-0.2-0.4-0.5-0.4s-0.4,0.2-0.4,0.5c0,0.1,0,0.2,0.1,0.2c0,0,0,0.1-0.1,0.1c-0.2,0.1-0.3-0.1-0.3-0.3
				c0.1-0.2,0.1-0.4,0.2-0.7c-0.2-0.2-0.5,0.7-0.6,0.8c-0.2,0.5-0.5,0.9-0.8,1.3c-0.1,0.2-0.2,0.3-0.3,0.5c0.2,0.1,0.5,0.3,0.7,0.4
				c0.3,0.2,0.5,0.4,0.8,0.5c0.3,0.2,0.5,0.3,0.8,0.5c0.1-0.3,0.3-0.5,0.4-0.8C1042.6,340.2,1043,339.4,1043.3,338.6L1043.3,338.6z
				 M1041.9,326.4c0.3-0.1,1.3-0.7,1.3-1.1c-0.3-1.8-0.3-1.1,1-2c-0.4-0.3-0.7-0.5-1.2-0.7c-0.6-0.4-1-1-1.2-1.7c0,0,0,0-0.1,0
				c-0.4,0.3-1.4,1.2-1.9,1c-0.3-0.3,0.1-0.5,0.3-0.7c0.4-0.3,0.8-0.6,1.2-0.8c0.1,0,0.2,0,0.3,0c-0.1-0.1-0.1-0.3-0.2-0.4
				c-0.4,0-0.8,0-1.2-0.1c-0.1,0.3-0.3,0.6-0.6,0.9c-0.2,0.1-0.4,0.2-0.7,0.1c0,0.4-0.2,0.7-0.5,0.9c-0.1,0-0.2,0.1-0.2,0.1
				c0.2,0.3,0.3,0.6,0.4,0.7c0.2,0.4,0.4,0.8,0.6,1.2c0.1,0.1,0.1,0.3,0,0.4c0,0-0.1,0.1-0.1,0.1c-0.1,0.1-0.3,0.2-0.5,0.1
				c-0.2-0.1-0.3-0.2-0.4-0.3c-0.2-0.2-0.4-0.4-0.7-0.4c-0.3,0-0.5,0.3-0.6,0.5c0,0.2,0,0.3,0.1,0.4l0,0c0.1,0.2,0.4,0.4,0.3,0.6
				c-0.2,0.4-0.5,0.8-0.9,1.2c-0.2,0.1-0.1,0.3-0.1,0.5c0.1,0.5,0.2,1,0.3,1.4c0.1,0.6,0.2,1.2,0.4,1.7l0.1,0
				c0.4-0.1,0.9-0.2,1.3-0.3c1-0.3,2.1-0.5,3.1-0.8c-0.3-0.7-0.5-1.4-0.6-2.1c0-0.2,0.1-0.3,0.2-0.3
				C1041.5,326.7,1041.7,326.6,1041.9,326.4L1041.9,326.4z M1050,318.8c0-0.1-0.1-0.2-0.1-0.2c-0.1-0.2-0.2-0.4-0.3-0.6
				c-1,0.6-2.1,1-3.1,1.6c-0.4,0.2-0.8,0.4-1.2,0.6c-0.5,0.3-1,0.6-1.6,0.8c0,0.1-0.1,0.1-0.2,0.1l-0.1,0c0.1,0.2,0.2,0.5,0.4,0.7
				l0,0c0,0,0.1,0,0.1-0.1c0.6-0.3,1.2-0.6,1.8-0.9c0.8-0.4,1.6-0.8,2.3-1.2c0.3-0.2,0.7-0.3,1-0.5c0.2-0.1,0.4-0.2,0.6-0.3
				C1049.9,318.9,1050,318.8,1050,318.8L1050,318.8z M1051.1,315.9l0.4-0.3c0,0-0.1-0.1-0.1-0.1c-0.1-0.1-0.2-0.2-0.3-0.3
				c-0.1,0-0.1,0.2-0.1,0.3C1051,315.7,1051,315.8,1051.1,315.9L1051.1,315.9z M1051.8,315.4l0.5-0.3c0,0,0-0.1-0.1-0.1
				c-0.1-0.1-0.1-0.3-0.3-0.3c-0.2-0.1-0.3-0.1-0.3,0.1c0,0.2,0.1,0.3,0.1,0.5C1051.7,315.4,1051.8,315.4,1051.8,315.4L1051.8,315.4
				z M1052.5,315l0.5-0.3c-0.1-0.2-0.2-0.5-0.4-0.5l0,0c-0.2,0-0.1,0.2-0.2,0.4C1052.5,314.7,1052.5,314.8,1052.5,315L1052.5,315z
				 M1053.3,314.5l0.3-0.2c-0.1-0.2-0.2-0.3-0.3-0.5C1053.3,314,1053.3,314.2,1053.3,314.5C1053.3,314.5,1053.3,314.5,1053.3,314.5
				L1053.3,314.5z M1055.9,318.4c0-0.1-0.1-0.1-0.1-0.2c-0.1-0.1-0.1-0.2-0.2-0.3c-0.9,0.4-1.8,0.8-2.7,1.2c0,0,0.1,0.1,0.1,0.1
				c0.1,0.2,0.2,0.5,0.3,0.7c0,0,0,0,0.1,0c0.5-0.4,1-0.6,1.6-0.9C1055.3,318.7,1055.6,318.5,1055.9,318.4L1055.9,318.4z
				 M1062.3,331.2c0-0.8-0.2-1.6-0.6-2.3c-0.5-1.3-1.1-2.6-1.8-3.8c-0.6-1.1-1.2-2.1-1.8-3.1c-0.7-1.1-1.2-2.2-1.9-3.3
				c-0.2,0.1-0.5,0.2-0.7,0.4c-0.4,0.2-0.8,0.5-1.1,0.7c-0.2,0.1-0.4,0.2-0.6,0.4c-0.1,0-0.2,0.1-0.3,0.2c0.2,0.4,0.4,0.9,0.7,1.3
				c0.5,1.1,1,2.2,1.6,3.2c0.5,0.8,0.9,1.7,1.4,2.6c0.3,0.6,0.6,1.3,0.9,1.9c0.1,0.2,0.2,0.3,0.3,0.5c0.1,0.1,0.1,0.4-0.2,0.4
				c-0.1,0-0.2,0-0.2-0.1c-0.2-0.1-0.4-0.2-0.6-0.2c-0.2-0.1-0.5-0.1-0.7-0.2c-0.3-0.1-0.5-0.2-0.8-0.3c-0.3-0.1-0.7-0.2-1-0.3
				c-0.9-0.4-1.8-0.7-2.8-0.9c-0.3-0.1-0.7-0.1-1.1-0.2c-0.3-0.1-0.7-0.1-1-0.1c-0.8-0.1-1.7-0.2-2.5-0.1c-0.5,0.1-1.1,0.2-1.6,0.4
				c-0.5,0.2-0.9,0.3-1.4,0.5c-0.3,0.1-0.6,0.2-0.9,0.4c0,0,0,0.1,0,0.1l0,0c0,0.9,0,1.9,0,2.9c0,0.4-0.1,0.9-0.1,1.3
				c0,0.3,0,0.5,0,0.8c0,0.2,0,0.4-0.2,0.4c-0.4-0.1-0.2-0.6-0.2-0.8c0-0.7,0-1.3,0.1-2c0-0.8,0-1.6,0-2.4c-0.3,0.2-0.7,0.3-1.1,0.4
				l0,0c0,0.2,0,0.4,0,0.6c0,0.1,0,0.3-0.1,0.4c-0.1,0.2-0.1,0.5-0.2,0.8c0,0.1,0,0.2-0.1,0.2c-0.1,0-0.2,0-0.2-0.1
				c-0.1-0.1-0.3-0.1-0.4-0.2c-0.1,0-0.1-0.1-0.2-0.1c0,0-0.1,0.1-0.1,0.1c0.1,0.4,0.2,0.8,0.3,1.2c0.1,0.2,0.2,0.4,0.2,0.7
				c0,0.1,0.2,0.3,0,0.4c0,0-0.1,0-0.2,0c-0.1,0-0.2,0-0.4,0c-0.1,0.1-0.1,0.2-0.2,0.3c0,0.1-0.1,0.1-0.2,0.1
				c-0.1,0-0.2-0.1-0.2-0.3c0-0.2,0-0.4-0.1-0.5c-0.1-0.6-0.2-1.2-0.2-1.8c-0.1,0-0.2,0-0.3-0.1c-0.2,0.2-0.3,0.5-0.4,0.8
				c-0.1,0.2-0.2,0.6-0.4,0.5c-0.2-0.1-0.4-0.2-0.5-0.4c-0.4-0.4-0.8-0.9-1.2-1.2l0,0c-0.4,0.1-0.7,0.2-1,0.3l-0.1,0
				c0.4,0.4,0.8,0.7,1.1,1.1c0.4,0.4,0.7,0.9,1.1,1.3c0.2,0.2,0.3,0.4,0.5,0.6c0.1,0.1,0.2,0.2,0.3,0.3c0,0.1,0,0.2-0.1,0.3
				c-0.1,0-0.1,0-0.2,0c-0.3-0.2-0.5-0.5-0.7-0.7c-0.3-0.3-0.6-0.7-0.9-1.1c-0.4-0.5-0.8-0.9-1.3-1.3c-0.1-0.1-0.2-0.2-0.3-0.3
				c-0.3,0.1-0.6,0.2-0.9,0.3c-0.9,0.4-1.9,0.7-2.8,1.1c-1.4,0.6-2.8,1.4-4.1,2.3c-0.4,0.3-0.7,0.6-1,1c-0.1,0.2-0.2,0.5-0.2,0.8
				c0.2,2.7,0.8,5.4,1.7,8c0.3,0.9,0.5,1.9,0.8,2.8c0.2,0.7,0.5,1.4,0.8,2.1c0.3,0.5,0.6,1,0.8,1.5c0.2,0.3,0.4,0.7,0.6,1
				c0.2,0.3,0.4,0.5,0.6,0.7c0.4,0.2,0.8,0.3,1.2,0.2c0.6-0.1,1.1-0.5,1.5-0.9c1-1.1,2-2.2,2.8-3.4c0.6-0.9,1.2-1.9,1.8-2.9
				c0.4-0.7,0.8-1.3,1.2-2c0.4-0.7,0.8-1.5,1.2-2.2h0c-0.5-0.4-1-0.6-1.5-1c-0.2-0.1-0.5-0.3-0.7-0.4c0,0-0.1,0-0.1-0.1
				c-0.1,0.1-0.2,0.3-0.3,0.4c-0.4,0.6-0.8,1.2-1.3,1.8c-0.5,0.8-1,1.5-1.5,2.3c-0.4,0.6-0.8,1.3-1.2,1.9c-0.1,0.2-0.3,0.5-0.4,0.7
				c-0.1,0.2-0.2,0.4-0.4,0.2c-0.1-0.1-0.1-0.2-0.1-0.3c-0.3-1.3-0.6-2.7-0.9-4c-0.2-0.7-0.3-1.5-0.5-2.2c-0.1-0.6-0.3-1.3-0.4-1.9
				c0-0.1,0-0.2,0.1-0.3c0,0,0,0,0,0c0.1-0.3,0.4-0.6,0.7-0.7c0.8-0.2,1.1,0.8,1.3,1.4c0.2,0.7,0.5,1.4,0.7,2.1s0.4,1.4,0.6,2.1
				c0.1,0.2,0.1,0.5,0.2,0.7c0.6-1,1.3-2,1.9-2.9c0.3-0.4,0.6-0.8,0.9-1.2c0.3-0.4,0.7-0.8,0.9-1.2c0.3-0.5,0.6-1,0.9-1.5
				c0.1-0.3,0.3-0.5,0.5-0.7c0.3-0.1,0.5,0,0.6,0.3c0,0,0,0.1,0,0.1c0.3-0.4,0.7-0.3,0.8,0.2c0.5-0.5,0.9,0,0.8,0.5
				c0.4-0.3,0.7-0.1,0.7,0.4c0,0.2-0.1,0.4-0.2,0.5c-0.2,0.5-0.4,0.9-0.7,1.3c-0.8,1.3-1.5,2.6-2.2,3.9c-0.5,0.9-1,1.8-1.6,2.6
				c-0.6,0.9-1.2,1.8-1.8,2.7c0.3,0.7,0.4,1.4,0.5,2.2c1.4,0,2.8-0.3,4.1-0.9c1.4-0.5,3.4-1,3.6-2.8c0-0.1,0-0.3,0.1-0.4
				c0.1-0.2,0.4,0,0.4,0.2c0.4,1.6,3.8,0.6,4.9,0.3c1.1-0.3,2.1-0.7,3-1.3c-0.2-1.3-0.5-2.7-1-4c-0.6-1.8-1.1-3.6-1.6-5.4
				c-0.5-1.5-1-3-1.5-4.5c0-0.1,0-0.1-0.1-0.2c0-0.1,0-0.2,0-0.2c0.1-0.1,0.2-0.1,0.4,0c0.2,0.1,0.4,0.1,0.7,0.1
				c0.4,0,0.7,0.1,1.1,0.1c0.5,0,0.9,0,1.4,0.1c0.4,0.1,0.8,0.1,1.3,0.1c0.5,0.1,1,0.1,1.6,0.1c0.7,0,1.4,0.1,2,0
				c0.6,0,1.2-0.1,1.7-0.3c0.7-0.1,1.4-0.4,2-0.8C1062.1,332.1,1062.3,331.7,1062.3,331.2L1062.3,331.2z M1062.8,314
				c0.1-0.1,0.2-0.2,0.3-0.2c-0.3-0.7-0.6-1.3-0.9-2c-0.2-0.5-0.5-1-0.8-1.5c-0.1,0-0.2,0.1-0.2,0.1c0,0-0.1,0-0.1,0
				c0,0,0,0.1,0.1,0.1c0.1,0.1,0.1,0.2,0,0.3c0.1,0.2,0.2,0.4,0.3,0.6c0.3,0.6,0.6,1.2,0.9,1.8c0.1,0.2,0.2,0.3,0.2,0.5
				c0,0,0,0,0,0.1c0,0,0,0,0,0c0,0,0,0,0,0C1062.7,313.9,1062.7,314,1062.8,314L1062.8,314z M1063.5,313.6c0.1,0.1,0.2,0.3,0.2,0.4
				c0,0.1-0.1,0.2-0.2,0.2c-0.2,0.1-0.3,0.2-0.5,0.3c-0.1,0.2-0.3,0.2-0.5,0c-0.1-0.1-0.1-0.1-0.2-0.2c-0.1,0.1-0.3,0.2-0.4,0.3
				c-0.9,0.6-1.8,1.1-2.7,1.5c-1.1,0.5-2.1,1.1-3.2,1.5c0.9,1.3,1.7,2.6,2.4,4c0.6,0.9,1.1,1.8,1.6,2.7c0.9,1.5,1.7,3.1,2.3,4.7
				c0.4,0.8,0.6,1.7,0.4,2.6c0,0.5-0.3,1-0.7,1.3c-0.9,0.7-3.3,1.1-4.5,1.1c-1,0-2,0-3-0.1c-0.4,0-0.7,0-1.1-0.1s-0.7-0.1-1-0.2
				c-0.5,0-0.9-0.1-1.4-0.1c-0.2,0-0.5,0-0.7-0.1c0.5,1.5,1,2.9,1.4,4.4c0.6,2.2,1.2,4.3,1.9,6.4c0.3,1,0.6,1.9,0.6,3
				c0,0.2,0,0.4-0.2,0.4c-0.2,0.1-0.4,0.2-0.5,0.3c-0.4,0.2-0.8,0.4-1.2,0.5c0,0,0,0.1,0,0.1c0,0.3,0,0.6-0.1,0.9
				c-0.1,2.5-0.1,4.9-0.1,7.4c0.1,2.4,0.4,4.9,0.6,7.3c0.2,1.7,0.2,3.4,0.3,5.1c0.1,1.3,0.2,2.5,0.3,3.7c0.1,1.1,0.2,2.1,0.3,3.2
				c0.4,0.3,0.8,0.5,1.2,0.9c0.2,0.1,0.3,0.3,0.4,0.4c0.1,0.2,0.1,0.4-0.1,0.4c-0.6,0.1-1.2,0.1-1.8,0.1c-1.1-0.2-2.1-0.4-3.1-0.7
				c0,0.3,0,0.5,0,0.8c0,0.1,0,0.3-0.1,0.3c-0.1,0-0.3,0.1-0.4,0.1c-0.3,0.1-0.6,0.1-1,0.1c-0.2,0-0.3-0.2-0.3-0.3
				c-0.1-0.6-0.1-1.2-0.2-1.8c-0.2-1.6-0.2-3.2-0.4-4.8c-0.2-1.6-0.3-3.2-0.4-4.8c-0.3-3.7-0.5-7.4-0.7-11.1c0-1.1-0.1-2.3-0.2-3.4
				c0-1,0-2.1-0.1-3.1c-0.2-0.1-0.4-0.2-0.6-0.4c-0.2,0.7-0.6,1.3-1.2,1.7c0,0,0,0.1,0,0.1c0,0.1,0,0.2,0,0.3l0,0c0,0.1,0,0.2,0,0.2
				c0,0.4,0,0.8,0,1.1c0,1.5,0.2,3,0.2,4.5c0.1,1.6,0.2,3.2,0.3,4.8c0,0.5,0.1,1,0.1,1.5c0,1.2,0.1,2.4,0,3.6c0,0.2,0,0.4,0,0.6
				c-0.4,0.5-0.8,1-1.3,1.5c-0.6,0.7-1.3,1.3-2,1.9c-1.5,1.3-3.2,2.5-4.8,3.8c-0.5,0.3-0.9,0.7-1.4,1c-0.5,0.4-1,0.8-1.5,1.1
				c-0.7,0.5-1.3,1-2.1,1.4c0.1,0.3,0.1,0.7,0.2,1.1c0,0.3,0.2,1.2-0.3,1c-0.4-0.3-0.7-0.6-0.9-1.1c-0.5-0.7-0.8-1.4-1.1-2.2
				c-0.2,0.2-0.3,0.3-0.5,0.5c-0.1,0.2-0.3,0.2-0.4,0c-0.2-0.3-0.4-0.5-0.5-0.8c-0.1-0.1-0.1-0.2-0.1-0.4c0-0.2,0.2-0.4,0.4-0.6
				c0.7-0.8,1.5-1.6,2.3-2.4c1-1.1,2-2.2,2.9-3.3c0.8-0.9,1.6-1.9,2.4-2.8c0.4-0.5,0.8-1,1.2-1.5c0.4-0.6,0.8-1.3,1.2-1.9
				c0-0.1,0.1-0.2,0-0.3c0-0.3,0-0.6,0-0.8c0-0.5-0.1-0.9-0.1-1.4c-0.1-1.2-0.1-2.4-0.2-3.6c0-1.1-0.2-2.2-0.3-3.3
				c-0.1-0.5-0.1-0.9-0.1-1.4c0-0.1,0-0.2,0-0.3c-0.2,0-0.4,0-0.6,0c-0.3-0.2-0.3-1-0.4-1.3c-0.1-0.3-0.1-0.6-0.2-0.9v0
				c-0.4,0.6-0.9,1.2-1.4,1.7c-0.8,1-1.9,2.2-3.3,1.8c-0.5-0.1-0.9-0.4-1.2-0.8c-0.5-0.6-0.8-1.3-1.2-1.9c-0.2-0.4-0.4-0.7-0.6-1.1
				c-0.2-0.4-0.4-0.9-0.5-1.4c-0.2-0.7-0.5-1.4-0.7-2.1c-0.2-1-0.5-1.9-0.9-2.9c-0.5-1.7-0.9-3.4-1.1-5.1c-0.2-1.6-0.3-2.3,1-3.4
				c1-0.8,2-1.4,3.2-2c0.7-0.3,1.3-0.7,2-1c1.2-0.5,2.3-0.9,3.5-1.3c0.2-0.1,0.5-0.2,0.7-0.2l0.1,0c-0.1-0.5-0.2-1-0.3-1.5
				c-0.1-0.6-0.3-1.2-0.3-1.8c-0.2-0.1-0.2-0.4-0.2-0.6c-0.1-0.2-0.1-0.4-0.2-0.7c-0.2-0.7-0.4-1.3-0.6-2c0-0.3-0.1-0.7-0.2-1
				c-0.1-0.3-0.3-0.6-0.5-0.9c-0.2-0.5-0.3-0.9-0.3-1.4c-0.1-0.7,0.3-1.3,0.9-1.6c0.3-0.1,0.6-0.1,0.9,0c0-0.6,0.3-1.1,0.8-1.4
				c0.5-0.4,1.1-0.4,1.6,0.1c0.2-0.4,0.5-0.7,0.8-0.9c0.2-0.1,0.4-0.2,0.7-0.1c0.4,0,0.8,0.1,1,0.5c0.3-0.5,1-0.6,1.4-0.3
				c0.4,0.2,0.5,0.7,0.4,1.1c0.5,0.2,0.7,0.7,0.5,1.1c0,0,0,0.1,0,0.1c-0.1,0.3-0.4,0.6-0.7,0.7c-0.2,0.1-0.3,0.2-0.5,0.3
				c0,0,0,0,0,0.1c0.3,0.7,0.6,1.4,1.1,2c0.4,0.3,0.9,0.5,1.3,0.7c1,0.7-0.1,1.2-0.7,1.4c0,0.5,0.2,0.9,0.1,1.4
				c-0.6,0.7-1.3,1.2-2.2,1.5c0.2,0.6,0.4,1.2,0.6,1.8c0.1,0,0.3-0.1,0.4-0.1c0.7-0.2,1.3-0.6,2-0.8c1.2-0.5,2.4-0.8,3.7-0.9
				c0.5,0,1,0,1.4,0.1c0.2,0,0.4,0.1,0.6,0.1c0.4,0,0.9,0.1,1.3,0.2c0.5,0.1,1,0.2,1.5,0.3c0.7,0.2,1.4,0.4,2.1,0.7
				c0.5,0.2,1.1,0.4,1.6,0.6c0.3,0.1,0.6,0.2,0.9,0.3c-0.4-0.7-0.7-1.5-1.1-2.2c-0.4-0.7-0.8-1.5-1.2-2.2c-0.4-0.9-0.9-1.9-1.3-2.8
				c-0.2-0.5-0.5-0.9-0.7-1.4c-0.2-0.4-0.4-0.9-0.6-1.3c0-0.1-0.1-0.1-0.1-0.2c-0.4,0.2-0.8,0.3-1.2,0.5c-0.2,0.1-0.4,0.3-0.6,0.1
				c-0.1-0.2-0.3-0.4-0.4-0.6c-0.3,0.1-0.5,0.2-0.8,0.3c-0.7,0.4-1.5,0.7-2.3,1.1c-0.8,0.4-1.6,0.8-2.4,1.2
				c-0.2,0.1-0.5,0.2-0.7,0.3c0,0-0.1,0.1-0.1,0.1c0,0.1-0.1,0.3-0.2,0.3c-0.1,0-0.1,0-0.2-0.1c-0.1,0-0.1-0.1-0.1-0.2
				c-0.3-0.4-0.6-0.9-0.7-1.5c0-0.2,0.2-0.3,0.4-0.3c0.1,0,0.1,0.1,0.2,0.1c0,0,0.1,0,0.1,0c0.4-0.2,0.8-0.4,1.2-0.6
				c0.2-0.1,0.4-0.2,0.6-0.3c0.4-0.2,0.8-0.4,1.2-0.6c1-0.5,2.1-1,3.1-1.6c-0.1-0.1-0.1-0.2-0.2-0.4c0,0,0-0.1,0-0.1
				c0-0.1,0-0.1,0-0.1c0,0,0.1-0.1,0.1-0.1c0.2-0.1,0.4-0.2,0.6-0.4l0.7-0.4c-0.2-0.5-0.2-1.4,0.5-1.2c-0.1-0.6,0.4-0.7,0.8-0.5
				c0-0.5,0.4-0.8,0.8-0.5c0.1-0.5,0.5-0.7,0.8-0.3c0.1,0.1,0.2,0.3,0.3,0.5c1.9-1.1,3.8-2.1,5.8-3.1c0.3-0.1,0.5-0.3,0.8-0.4
				c0,0,0.1,0,0.1,0c0,0,0,0,0,0c-0.1-0.1-0.2-0.4,0-0.5c0.2,0,0.4-0.1,0.6-0.3c0.1-0.1,0.2,0,0.3,0.1c0,0,0,0,0,0.1
				c0.1,0.1,0.2,0.3,0.3,0.4c0.4,0.6,0.7,1.2,1,1.9C1063.1,312.7,1063.3,313.1,1063.5,313.6L1063.5,313.6z"/>
			<path id="Trazado_2246" class="st1" d="M1147.2,317.5c0.1,0.1,0.1,0.3,0,0.4c-0.1,0.2-0.2,0.3-0.4,0.2c-0.1-0.1-0.1-0.3,0-0.5
				C1146.8,317.5,1147,317.3,1147.2,317.5z"/>
			<path id="Trazado_2247" class="st1" d="M1150.1,318.4c0.1,0.2-0.1,0.5-0.3,0.5c-0.1,0-0.2-0.2-0.2-0.3c0-0.1,0-0.2,0.1-0.3
				c0-0.1,0.1-0.2,0.2-0.2C1149.9,318.1,1150,318.2,1150.1,318.4z"/>
			<path id="Trazado_2248" class="st1" d="M1148,317.5c0.1,0,0.2,0.1,0.2,0.2c0,0,0,0,0,0v0c-0.2,0.5-0.5,0.9-1,1.3
				c0.2,0,0.3,0,0.5-0.1c0.1,0,0.2,0,0.2,0.1c0.1,0.2,0,0.3-0.2,0.3c-0.2,0.1-0.4,0.1-0.5,0.1c-0.2,0-0.5-0.2-0.5-0.4
				c0-0.1,0.2-0.2,0.2-0.3c0.2-0.2,0.3-0.3,0.4-0.5c0.1-0.2,0.3-0.3,0.4-0.5C1147.8,317.7,1147.9,317.5,1148,317.5z"/>
			<path id="Trazado_2249" class="st1" d="M1147,320.3c0.2,0.1,0.2,0.4,0,0.4c-0.2,0-0.3-0.1-0.5-0.2c-0.1-0.1-0.1-0.1-0.1-0.2
				C1146.5,320,1146.9,320.3,1147,320.3z"/>
			<path id="Trazado_2250" class="st1" d="M1150.8,317.4c0.1,0.2-0.1,0.4-0.2,0.2c-0.2-0.3-0.5-0.4-0.8-0.3c0,0,0,0,0,0
				c-0.1,0-0.2-0.1-0.2-0.2c0-0.1,0-0.1,0.1-0.2C1150,316.7,1150.6,316.9,1150.8,317.4C1150.8,317.3,1150.8,317.4,1150.8,317.4z"/>
			<path id="Trazado_2251" class="st1" d="M1140.3,367C1140.3,367,1140.3,367,1140.3,367L1140.3,367c-0.2,0-0.3-0.2-0.3-0.4
				c-0.1-0.4-0.3-0.7-0.5-1c-0.2,0.5-0.7,1-1.2,1.2c-0.5,0.2-1,0.2-1.5,0.2c-0.3,0-0.5,0-0.8-0.1c-0.3-0.1-0.6-0.2-0.9-0.4
				c-0.3-0.1-0.5-0.3-0.8-0.5c-0.2,0-0.3-0.2-0.3-0.3c0-0.1,0.1-0.2,0.2-0.2c0,0,0,0,0,0c0.2,0.1,0.3,0.1,0.5,0.1
				c0.3,0.1,0.6,0.1,1,0.1c0.6-0.1,1.1-0.2,1.6-0.3c0.1-1.2,0.4-2.5,0.5-3.7c0-0.4,0.1-0.8,0.1-1.2c0.1-0.9,0.2-1.8,0.2-2.8
				c0.2-1.6,0.3-3.2,0.5-4.8c0.2-1.9,0.6-3.7,0.8-5.5c-0.1,0-0.1-0.1-0.2-0.1c-0.1,0-0.3-0.1-0.4-0.1c-0.1,0-0.2-0.1-0.2-0.2l0,0
				l0,0v0c0-0.1,0-0.2,0-0.3c0.2-1.2,0.5-2.5,0.8-3.7c0.4-1.7,0.9-3.3,1.4-4.9c0.1-0.4,0.3-0.8,0.4-1.3c-0.1-0.1-0.2-0.2-0.1-0.3
				c0.5-0.9,0.9-1.7,1.3-2.7c0.2-1,0.4-2,0.5-3c0.1,0,0.1,0,0.2,0.1s0.1,0,0.2,0.1c-0.1,0.7-0.2,1.3-0.3,2c-0.1,0.5-0.2,1-0.4,1.5
				c-0.3,0.7-0.7,1.4-1.1,2.1c0.6,0.3,1.3,0.5,2,0.6c0.7,0.2,1.3,0.3,2,0.4c0.5,0,0.9,0.1,1.4,0.2c0.1,0,0.2,0,0.3,0
				c0.1-0.1,0.2-0.1,0.2,0c0,0,0,0,0,0c0.1,0.2,0.2,0.4,0.3,0.6c0.7,1.3,1.7,2.4,3,3.2c0.3,0.1,0.5,0.3,0.8,0.5
				c0.1,0.1,0.3,0.1,0.4,0.3c0,0,0,0.1,0,0.1c0.1,0.1,0.1,0.1,0.1,0.2c0,0.3,0,0.7,0,1s-0.1,0.6-0.1,0.9c0,0.5-0.1,1-0.2,1.5
				c-0.2,0.8-0.2,1.6-0.4,2.4c-0.1,0.1,0,0.5-0.1,0.6c0,0.1,0,0.1,0,0.2c0,0.2,0,0.4-0.2,0.4c-0.4,0-0.8-0.1-1.2-0.1
				c0,0.1,0,0.1-0.1,0.2c-0.1,0.4-0.2,0.8-0.3,1.3c0,0.3-0.1,0.7-0.2,1c0,0.2-0.1,0.4,0,0.6c0.6,0.8,1.3,1.5,1.9,2.3
				c0.8,0.8,1.6,1.6,2.4,2.4c0.4,0.3,0.8,0.7,1.2,1c0.4,0.3,0.8,0.7,1.2,1.1c0.7,0.6,1.4,1.2,2,1.9c0.1,0.1,0.2,0.2,0.3,0.3
				c0.1,0.1,0.1,0.2,0,0.3c0,0,0,0,0,0c0,0,0,0.1-0.1,0.1c-0.1,0.1-0.2,0-0.2,0c-0.2,0-0.5,0-0.7,0c-0.2,0-0.3,0-0.5,0
				c0.2,0.6,0.3,1.2,0.2,1.8c-0.1,0.5-0.3,0.9-0.6,1.3c-0.2,0.2-0.4,0.5-0.6,0.7c-0.2,0.2-0.4,0.3-0.6,0c0-0.1,0-0.1,0-0.2
				c0-0.1,0-0.2,0-0.4c0-0.6,0.1-1.3,0.1-1.9c-1.7-1.1-3.4-2.3-5-3.6c-0.6-0.5-1.1-0.8-1.7-1.3c-0.7-0.6-1.3-1.1-2-1.8
				c-0.3-0.3-0.6-0.6-0.8-0.9c-0.3-0.4-0.6-0.8-0.9-1.3c-0.2-0.2-0.3-0.5-0.3-0.7c-0.1-0.9,0-1.8,0.2-2.6c0-0.5,0.1-1,0.2-1.5
				c0-0.2,0.1-0.4,0.1-0.5c-0.4-0.1-0.7-0.1-1.1-0.2c0,0,0,0,0,0c-0.1,0.4-0.2,0.9-0.2,1.3c-0.2,0.7-0.3,1.5-0.5,2.2
				c-0.1,0.5-0.2,1-0.3,1.5c-0.4,1.6-0.8,3.3-1.1,4.9c-0.2,1-0.3,2-0.5,3c-0.3,1.3-0.5,2.7-0.7,4c-0.1,0.5-0.3,1-0.3,1.5
				c0,0.2-0.1,0.3-0.2,0.3C1140.4,367.3,1140.3,367.2,1140.3,367z M1139.5,351.5c-0.2,1.6-0.4,3.2-0.6,4.7c-0.1,0.7-0.2,1.5-0.2,2.2
				c0,0.8-0.1,1.6-0.2,2.4c0,0.6-0.1,1.1-0.2,1.7c0,0.3-0.1,0.5-0.1,0.8c0.1,0,0.3,0,0.4,0c0.8,0.1,1.6,0.3,2.4,0.5
				c0.1-0.6,0.2-1.1,0.3-1.7c0.3-1.7,0.6-3.5,1-5.3c0.1-0.5,0.2-1,0.3-1.5c0.2-0.9,0.4-1.7,0.6-2.6c0.2-1.3,0.6-2.5,0.8-3.7
				c0-0.2,0.1-0.4,0.1-0.6c-0.4-0.1-0.7-0.1-1.1-0.2c-0.8-0.2-1.6-0.4-2.4-0.6c-0.2,0-0.3-0.1-0.5-0.1
				C1139.9,348.8,1139.7,350.1,1139.5,351.5L1139.5,351.5z M1145.9,350c-0.1,0.7-0.2,1.4-0.3,2.2c-0.1,0.5-0.1,0.9,0,1.4
				c0.3,0.5,0.6,1,1,1.5c0.7,0.9,1.6,1.7,2.5,2.4c0.6,0.5,1.1,1,1.7,1.4c0.6,0.5,1.2,1,1.9,1.5c0.7,0.5,1.4,1,2,1.5l0,0
				c0.3-0.5,0.6-0.9,1-1.4c0.1-0.2,0.2-0.3,0.3-0.5c0-0.1,0.1-0.2,0.2-0.2c-0.5-0.5-1.1-1-1.7-1.4c-0.4-0.3-0.8-0.7-1.2-1
				c-1-0.8-1.9-1.7-2.8-2.7c-0.4-0.5-0.9-1-1.3-1.6c-0.2-0.2-0.4-0.5-0.5-0.7c0-0.2,0-0.3,0-0.5c0.1-0.5,0.1-1,0.2-1.5
				c0.1-0.4,0.2-0.7,0.3-1c-0.9-0.1-1.7-0.2-2.6-0.3c-0.3,0-0.6-0.1-0.8-0.1C1146.1,349.2,1146,349.6,1145.9,350L1145.9,350z"/>
			<path id="Trazado_2252" class="st1" d="M1159.4,342.8c-0.1-0.1-0.1-0.2-0.2-0.3c0,0,0-0.1,0-0.1c-0.3,0.4-0.7,0.2-0.7-0.2
				c-0.1,0.1-0.3,0.2-0.4,0.2c-0.3,0-0.4-0.3-0.4-0.5c-0.1,0.1-0.3,0.1-0.4,0c0,0-0.1-0.1-0.1-0.1c-0.4-0.6,0.5-1.7,0.8-2.3
				c0.3-0.5,0.5-1,0.7-1.5c0,0,0-0.1,0-0.1c0.2-0.4,0.3-0.8,0.5-1.1c0.3-0.6,0.5-1.3,0.7-1.9c0.2-0.5,0.4-1.1,0.6-1.6
				c0.2-0.6,0.1-0.5-0.3-0.9c-0.6-0.5-1.2-1-1.9-1.4l0,0c-1.1-0.7-2.2-1.4-3.4-1.9c-0.2-0.1-0.2-0.2-0.2-0.4c0,0,0-0.1,0.1-0.1
				c0.1-0.1,0.7,0.2,0.8,0.2c0.4,0.2,0.9,0.4,1.3,0.7c0.4,0.2,0.7,0.5,1.1,0.7c0.6,0.3,1.1,0.7,1.7,1c0.3,0.2,0.6,0.4,0.9,0.7
				c0.3,0.3,0.7,0.6,0.6,1.1c-0.2,0.8-0.6,1.6-0.8,2.4c-0.3,0.9-0.6,1.8-1.1,2.6c0.5,0.2,1,0.3,1.4,0.5c0.2,0.1,0.4,0.2,0.7,0.3
				c0,0,0.1,0,0.1,0c0.5-1,0.9-2,1.3-3.1c0.3-0.6,0.5-1.3,0.7-1.9c0.2-0.9,0.6-2-0.2-2.7c-0.4-0.4-0.8-0.8-1.3-1.1
				c-0.3-0.2-0.5-0.5-0.8-0.8c-0.2-0.2-0.5-0.4-0.7-0.6s-0.4-0.5-0.6-0.7c-0.3-0.3-0.6-0.6-1-0.9c-0.7-0.6-1.4-1.2-2.2-1.6
				c-0.4-0.2-0.8-0.3-1.3-0.4c-0.4,0-0.7-0.1-1.1-0.1c-0.8-0.1-1.6-0.3-2.4-0.5c-0.2-0.1-0.5-0.2-0.5-0.5c0-0.1,0-0.3,0-0.4
				c0-0.1,0-0.2,0-0.3c0.1-0.4,0.1-0.7,0.2-1.1c0.1-0.5,0.2-0.9,0.3-1.4c0.1-0.2,0-0.4,0.2-0.5c0,0,0.1,0,0.1,0c0,0,0.1,0,0.1,0
				c0.3-0.1,0.4-0.1,0.4-0.4c-0.3-0.2-0.7-0.4-1.1-0.4c-0.1-0.1-0.2-0.2-0.1-0.4c0,0,0,0,0,0c0-0.2,0.1-0.4,0.1-0.6
				c0.1-0.3,0.1-0.6,0.1-0.8c-0.5-0.5-1-1-1.5-1.5c-0.3-0.4-0.7-0.7-1.2-1c-0.4,0.1-0.8,0.2-1.2,0.3c-0.2,0.1-0.5,0.2-0.7,0.2
				c0,0,0,0.1,0,0.1c-0.1,0.2-0.1,0.4-0.2,0.6c0.2,0,0.4,0.1,0.6,0.2c0.1,0.1,0,0.4-0.2,0.3c-0.1,0-0.2-0.1-0.2-0.1
				c-0.1,0-0.2,0-0.3,0c-0.2,0.6-0.4,1.2-0.5,1.8c-0.2,0.8-0.5,1.5-0.6,2.3c0,0.1,0,0.1,0.1,0.2c0.1,0.1,0.2,0.1,0.4,0.2
				c0.2,0.1,0.4,0.1,0.7,0.2s0.4,0.1,0.6,0.2c0.1,0,0.2,0.1,0.2,0.2c0.1,0.2-0.1,0.4-0.1,0.7c-0.1,0.3-0.2,0.6-0.2,0.9
				c0,0.1,0,0.4-0.1,0.5c0,0.1-0.1,0.2-0.2,0.2c-0.1,0-0.2,0-0.3-0.1c-0.2,0-0.4-0.1-0.6-0.1c-0.6-0.1-1.3-0.2-1.9-0.3
				c-0.2,0-0.4,0-0.6,0c-0.1,0.1-0.3,0.1-0.4,0.2c-0.4,0.3-0.8,0.6-1.2,1c-1.1,1-2.2,2-3.2,3.1c-0.7,0.8-1.4,1.6-2.1,2.4
				c-0.3,0.4-0.6,0.7-0.8,1.1c-0.1,0.3-0.4,0.2-0.5-0.1c-0.1-0.5-0.3-1-0.3-1.5c-0.1-0.5-0.3-1-0.4-1.6c-0.4-1.5-0.9-2.9-1.3-4.4
				c-0.1-0.4-0.2-0.7-0.4-1.1c0,0,0,0-0.1,0c-0.4,0.2-0.7,0.3-1.1,0.5c-0.2,0.1-0.4,0.3-0.7,0.4c0,0-0.1,0.1-0.1,0.1
				c0,0-0.1,0-0.1,0c0.1,0.4,0.2,0.8,0.3,1.3c0.2,0.8,0.4,1.5,0.6,2.3c0.2,0.7,0.3,1.5,0.5,2.2c0.4,1.5,0.8,3,1.4,4.4
				c0.1,0.3,0.2,0.6,0.3,0.8c0.1,0.3,0.4,1,0.7,0.8l0,0c0,0,0,0,0,0c0.1,0.1,0.1,0.1,0.2,0.1c0,0,0.1,0,0.1,0c0.1,0,0.1,0,0.2,0
				c0,0,0.1,0,0.1,0c-0.1,0.1-0.3,0.2-0.4,0.3c-0.9,0.5-1.4-1.3-1.7-1.9c-0.4-1-0.7-2-1-3c-0.2-0.7-0.4-1.4-0.6-2.2
				c-0.1-0.5-0.2-1-0.3-1.5c-0.2-0.8-0.4-1.5-0.6-2.3c-0.2-0.6-0.3-1.2-0.4-1.9c-0.1-0.3-0.2-0.6-0.3-0.9c-0.1-0.3-0.1-0.6-0.2-0.8
				c-0.1-0.3-0.2-0.5-0.3-0.7c-0.2-0.3-0.6-0.5-0.6-0.8c0-0.2,0.2-0.3,0.4-0.3c0.1,0,0.1,0,0.2,0.1c-0.1-0.2-0.2-0.5,0.1-0.6
				c0.2,0,0.5,0,0.6,0.2c-0.2-0.7,0.5-0.6,0.8-0.2c-0.1-0.6,0.3-0.9,0.7-0.4c0.2,0.3,0.4,0.7,0.5,1c0.2,0.5,0.4,0.9,0.5,1.4
				c0.3,0.9,0.5,1.7,0.8,2.6c0.3,1.1,0.7,2.2,1,3.3c0.3,0.7,0.4,1.5,0.6,2.2c0.1,0.6,0.2,1.1,0.4,1.7c1.5-2,3.2-3.8,5-5.5
				c0.6-0.5,1.2-1,1.8-1.5c0.3-0.3,0.6-0.5,1-0.6c0.4-0.1,0.7-0.1,1.1,0c0.7,0,1.3,0.1,2,0.3c0.1,0,0.2,0,0.3,0.1c0,0,0-0.1,0-0.1
				c0.1-0.4,0.2-0.9,0.3-1.3c-0.6-0.1-1.1-0.3-1.6-0.6c-0.3-0.3-0.3-0.7-0.2-1.1c0.1-0.4,0.2-0.9,0.3-1.3c0.2-0.8,0.4-1.6,0.7-2.4
				c0,0,0-0.1,0-0.1c0-0.1,0-0.2,0.1-0.2c0.1-0.3,0.2-0.5,0.3-0.8c0,0,0-0.1,0-0.1c0-0.1,0.1-0.2,0.2-0.3c0.1-0.2,0.3-0.4,0.4-0.5
				c0.6-0.5,1.3-0.7,2-0.8c0.5-0.1,1,0,1.4,0c0.5,0.1,0.9,0.3,1.4,0.5c1,0.4,1.7,1.2,2,2.2c0.5-0.3,1.1-0.4,1.6-0.1
				c0.8,0.4,1.2,1.2,1.1,2c-0.2,0.7-0.9,1.2-1.6,1.2c-0.3,0.1-0.7,0.1-1-0.1c-0.2,0.3-0.4,0.6-0.7,0.9c-0.2,0.2-0.5,0.4-0.8,0.5
				c-0.1,0.1-0.3,0.1-0.4,0.2c-0.1,0.6-0.2,1.1-0.4,1.7c0,0.2-0.1,0.4-0.1,0.6c0,0.1,0,0.2-0.1,0.3c0,0.1,0,0.1,0,0.2
				c0.7,0.2,1.4,0.4,2.1,0.5c0.6,0.1,1.2,0.1,1.8,0.3c1.5,0.5,2.9,1.4,4,2.6c0.4,0.3,0.7,0.7,1,1c0.2,0.2,0.4,0.4,0.6,0.6
				s0.4,0.4,0.6,0.6c0.3,0.3,0.8,0.6,1.1,0.9c0.8,0.6,1.2,1.7,0.9,2.7c-0.2,1-0.5,1.9-0.9,2.8c-0.6,1.6-1.3,3.1-2.1,4.6
				c-0.3,0.5-0.6,1.1-0.9,1.6c-0.1,0.2-0.3,0.7-0.6,0.7C1159.5,342.9,1159.4,342.8,1159.4,342.8z M1159.7,341.1c0.1,0.1,0,0.3,0,0.5
				c-0.1,0.2-0.1,0.5-0.1,0.7c0.5-0.9,1-1.8,1.4-2.8c0.1-0.1,0.1-0.3,0.2-0.4c-0.4-0.1-0.7-0.3-1.1-0.4c-0.4-0.2-0.8-0.3-1.1-0.4
				c-0.3,0.6-0.5,1.2-0.9,1.7c-0.1,0.2-0.3,0.5-0.4,0.8c-0.1,0.2-0.2,0.4-0.2,0.6c0.1-0.2,0.3-0.4,0.3-0.6c0-0.1,0-0.1,0.1-0.2
				c0.1-0.1,0.3,0,0.3,0.2c-0.1,0.3-0.1,0.7-0.1,1l0,0c0.3-0.1,0.4-0.5,0.5-0.7c0.1-0.1,0-0.4,0.2-0.4c0.1,0,0.2,0,0.2,0.1
				c0,0.1,0,0.2,0,0.3c0,0.3-0.1,0.5,0,0.8c0.2-0.2,0.3-0.5,0.5-0.8c0-0.1,0.1-0.2,0.2-0.2C1159.6,341,1159.6,341.1,1159.7,341.1
				L1159.7,341.1z M1130,320.4c0.3,0.4,0.5,1,0.6,1.5c0.1,0.5,0.3,0.9,0.3,1.4c0.3-0.1,0.5-0.3,0.8-0.5c0.2-0.1,0.5-0.2,0.7-0.3
				c0.2-0.1,0.3-0.1,0.5-0.2c-0.2-0.8-0.5-1.5-0.7-2.3c-0.1-0.4-0.3-0.9-0.6-1.2c0.1,0.3,0.2,0.7,0.3,1c0,0.1,0.1,0.3,0,0.3
				c-0.1,0.1-0.2,0-0.3-0.1c-0.1-0.2-0.3-0.3-0.4-0.5c-0.1-0.2-0.2-0.4-0.4-0.5c0.1,0.2,0.7,1.2,0.4,1.4c-0.1,0-0.2,0-0.2,0
				c-0.2-0.3-0.4-0.6-0.7-0.9c-0.1-0.1-0.2-0.1-0.3-0.1c0.3,0.3,0.5,0.7,0.7,1c0.1,0.1,0.1,0.2,0.1,0.2c0,0.1-0.1,0.2-0.2,0.1
				c-0.1,0-0.1-0.1-0.1-0.1c-0.2-0.3-0.5-0.6-0.8-0.8C1129.7,320.1,1129.9,320.2,1130,320.4L1130,320.4z"/>
			<path id="Trazado_2253" class="st1" d="M1147,330.7c-0.1-0.1-0.2-0.2-0.1-0.3c0-0.2,0-0.4,0-0.6c0-1.1-0.1-2.3,0-3.4
				c0-0.7,0-1.5,0-2.2c0-0.2,0-0.4,0.1-0.5c0.2-0.2,0.4,0.1,0.3,0.2c0,0.9,0.1,1.8,0.1,2.7c0,1.1,0,2.1,0,3.2
				c0.8-1.1,1.7-2.2,2.5-3.3c0.3-0.4,0.6-0.7,0.8-1.1c0.2-0.3,0.5-0.6,0.7-1c0.1-0.2,0.2-0.6,0.5-0.4c0.2,0.1,0.2,0.4,0.1,0.5
				c0,0-0.1,0.1-0.1,0.1c-0.1,0.2-0.2,0.4-0.4,0.5c-0.4,0.5-0.8,1.1-1.2,1.6c-0.7,1-1.5,1.9-2.2,2.9c-0.2,0.2-0.4,0.5-0.5,0.7
				c-0.1,0.1-0.2,0.2-0.2,0.4C1147.2,330.6,1147.1,330.8,1147,330.7z"/>
			<path id="Trazado_2254" class="st1" d="M1146.2,329.9c-0.7-1.1-1.2-2.3-1.8-3.4c-0.2-0.2-0.3-0.5-0.4-0.7c0-0.2,0.1-0.3,0.3-0.3
				c0.3-0.1,0.6-0.1,0.9-0.1c-0.2-0.1-0.4-0.2-0.5-0.4c-0.1-0.1-0.1-0.2-0.1-0.3c0-0.1,0.1-0.1,0.1-0.1c0.3-0.3,0.7-0.6,0.9-1
				c0-0.1,0.1-0.1,0.1-0.1c0.2,0,0.3,0.2,0.2,0.4c-0.3,0.3-0.6,0.7-0.9,1c0.3,0.2,0.7,0.3,1,0.4c0.2,0,0.2,0.4,0,0.4
				c-0.5,0.1-1.1,0.2-1.6,0.2c0.3,0.5,0.6,1,0.8,1.5c0.2,0.4,0.4,0.8,0.6,1.2c0.2,0.4,0.4,0.7,0.6,1
				C1146.6,329.8,1146.4,330,1146.2,329.9z"/>
			<path id="Trazado_2255" class="st1" d="M1147,330.9c-0.1-0.1,0-0.2,0.1-0.3c0.4-0.2,0.8-0.4,1.2-0.6c1.4-0.9,2.7-1.8,4-2.8
				c-0.3-0.3-0.7-0.6-0.7-1c0-0.3,1.1-0.3,1.3-0.4c-0.1-0.2-0.6-1.7,0-1.4c0.1,0.1,0.1,0.1,0.1,0.2c0,0.2,0.1,0.4,0.2,0.6
				c0,0.3,0.2,0.5,0.2,0.8c-0.1,0.3-1,0.2-1.3,0.3c0.2,0.2,0.3,0.4,0.5,0.5c0.2,0.1,0.2,0.2,0.2,0.4c-0.5,0.5-1.1,1-1.7,1.4
				c-1,0.7-2.1,1.4-3.3,2C1147.5,330.8,1147.1,331.2,1147,330.9z"/>
			<path id="Trazado_2256" class="st1" d="M1146.9,330.9c-0.2-0.2-0.4-0.5-0.5-0.8c-0.1-0.2-0.5-0.7-0.2-0.9c0,0,0.1,0,0.1,0
				c0.1,0,0.2,0.1,0.2,0.2c0,0,0,0,0,0c0.2,0.4,0.4,0.7,0.6,1.1C1147.3,330.8,1147.1,331.1,1146.9,330.9z"/>
			<path id="Trazado_2257" class="st1" d="M1148.3,326.5c-0.2,0-0.3-0.5-0.4-0.7c-0.2-0.6-0.5-1.2-0.9-1.8c-0.1-0.1,0-0.4,0.2-0.4
				c0.1,0,0.1,0.1,0.2,0.1c0.4,0.7,0.8,1.4,1,2.2c0.6-0.5,1.2-0.9,1.8-1.3c0.5-0.3,1-0.5,1.5-0.7c0.2-0.1,0.4,0.3,0.2,0.4
				c-0.4,0.2-0.9,0.4-1.4,0.6c-0.3,0.2-0.6,0.4-0.9,0.6c-0.3,0.2-0.6,0.4-0.9,0.6C1148.5,326.4,1148.4,326.5,1148.3,326.5z"/>
			<path id="Trazado_2258" class="st1" d="M1149.1,327.5c-0.3-0.3-0.6-0.7-0.8-1.1c-0.1-0.1-0.1-0.2-0.1-0.3c0-0.1,0.1-0.2,0.2-0.1
				c0,0,0.1,0,0.1,0c0,0,0,0,0,0c0.1,0,0.1,0.1,0.1,0.2c0.1,0.2,0.2,0.4,0.3,0.6s0.5,0.5,0.3,0.7
				C1149.2,327.5,1149.1,327.5,1149.1,327.5z"/>
			<path id="Trazado_2259" class="st1" d="M1146.9,327.1c-0.2-0.4,0.4-0.5,0.6-0.6c0.2-0.1,0.5-0.3,0.7-0.4c0.1-0.1,0.3-0.1,0.3,0
				c0,0,0,0,0,0c0.1,0.2,0,0.3-0.2,0.4c-0.2,0.1-0.4,0.3-0.6,0.4c-0.2,0.1-0.4,0.3-0.6,0.4C1147,327.2,1146.9,327.2,1146.9,327.1z"
				/>
			<path id="Trazado_2260" class="st1" d="M1145.8,337.8c-0.3-0.2-0.1-0.5,0-0.7c0.1-0.5,0.2-1,0.3-1.6c0.1-0.9,0.3-1.7,0.5-2.5
				c0.1-0.7,0.3-1.5,0.4-2.2l0,0c0-0.1,0.1-0.2,0.2-0.2c0.1,0,0.1,0,0.1,0.1c0,0.1,0,0.1,0,0.2c-0.1,1.3-0.4,2.6-0.7,3.9
				c-0.1,0.8-0.3,1.5-0.4,2.3C1146.1,337.3,1146.2,337.9,1145.8,337.8z"/>
			<path id="Trazado_2261" class="st1" d="M1037.7,336.3c-0.4-0.1-0.8-0.3-1.2-0.4c-0.6-0.2-1.2-0.5-1.8-0.8
				c-0.3-0.1-0.4-0.4-0.1-0.7c0.2-0.3,0.4-0.5,0.7-0.8c-0.3,0.1-0.6,0.3-1,0.4c-0.2,0-0.2-0.2-0.3-0.4c-0.1-0.4-0.1-0.7-0.2-1.1
				c0-0.2-0.1-0.3-0.1-0.5c0-0.1,0-0.2,0-0.2c0.1-0.2,0.3-0.1,0.3,0c0.1,0.1,0.2,0.2,0.1,0.3c0,0,0,0,0,0c0.1,0.4,0.2,0.9,0.2,1.4
				c0.4-0.2,0.8-0.3,1.2-0.5c0.2,0,0.5-0.3,0.6,0c0,0.1,0,0.2-0.1,0.3c-0.1,0.2-0.3,0.3-0.4,0.5c-0.3,0.3-0.5,0.6-0.8,0.9
				c0.8,0.4,1.7,0.7,2.5,1c0.1,0,0.2,0.1,0.4,0.1C1038,335.9,1037.9,336.4,1037.7,336.3z"/>
			<path id="Trazado_2262" class="st1" d="M1044.7,335.1c-0.1-0.1-0.2-0.2-0.1-0.3c0.1-0.4,0.3-0.7,0.4-1.1c0.1-0.4,0.3-0.8,0.4-1.2
				s0.3-0.8,0.5-1.1c-0.4,0-0.8,0-1.1,0c-0.2,0-0.4,0-0.5-0.1c-0.1-0.1-0.1-0.2,0-0.3c0.5-0.4,1-0.7,1.5-1c-0.4-0.3-0.8-0.7-1.2-1.1
				c-0.2,0-0.2-0.2-0.2-0.4c0,0,0-0.1,0-0.1c0.2-0.1,0.3,0.1,0.4,0.2c0.2,0.2,0.5,0.5,0.7,0.7c0.2,0.2,0.6,0.4,0.6,0.7
				c0,0.2-0.3,0.3-0.4,0.4c-0.3,0.2-0.6,0.3-0.9,0.5c0.3,0,0.6,0,0.9,0c0.2,0,0.5,0,0.5,0.2c0,0.1,0,0.3-0.1,0.4
				c-0.1,0.2-0.2,0.4-0.3,0.6c-0.2,0.4-0.3,0.8-0.4,1.2c-0.2,0.6-0.4,1.1-0.6,1.7C1045,335.1,1044.9,335.1,1044.7,335.1
				C1044.8,335.1,1044.7,335.1,1044.7,335.1z"/>
			<path id="Trazado_2263" class="st1" d="M1045.5,348.2c-0.4-1.5-0.8-3.1-1.1-4.6c0-0.3,0.4-0.1,0.4,0.1c0.3,1.2,0.6,2.4,0.9,3.6
				c0,0.3,0.4,1,0.1,1.1C1045.7,348.3,1045.6,348.3,1045.5,348.2z"/>
			<path id="Trazado_2264" class="st1" d="M1130.9,365.2c0.1,0.1,0.1,0.3,0,0.4c-0.1,1.1-0.2,2.2-0.3,3.2c0,0.2,0,0.4-0.2,0.5
				c-0.3,0.1-0.6,0.1-1,0.1c-2.4,0.3-4.8,0.5-7.1,0.7c-1.4,0.1-2.8,0.3-4.1,0.5c-1.7,0.1-3.3,0.2-5,0.3c-2,0.2-4.1,0.4-6.1,0.6
				c-0.7,0.1-1.4,0.1-2,0.1c-0.3,0-0.7,0.1-1,0.1c-0.1,0-0.2,0-0.3-0.1c-0.4-0.4-0.7-0.8-1.1-1.2c-0.6-0.8-1.2-1.6-1.8-2.4
				c-0.4-0.4-0.6-0.8-1-1.2c-0.3-0.4-0.6-0.8-0.9-1.2c-0.2-0.2-0.3-0.4-0.5-0.6c-0.1,0-0.1-0.1-0.1-0.2c0,0,0,0,0,0
				c-0.1-0.2,0-0.4,0.2-0.3c0.4,0,0.8,0.2,1.3,0.2c0.3,0,0.7,0.1,1,0.1c1,0.2,2.1,0.3,3.1,0.4c2.1,0.1,4.1,0.2,6.2,0.2
				c2.1,0,4.1,0,6.2-0.1c1.4,0,2.7,0,4.1,0c1.4,0,2.8-0.1,4.1-0.2c0.9,0,1.8,0,2.8,0c0.9,0,1.8-0.1,2.6-0.1c0.2,0,0.4,0,0.6,0
				c0.1,0,0.2,0,0.3,0.1C1130.8,365.1,1130.9,365.1,1130.9,365.2z"/>
			<path id="Trazado_2265" class="st1" d="M1125.1,365.1c-0.3,0-0.3-0.3-0.3-0.5c0-0.2-0.1-0.5-0.1-0.7c0-0.7-0.1-1.5-0.1-2.2
				c0-0.1,0.1-0.2,0.2-0.2c0,0,0,0,0,0c0.4,0.1,0.3,2,0.3,2.4c0,0.2,0,0.5,0,0.7C1125.3,364.7,1125.4,365.1,1125.1,365.1z"/>
			<path id="Trazado_2266" class="st1" d="M1129.2,365.4c-0.3,0-0.3-0.4-0.3-0.7c0-0.3-0.1-0.6-0.1-0.9c-0.1-0.6-0.1-1.3-0.2-1.9
				c-0.1-0.2-0.1-0.5,0-0.7c0.1-0.1,0.2-0.1,0.3-0.1c0.1,0,0.1,0.1,0.1,0.1c0.2,0.8,0.2,1.5,0.3,2.3c0,0.4,0,0.7,0.1,1.1
				C1129.4,364.9,1129.5,365.3,1129.2,365.4z"/>
			<path id="Trazado_2267" class="st1" d="M1124.2,362c-0.1-0.1-0.2-0.2-0.2-0.3c0-0.1,0-0.3,0-0.4c0-0.2,0-0.5,0.2-0.5
				c0.2,0,0.4-0.1,0.6-0.1c0.9-0.1,1.8-0.2,2.7-0.2c0.5,0,1.1,0,1.6-0.1c0.2,0,0.3,0.2,0.3,0.4c0,0.1,0,0.3,0,0.4
				c0.1,0.1,0,0.3-0.1,0.4c-0.1,0-0.1,0-0.2,0c-0.2,0-0.4,0-0.6,0.1c-0.9,0.2-1.9,0.2-2.8,0.3c-0.1,0.1-0.3,0.1-0.4,0.1
				c-0.2,0-0.4,0-0.7,0C1124.4,362,1124.3,362,1124.2,362z M1124.5,361.5L1124.5,361.5l0.3,0c0.1,0,0.1-0.1,0.2-0.1
				c0.2,0,0.3-0.1,0.5-0.1c0.5-0.1,0.9-0.1,1.4-0.1c0.7-0.1,1.4-0.2,2.1-0.2c0,0,0-0.1,0-0.1c-0.7,0-1.5,0.1-2.2,0.1
				c-0.8,0.1-1.5,0.1-2.3,0.3C1124.5,361.3,1124.5,361.4,1124.5,361.5z"/>
			<path id="Trazado_2268" class="st1" d="M1125.6,362.6c-0.2-0.1-0.3-0.4,0-0.5c0.1,0,0.3,0,0.4,0c0.1,0,0.2,0.1,0.2,0.2
				c0,0.1,0,0.2-0.1,0.2C1125.9,362.6,1125.8,362.6,1125.6,362.6z"/>
			<path id="Trazado_2269" class="st1" d="M1126.8,362.4l0.1-0.1l-0.2-0.3c0.1-0.1,0.2-0.1,0.3-0.1c0.1,0,0.2,0,0.2,0
				c0.1,0,0.2,0.2,0.2,0.3c0,0,0,0.1-0.1,0.1c-0.1,0-0.2,0-0.2,0.1C1127,362.4,1126.9,362.4,1126.8,362.4z"/>
			<path id="Trazado_2270" class="st1" d="M1126.9,362.4C1126.9,362.4,1126.9,362.4,1126.9,362.4c-0.1,0-0.2,0-0.2,0
				c-0.1,0-0.2-0.2-0.2-0.3c0,0,0,0,0,0c0-0.2,0.3-0.2,0.4-0.1c0.2,0,0.3,0.1,0.3,0.3c0,0,0,0.1,0,0.1
				C1127.1,362.4,1127,362.5,1126.9,362.4z"/>
			<path id="Trazado_2271" class="st1" d="M1127.7,362.2c-0.1-0.1,0-0.2,0.1-0.3c0,0,0.1,0,0.1,0c0.1,0,0.2-0.1,0.3,0
				c0.1,0.1,0.1,0.4-0.1,0.4c-0.1,0-0.2,0-0.3,0C1127.8,362.4,1127.7,362.3,1127.7,362.2z"/>
			<path id="Trazado_2272" class="st1" d="M1125,360.8c-0.2-0.1-0.1-0.3-0.1-0.5c0-0.2-0.1-0.5,0.2-0.5c0.4,0,0.9,0,1.3-0.2
				c0.5-0.1,1.1-0.1,1.6-0.2c0.1,0,0.1,0,0.2,0c0.3,0,0.3,0.3,0.3,0.5c0,0.2,0.1,0.6-0.2,0.7c-0.4,0-0.3-0.5-0.3-0.8
				c-0.4,0.1-0.8,0.1-1.2,0.2c-0.5,0.1-1,0.2-1.6,0.2c0,0.1,0,0.2,0,0.3c0,0.1-0.1,0.2-0.2,0.2
				C1125.1,360.8,1125.1,360.8,1125,360.8z"/>
			<path id="Trazado_2273" class="st1" d="M1125.9,360c-0.1-0.1-0.2-0.2-0.1-0.3c0-0.2,0-0.5-0.1-0.7c0-0.4,0.5-0.3,0.5,0.1
				c0,0.3,0,0.5,0,0.8C1126.2,359.9,1126,360,1125.9,360z"/>
			<path id="Trazado_2274" class="st1" d="M1069.5,358c0,0.2,0,0.4-0.2,0.4l0,0.1c0,0-0.1,0.1-0.1,0.1c-0.1,0-0.1,0.1-0.2,0.1
				c-0.1,0-0.1,0.1-0.2,0.1c-0.3,0.1-0.7,0.1-1,0.1c-1,0.1-2.1,0.2-3.1,0.4c-2.1,0.3-4.2,0.4-6.3,0.7c-0.5,0-1.1,0.1-1.6,0.1
				c-0.4,0-0.8,0.1-1.1,0.1c-0.2,0-0.3-0.2-0.3-0.4c-0.1-0.8-0.1-1.5-0.2-2.3c0-0.3-0.1-0.6-0.2-0.9c0,0,0-0.1,0-0.1
				c0,0,0-0.1,0-0.1c0-0.2,0.1-0.3,0.2-0.4c0.2-0.3,0.5-0.6,0.8-0.8c0.7-0.7,1.4-1.4,2.2-2c0.4-0.3,0.8-0.7,1.1-1.1
				c0.1-0.1,0.1-0.2,0.3-0.2c0.4,0,0.6,1.8,0.6,2.1c0.7-0.6,1.5-1.1,2.2-1.6c0.5-0.3,1.1-0.6,1.6-1c0.1-0.1,0.1-0.1,0.2-0.2
				c0,0,0,0,0,0c0.1-0.2,0.3,0,0.4,0.1c0.1,0.5,0.2,1,0.2,1.5c1-0.6,2-1.2,3-1.8c0.2-0.1,0.4-0.3,0.6-0.4c0.1,0,0.1-0.1,0.2-0.1
				c0.1,0,0.2,0.1,0.2,0.2l0,0c0.1,0,0.2,0.1,0.2,0.2c0,0,0,0,0,0c0.1,1.1,0.2,2.2,0.3,3.2c0.1,0.8,0.1,1.7,0.2,2.5
				C1069.4,357.1,1069.5,357.6,1069.5,358z"/>
			<path id="Trazado_2275" class="st1" d="M1055.4,359.5c-0.1-0.6-0.1-1.2-0.2-1.7c-0.1-0.4-0.1-0.8-0.2-1.2c0-0.2-0.1-0.3,0-0.5
				c0.1-0.2,0.4,0,0.4,0.2c0.2,1,0.3,2.1,0.4,3.1C1055.8,359.8,1055.5,359.8,1055.4,359.5z"/>
			<path id="Trazado_2276" class="st1" d="M1069.4,358.4c-0.3,0-0.3-0.3-0.2-0.5c-0.1-0.8-0.2-1.7-0.2-2.5c0-0.6-0.1-1.3-0.1-1.9
				c-0.1-0.3-0.1-0.6-0.1-0.9c-0.1-0.5,0-1-0.1-1.6c-0.1,0.2-0.3,0.3-0.5,0.4c-0.1,0-0.2-0.1-0.2-0.3c0-0.1,0-0.1,0.1-0.2
				c0,0,0.1-0.1,0.1-0.1c0.2-0.1,0.3-0.3,0.5-0.5c0.1-0.1,0.1-0.1,0.2,0c0.2,0.1,0.2,0.4,0.3,0.6c0.1,0.5,0.1,0.9,0.1,1.4
				c0,0.5,0.1,1,0.2,1.5c0,0.4,0.1,0.8,0.1,1.2c0,0.7,0,1.3,0.1,2c0,0.3,0.1,0.6,0.1,0.9C1069.6,358,1069.6,358.4,1069.4,358.4z"/>
			<path id="Trazado_2277" class="st1" d="M1064.5,353.3c-0.1-0.2,0.2-0.4,0.3-0.5c0.1-0.1,0.2-0.1,0.3-0.2c0.6-0.4,1.2-0.8,1.9-1.3
				c0.4-0.3,0.8-0.5,1.1-0.8c0.2-0.1,0.3-0.2,0.5-0.2c0.1,0,0.2,0.2,0.2,0.3c0,0,0,0,0,0.1c0,0.1-0.1,0.1-0.2,0.1
				c-0.8,0.5-1.6,1.1-2.4,1.6c-0.3,0.2-0.6,0.4-1,0.6c-0.2,0.1-0.3,0.2-0.5,0.3C1064.7,353.4,1064.6,353.3,1064.5,353.3z"/>
			<path id="Trazado_2278" class="st1" d="M1059.6,354.4c-0.2-0.3,0.2-0.4,0.4-0.6c0.7-0.5,1.4-0.9,2.1-1.4c0.6-0.5,1.3-0.9,2-1.2
				c0.2-0.1,0.4-0.2,0.6,0c0.1,0.1,0.1,0.2,0,0.3c0,0-0.1,0-0.1,0c-1.1,0.6-2.2,1.3-3.3,2.1c-0.3,0.2-0.7,0.5-1,0.7
				C1060,354.4,1059.8,354.6,1059.6,354.4z"/>
			<path id="Trazado_2279" class="st1" d="M1055.4,359.6c-0.2-0.8-0.3-1.5-0.3-2.3c-0.1-0.3-0.1-0.5-0.1-0.8c0-0.3-0.2-0.6,0-0.8
				c0.6-0.6,1.2-1.2,1.8-1.8c0.8-0.7,1.6-1.5,2.5-2.2c0.1-0.1,0.2-0.1,0.3,0c0.1,0.1,0.1,0.2,0,0.3c-0.1,0.1-0.2,0.1-0.2,0.2
				c-0.7,0.6-1.4,1.2-2.1,1.8c-0.3,0.3-0.6,0.5-1,0.8c-0.3,0.3-0.5,0.5-0.8,0.8c-0.1,0.1-0.2,0.2-0.2,0.3c0.1,0.5,0.1,0.9,0.2,1.4
				c0.1,0.5,0.1,1,0.1,1.5c0,0.2,0.2,0.7,0,0.8C1055.6,359.8,1055.5,359.7,1055.4,359.6z"/>
			<path id="Trazado_2280" class="st1" d="M1060.1,354.1c-0.2,0-0.2-0.3-0.2-0.4c0-0.3-0.1-0.6-0.2-0.8c-0.1-0.3-0.2-0.7-0.3-1.1
				c0-0.1,0.1-0.1,0.2-0.1c0,0,0.1,0,0.1,0.1C1059.9,352,1060.6,354.1,1060.1,354.1z"/>
			<path id="Trazado_2281" class="st1" d="M1064.7,353.4c-0.1,0-0.2-0.1-0.2-0.2c0-0.4-0.1-0.7-0.1-1.1c0-0.2,0-0.4-0.1-0.6
				c0-0.2-0.1-0.4,0.1-0.5c0.1,0,0.2,0.1,0.2,0.2c0,0,0,0.1,0,0.1c0.1,0.4,0.1,0.9,0.2,1.3C1064.9,352.9,1065,353.3,1064.7,353.4z"
				/>
			<path id="Trazado_2282" class="st2" d="M1061.6,353.2c-0.3-0.1-0.2-0.4-0.2-0.6c0-0.4-0.1-0.9-0.1-1.3c0-0.7-0.1-1.4-0.1-2.2
				c0-0.9-0.1-1.7-0.2-2.6c0-0.1,0-0.2,0.1-0.3c0.1-0.1,0.3,0,0.3,0.2c0.2,0.8,0.3,1.5,0.3,2.3c0,0.6,0.1,1.3,0.1,1.9
				c0,0.4,0,0.7,0,1.1C1061.7,352,1062.1,353.3,1061.6,353.2z"/>
			<path id="Trazado_2283" class="st1" d="M1061.6,353.4c-0.4,0-0.2-0.7-0.3-1c-0.1-1-0.1-2-0.1-3c0-0.9-0.1-1.8-0.1-2.7
				c0-0.1,0-0.3,0-0.4c0-0.1,0-0.2,0.1-0.3c0.1-0.1,0.2-0.1,0.3,0c0,0,0,0,0,0c0.1,0.1,0.1,0.3,0.1,0.4c0,0.3,0,0.6,0,0.9
				c0.1,1,0.1,2,0.2,3c0,0.7,0,1.3,0.1,2c0,0.2,0,0.4,0,0.6C1061.8,353.1,1061.8,353.4,1061.6,353.4z"/>
			<path id="Trazado_2284" class="st1" d="M1062.7,352.7c-0.1-0.1-0.1-0.2-0.1-0.3c0-0.2-0.1-0.5-0.1-0.7c0-0.5-0.1-1-0.1-1.4
				c0-0.5-0.1-1-0.1-1.5c-0.1-0.9-0.1-1.9-0.3-2.8c-0.2,0-0.4,0.1-0.5,0.1c0,0.2,0,0.4,0,0.7c0,0.1,0,0.2-0.1,0.3c0,0,0,0,0,0
				c-0.3,0-0.3-0.4-0.3-0.7c0-0.2,0-0.4-0.1-0.6c0-0.2,0.1-0.3,0.3-0.3c0.2,0,0.5-0.1,0.7-0.1c0.1-0.1,0.3,0.1,0.3,0.2
				c0,0.2,0.1,0.4,0.1,0.5c0.2,1,0.2,1.9,0.3,2.9c0.1,0.6,0.1,1.2,0.1,1.8c0,0.5,0.1,1,0.1,1.4c0,0.1,0,0.2,0,0.3
				C1063,352.8,1062.8,352.8,1062.7,352.7C1062.7,352.8,1062.7,352.8,1062.7,352.7z"/>
			<path id="Trazado_2285" class="st1" d="M1065.9,352.5c-0.1-0.3-0.1-0.5-0.1-0.8c0-0.5,0-0.9-0.1-1.4c-0.1-1-0.1-1.9-0.2-2.9
				c0-0.7-0.1-1.3-0.2-2c0-0.1,0-0.2,0-0.3c0.1-0.2,0.3-0.1,0.4,0.1l0,0c0.2,1.8,0.4,3.6,0.4,5.4c0,0.6,0,1.3,0,1.9
				C1066.3,352.7,1066,352.7,1065.9,352.5z"/>
			<path id="Trazado_2286" class="st1" d="M1067.4,352.1c-0.3-0.1-0.2-0.5-0.3-0.7c0-0.4-0.1-0.8-0.1-1.2c0-0.4,0-0.8,0-1.2
				c0-0.5-0.1-1-0.1-1.5c0-0.7-0.1-1.4-0.2-2.1c-0.2,0-0.4,0-0.7,0c-0.3,0-0.5,0-0.5-0.4c0-0.1,0.1-0.2,0.2-0.1c0,0,0,0,0,0
				c0.2,0,0.5,0,0.7,0c0.1,0,0.3-0.1,0.4,0c0.1,0.2,0.2,0.4,0.2,0.6c0.1,0.8,0.1,1.5,0.2,2.3c0.1,0.7,0.1,1.4,0.1,2.1
				c0,0.5,0.1,1,0.1,1.5C1067.6,351.7,1067.7,352.1,1067.4,352.1z"/>
			<path id="Trazado_2287" class="st1" d="M1058.1,353.8c-0.4,0-0.2-0.7-0.3-1c-0.1-1-0.1-2-0.2-2.9c-0.1-1-0.1-2-0.2-3
				c0-0.2-0.1-0.4,0.1-0.5c0.1,0,0.3,0.1,0.3,0.2l0,0c0.2,1.7,0.3,3.5,0.4,5.2c0,0.4,0.1,0.8,0.1,1.2
				C1058.2,353.3,1058.4,353.8,1058.1,353.8z"/>
			<path id="Trazado_2288" class="st4" d="M1056.6,355.5c-0.2-0.1-0.2-0.3-0.2-0.5c0-0.2-0.1-0.5-0.1-0.7c0-1-0.1-2-0.1-3
				c0-0.8-0.1-1.7-0.1-2.4c-0.1-0.8,0-1.5,0.1-2.3c0-0.1,0.1-0.2,0.2-0.2c0.1-0.1,0.3-0.1,0.4-0.1c0.2,0,0.7-0.2,0.7,0.2
				c0,0.1,0,0.2-0.1,0.3c0,0,0,0-0.1,0c-0.3,0.1-0.5,0.1-0.8,0.2c-0.1,1.4-0.1,2.7,0,4.1c0,1,0,2,0,3c0,0.3,0.1,0.7,0.1,1
				C1056.9,355.1,1056.9,355.5,1056.6,355.5z"/>
			<path id="Trazado_2289" class="st1" d="M1037,301.9c-0.1,0-0.1-0.1-0.1-0.2c-0.1-0.1-0.2-0.3-0.3-0.4c-0.3-0.4-0.6-0.8-0.9-1.2
				c-0.4-0.4-0.8-0.9-1.1-1.4c-0.1-0.2,0-0.3,0.1-0.4c0.1-0.1,0.3-0.3,0.4-0.4c0.2-0.2,0.4-0.7,0.8-0.4c0.2,0.2,0.5,0.3,0.8,0.4
				c0.5,0.3,1,0.5,1.5,0.7c0.3,0.2,0.2,0.6-0.2,0.4c-0.4-0.1-0.8-0.3-1.2-0.5c-0.4-0.2-0.7-0.4-1-0.6c-0.2,0.2-0.4,0.5-0.7,0.7
				c0.3,0.4,0.6,0.8,1,1.2c0.4,0.5,0.8,1.1,1.2,1.7c0.9-0.5,1.7-1.1,2.5-1.6c0.6-0.5,1.3-0.9,2-1.3c0.7-0.5,1.3-1,2-1.5
				c1.3-0.9,2.6-1.9,4-2.8c1.9-1.2,3.7-2.6,5.4-4.1c0.1-0.1,0.2-0.2,0.3-0.3c0.1-0.1,0.3-0.4,0.5-0.2c0.1,0.1,0.1,0.1,0.1,0.2
				c-0.1,0.3-0.3,0.4-0.5,0.6c-0.2,0.2-0.4,0.4-0.6,0.6c-2,1.9-4.4,3.2-6.6,4.9c-0.6,0.5-1.3,0.9-2,1.4s-1.3,1-2,1.5
				c-0.4,0.3-0.9,0.6-1.4,0.9c-0.4,0.3-0.9,0.6-1.3,0.9c-0.7,0.4-1.3,0.8-2,1.2C1037.4,301.9,1037.2,302.1,1037,301.9z"/>
			<path id="Trazado_2290" class="st1" d="M1038.1,299c-0.1,0-0.3-0.1-0.2-0.3c0,0,0,0,0,0c0.1-0.2,0.3-0.3,0.4-0.4
				c0.3-0.3,0.7-0.5,1-0.8c1.7-1.5,3.5-2.9,5.3-4.2c1.2-0.9,2.4-1.8,3.6-2.6c1-0.7,2-1.4,3.2-1.8c0.6-0.3,1.4-0.4,2.1-0.3
				c0.3,0.1,0.6,0.4,0.6,0.7c0,0.2-0.1,0.4-0.3,0.6c0,0.1-0.1,0.1-0.2,0.2c-0.1,0.1-0.3,0-0.3-0.1c0-0.1,0-0.1,0-0.2
				c0.1-0.2,0.2-0.3,0.3-0.5c0-0.1,0.1-0.1,0-0.2c-0.6-0.6-2.2,0.2-2.9,0.5c-2.1,1.3-4.1,2.7-6.1,4.2c-1.2,0.8-2.4,1.8-3.5,2.7
				c-0.6,0.5-1.2,1-1.7,1.5c-0.4,0.3-0.8,0.6-1.2,0.9C1038.2,299,1038.2,299,1038.1,299z"/>
			<path id="Trazado_2291" class="st1" d="M1047.9,302.5c-0.2-0.1-0.2-0.3-0.2-0.5c-0.1-0.3-0.1-0.7-0.2-1c-0.2-0.9-0.4-1.8-0.5-2.7
				c-0.1-0.5-0.2-0.9-0.3-1.4c-0.1-0.3-0.2-0.7-0.3-1c0-0.1-0.1-0.2,0-0.4c0.1-0.1,0.2-0.1,0.3-0.1c0,0,0,0,0.1,0.1
				c0,0,0.1,0.1,0.1,0.2c0.1,0.3,0.2,0.5,0.2,0.8c0.1,0.3,0.2,0.6,0.2,0.9c0.1,0.5,0.3,1.1,0.3,1.6c0.2,1,0.4,2,0.6,3
				c0.5-0.1,0.9-0.4,1.4-0.5c-0.2-0.9-0.3-1.8-0.4-2.7c0-0.6,0-1.1-0.1-1.7c-0.1-0.8-0.2-1.6-0.3-2.4c0-0.1,0-0.3-0.1-0.4
				c0-0.1,0-0.2,0-0.3c0.2-0.2,0.5,0.1,0.4,0.4c0.1,0.4,0.1,0.8,0.2,1.3c0.1,0.6,0.2,1.2,0.2,1.8c0.1,0.7,0,1.3,0.1,2
				c0.1,0.7,0.2,1.4,0.3,2.1c0,0.1,0,0.2,0,0.3c0,0.1-0.1,0.1-0.2,0.1c-0.3,0.1-0.6,0.3-1,0.4
				C1048.5,302.4,1048.2,302.5,1047.9,302.5z"/>
			<path id="Trazado_2292" class="st1" d="M1045.1,293c-0.6-0.8-1.3-1.5-1.9-2.3c-0.2-0.3-1.3-1.1-0.9-1.4c0.3-0.3,0.7-0.6,1-0.9
				c0.2-0.3,0.4-0.1,0.6,0c0.8,0.4,1.6,1,2.3,1.6c0.5,0.4,1,0.7,1.4,1.2c0.2,0.1,0.4,0.3,0.2,0.5c-0.2,0.2-0.4,0-0.5-0.2
				c-0.2-0.2-0.4-0.4-0.7-0.6c-0.4-0.3-0.8-0.6-1.2-0.9c-0.5-0.5-1.1-0.9-1.7-1.2c-0.3,0.3-0.6,0.6-1,0.9c1,1,1.8,2.1,2.7,3.2
				C1045.7,293,1045.3,293.3,1045.1,293z"/>
			<path id="Trazado_2293" class="st1" d="M1049.8,301.8c-0.4-0.1-0.2-0.6-0.2-0.9c-0.1-0.4-0.1-0.9-0.1-1.3
				c-0.1-0.6-0.1-1.3-0.2-1.9c-0.1-1-0.2-1.9-0.3-2.8c0-0.2,0-0.5-0.1-0.7c0-0.2-0.1-0.5,0.2-0.4c0.2,0,0.2,0.3,0.3,0.5
				c0,0.4,0.1,0.7,0.1,1.1c0.1,0.9,0.2,1.8,0.3,2.8c0.1,0.8,0.2,1.7,0.2,2.5c0,0.3,0,0.5,0,0.8
				C1050.1,301.5,1050.1,301.8,1049.8,301.8z"/>
			<path id="Trazado_2294" class="st1" d="M1047.3,291.3c-0.4-0.4-0.8-0.8-1.3-1.1c-0.7-0.5-1.4-1-2.1-1.5c-0.1-0.1-0.2-0.1-0.2-0.3
				c0-0.1,0.1-0.2,0.2-0.2c0.1,0,0.1,0,0.1,0c0.5,0.4,1.2,0.7,1.6,1.2c0.7,0.5,1.3,1,1.9,1.6
				C1047.8,291.2,1047.5,291.5,1047.3,291.3z"/>
			<path id="Trazado_2295" class="st1" d="M1040.2,298.4c-0.2-0.2,0.1-0.4,0.2-0.4s0.4,0.2,0.2,0.3c0,0-0.1,0.1-0.1,0.1
				C1040.5,298.6,1040.3,298.5,1040.2,298.4z"/>
			<path id="Trazado_2296" class="st1" d="M1041.2,297.8c-0.2-0.1-0.2-0.3,0-0.4c0.2-0.1,0.3-0.3,0.5-0.1c0.1,0.1,0.1,0.2,0,0.3
				C1041.5,297.7,1041.4,297.9,1041.2,297.8z"/>
			<path id="Trazado_2297" class="st1" d="M1042.2,296.7c0-0.2,0.3-0.3,0.4-0.3c0.2-0.1,0.4,0.2,0.2,0.4
				C1042.6,296.8,1042.3,297.1,1042.2,296.7z"/>
			<path id="Trazado_2298" class="st1" d="M1043.5,295.8c-0.1-0.2,0.1-0.3,0.3-0.4c0.1-0.1,0.2-0.1,0.3,0c0,0,0,0,0,0
				c0.1,0.1,0,0.3-0.1,0.3C1043.8,295.9,1043.6,296,1043.5,295.8z"/>
			<path id="Trazado_2299" class="st1" d="M1044.8,295.2c-0.1,0-0.2-0.3-0.1-0.4c0.2-0.1,0.4-0.3,0.5-0.1c0.1,0.1,0.1,0.2,0,0.3
				C1045.1,295,1045,295.2,1044.8,295.2z"/>
			<path id="Trazado_2300" class="st1" d="M1045.8,294.1c0-0.2,0.2-0.2,0.4-0.3c0.2-0.1,0.5,0.2,0.3,0.4c-0.1,0.1-0.3,0.2-0.4,0.2
				C1045.9,294.3,1045.8,294.2,1045.8,294.1C1045.8,294.1,1045.8,294.1,1045.8,294.1z"/>
			<path id="Trazado_2301" class="st1" d="M1046.9,293.5c-0.2-0.2,0.1-0.4,0.3-0.4c0.2-0.1,0.4,0.2,0.2,0.3
				C1047.3,293.5,1047,293.7,1046.9,293.5z"/>
			<path id="Trazado_2302" class="st1" d="M1048,292.6c-0.1-0.2,0-0.3,0.2-0.3c0.1-0.1,0.3-0.2,0.4,0c0.1,0.2,0,0.3-0.2,0.4
				C1048.3,292.7,1048.1,292.8,1048,292.6z"/>
			<path id="Trazado_2303" class="st1" d="M1049.4,291.9c-0.1,0-0.2-0.2-0.2-0.3c0.1-0.1,0.3-0.2,0.4-0.2c0.2-0.1,0.4,0.2,0.3,0.3
				C1049.7,291.8,1049.6,291.9,1049.4,291.9z"/>
			<path id="Trazado_2304" class="st1" d="M1050.3,290.9c0-0.2,0.2-0.2,0.3-0.3c0.2,0,0.3,0.2,0.2,0.3c-0.1,0.1-0.2,0.1-0.3,0.2
				C1050.5,291.2,1050.3,291.1,1050.3,290.9z"/>
			<path id="Trazado_2305" class="st1" d="M1051.3,290.5c-0.1-0.1-0.2-0.3,0-0.3c0.2-0.1,0.4-0.3,0.5-0.6c0-0.1,0-0.2,0-0.2
				c0-0.1-0.1-0.2,0-0.2c0-0.1,0.2-0.1,0.3-0.1c0.1,0.1,0.1,0.2,0.1,0.3c0,0.4-0.2,0.8-0.5,1
				C1051.6,290.4,1051.5,290.6,1051.3,290.5z"/>
			<path id="Trazado_2306" class="st1" d="M1046.9,298.3c-0.4-0.2-0.6-0.6-0.5-1c0-0.2,0.2-0.4,0.4-0.3c0.2,0,0.3,0.2,0.3,0.4
				c0,0.2-0.2,0.2-0.3,0.1c0,0,0,0.1,0,0.1c0.2,0,0.3,0.3,0.3,0.4C1047.1,298.1,1047,298.3,1046.9,298.3z"/>
			<path id="Trazado_2307" class="st1" d="M1049.3,296.7c-0.3-0.2,0-0.6,0.1-0.9c-0.1,0-0.1-0.1-0.1-0.2c-0.1-0.3,0.4-0.3,0.6-0.2
				c0.1,0.1,0.3,0.2,0.3,0.3c0.1,0.3-0.2,0.6-0.4,0.8C1049.7,296.8,1049.5,296.9,1049.3,296.7z"/>
			<path id="Trazado_2308" class="st1" d="M1047.2,301.1c-0.3-0.1-0.5-0.5-0.4-0.8c0.1-0.2,0.2-0.6,0.5-0.5c0.2,0.1,0.2,0.4,0,0.4
				l0,0c0.2,0.1,0.2,0.3,0.2,0.5C1047.6,301.1,1047.4,301.2,1047.2,301.1z"/>
			<path id="Trazado_2309" class="st1" d="M1049.6,299.7c0.1-0.2,0.1-0.4,0.2-0.6c0,0,0-0.1,0-0.1v0c-0.2-0.2-0.1-0.4,0.2-0.5
				c0.5-0.2,0.8,0.5,0.5,0.9c-0.1,0.2-0.3,0.4-0.4,0.5c0,0.1-0.1,0.1-0.1,0.1C1049.7,300.1,1049.5,299.9,1049.6,299.7z"/>
			<path id="Trazado_2310" class="st1" d="M1044.1,292.6c-0.1-0.2,0.1-0.9,0.4-0.8c0.1,0.1,0.2,0.2,0.2,0.3c0.2,0,0.5,0.2,0.4,0.4
				c0,0.1-0.1,0.1-0.2,0.1C1044.5,292.8,1044.2,292.9,1044.1,292.6z"/>
			<path id="Trazado_2311" class="st1" d="M1046.8,290.5c0,0-0.1-0.1-0.1-0.1c-0.1,0-0.3,0-0.3-0.2c0,0,0-0.1,0-0.1
				c0-0.1,0.1-0.1,0.2-0.2c0.1,0,0.2-0.1,0.3,0c0.2,0,0.4,0.2,0.3,0.5c0,0,0,0,0,0C1047.2,290.6,1047,290.7,1046.8,290.5z"/>
			<path id="Trazado_2312" class="st1" d="M1043.4,291.3c-0.3,0-0.5-0.2-0.5-0.4c0-0.1,0-0.1,0-0.2c0-0.1,0.1-0.3,0.1-0.4
				c0.2-0.1,0.5,0.2,0.3,0.4l0,0l0,0C1043.8,290.6,1044,291.3,1043.4,291.3L1043.4,291.3z"/>
			<path id="Trazado_2313" class="st1" d="M1045.3,289.3c0,0-0.1-0.1-0.1-0.1c-0.1,0-0.3-0.1-0.3-0.2c0-0.2,0.3-0.3,0.4-0.3
				c0.2,0,0.4,0.2,0.4,0.4c0,0.1-0.1,0.3-0.2,0.3C1045.4,289.4,1045.4,289.4,1045.3,289.3z"/>
			<path id="Trazado_2314" class="st1" d="M1159.6,300.5c-1-0.1-2-0.5-2.7-1.2c-0.5-0.5-0.8-1-1.1-1.6c-0.3,1-1.1,1.8-2.1,2.1
				c-0.8,0.3-1.6,0.3-2.4,0.1c-0.5-0.1-0.9-0.4-1.2-0.7c-0.4-0.5-0.7-1.1-0.9-1.6c-0.7,1.6-2.5,2.3-4.1,2.4c-0.6,0.1-1.1,0-1.7-0.2
				c-0.7-0.2-1.3-0.7-1.6-1.4c-0.2-0.4-0.3-0.9-0.2-1.4c-0.9,0.1-1.9-0.2-2.5-0.9c-0.8-0.8-1-2-0.6-3.1c0.6-1,1.5-1.7,2.7-1.9
				c1-0.3,2.1,0,2.9,0.7c0-0.4,0.1-0.8,0.3-1.1c0.3-0.6,0.9-1.1,1.5-1.3c0.4-0.1,0.9-0.1,1.3,0c0.6,0.2,1.1,0.6,1.3,1.3
				c0.3-0.6,0.7-1.1,1.2-1.5c0.5-0.4,1-0.6,1.6-0.8c1-0.3,2-0.3,3,0c1.2,0.4,2.1,1.5,2.2,2.8c1.1-1.9,3.7-2,5.5-1
				c1.5,0.7,2.7,2,1.9,3.8c0.9,0.3,1.6,1.1,1.7,2.1c0.1,0.9-0.1,1.8-0.6,2.6c-0.3,0.5-0.8,0.9-1.2,1.2
				C1162.5,300.3,1161.1,300.7,1159.6,300.5z M1159.9,300.1c1.2,0,2.4-0.2,3.4-0.8c0.5-0.3,1-0.8,1.3-1.3c0.4-0.5,0.6-1.2,0.6-1.9
				c0-0.4-0.1-0.8-0.2-1.2c-0.2-0.4-0.8-0.9-1.2-0.9c-0.1,0.2-0.3,0.2-0.4,0c0-0.1,0-0.2,0-0.3c0.1-0.2,0.1-0.3,0.2-0.5
				c0.4-1.2-0.2-2.1-1.2-2.7c-1.6-1-4-1.4-5.4,0.2c-0.2,0.2-0.3,0.5-0.4,0.8c0,0.1-0.1,0.4-0.3,0.4c-0.2-0.1-0.2-0.3-0.2-0.5
				c0-0.2,0-0.4-0.1-0.6c-0.1-0.7-0.5-1.4-1-1.9c-0.7-0.4-1.5-0.7-2.3-0.6c-0.8,0-1.6,0.2-2.3,0.6c-0.6,0.3-1.1,0.8-1.5,1.4
				c-0.2,0.2-0.3,0.5-0.3,0.8c0,0.1,0,0.2-0.1,0.3c0,0.1-0.1,0.1-0.2,0.1c0,0,0,0-0.1-0.1c-0.1-0.1-0.1-0.2-0.1-0.3
				c0.1-0.7-0.3-1.4-1-1.6c-1-0.3-2.1,0.1-2.5,1.1c-0.2,0.3-0.3,0.7-0.3,1.1c0,0.2,0,0.4,0,0.6c-0.1,0.1-0.3,0.1-0.3-0.1
				c0-0.1-0.1-0.2-0.2-0.3c-0.5-0.5-1.2-0.7-1.9-0.7c-1,0.1-1.9,0.5-2.6,1.1c-0.8,0.8-0.9,2.1-0.2,3c0.5,0.5,1.1,0.9,1.8,0.9
				c0.7,0.1,1.3-0.2,1.6-0.8c0.1-0.3,0.4-0.2,0.4,0.1c-0.1,0.5-0.5,0.8-0.9,1c0,0.1,0,0.1-0.1,0.1c0,0.3,0,0.6,0,0.9
				c0.1,0.4,0.3,0.7,0.6,0.9c0.3,0.2,0.6,0.4,0.9,0.5c0.7,0.3,1.4,0.3,2.1,0.1c1.5-0.2,3.1-1.1,3.4-2.7c0-0.3,0.4-0.3,0.4,0
				c0,0.4,0.1,0.8,0.2,1.1c0.3,0.6,0.7,1.4,1.4,1.6c0.9,0.3,1.9,0.2,2.8-0.2c0.9-0.4,1.5-1.2,1.6-2.2c0-0.2,0.1-0.3,0.3-0.2
				c0.1,0.1,0.1,0.1,0.1,0.2c0.1,0.4,0.3,0.7,0.5,1.1C1157.2,299.3,1158.5,300.1,1159.9,300.1L1159.9,300.1z"/>
			<path id="Trazado_2315" class="st1" d="M1074.4,283.4c-0.5-0.2-1-0.5-1.3-0.9c0,0,0,0,0,0c0,0,0,0-0.1,0c-0.5,0.7-1.4,1-2.2,0.8
				c-0.4-0.1-0.7-0.2-1-0.5c-0.8-0.5-1.2-1.4-0.9-2.3c0.6-1.2,2.2-1.7,3.4-1.1c0.1,0.1,0.2,0.1,0.3,0.2c0.7-1.6,2.4-2.6,4.1-2.4
				c0.7,0,1.4,0.3,2,0.6c0.1,0.6,0.6,0.9,1.2,0.8s0.9-0.6,0.8-1.2c0-0.1,0-0.2-0.1-0.3c0.6-0.3,1.2-0.4,1.8-0.4
				c0.8,0,1.5,0.1,2.2,0.4c0.5,0.2,0.9,0.5,1.2,0.9c0.8,1,0.6,2.5-0.4,3.3c-0.3,0.2-0.6,0.4-1,0.4c-0.7,0.2-1.4,0.2-2,0
				c-0.2,1.2-1.7,1.6-2.8,1.4c-0.6-0.2-1.1-0.6-1.5-1.1c-0.3,0.6-0.9,1.1-1.6,1.2C1075.9,283.7,1075.1,283.6,1074.4,283.4z
				 M1076.1,283.1c0.7,0,1.4-0.5,1.7-1.1c0-0.1,0.1-0.3,0.2-0.3c0.1,0,0.2,0,0.2,0.1c0.3,0.4,0.6,0.7,1,0.9c0.4,0.2,0.8,0.3,1.3,0.2
				c0.7-0.1,1.6-0.5,1.6-1.3c0-0.1,0-0.1,0.1-0.2c0.1,0,0.2,0,0.3,0.1c0.1,0.1,0.3,0.1,0.5,0.2c1.1,0.2,2.1-0.2,2.8-1.1
				c0.6-0.9,0.3-2.2-0.7-2.7c-0.1-0.1-0.3-0.1-0.4-0.2c-0.7-0.3-1.5-0.4-2.2-0.4c-0.5,0.1-1,0.2-1.4,0.3c-0.6,0.3-1,0.7-1.3,1.3
				c-0.1,0.3-0.3,0.4-0.5,0.1c-0.3-0.4-0.5-0.9-1.1-1c-1.1-0.4-2.4-0.4-3.5,0.1c-0.6,0.3-1.1,0.8-1.4,1.4c-0.1,0.1-0.1,0.3-0.2,0.4
				c0,0.2-0.1,0.4-0.4,0.3c-0.9-0.8-2.2-0.8-3.1,0.1c-0.1,0.1-0.2,0.2-0.3,0.4c-0.2,0.4-0.1,0.8,0.1,1.1c0.2,0.3,0.4,0.5,0.7,0.7
				c0.3,0.2,0.6,0.4,0.9,0.4c0.6,0.1,1.1-0.1,1.6-0.5c0.1-0.1,0.2-0.4,0.4-0.4c0-0.1,0-0.2,0.2-0.3c0.1,0,0.1,0,0.2,0.1
				c0.1,0.1,0.1,0.3,0.2,0.4C1074.2,283,1075.1,283.3,1076.1,283.1L1076.1,283.1z"/>
			<path id="Trazado_2316" class="st2" d="M1057.1,356.5c-0.1-0.1-0.2-0.2-0.1-0.4c0,0,0,0,0,0c0,0,0.1-0.1,0.2-0.1
				c0.2,0,0.3,0,0.5,0c0.3,0,0.3,0.5,0,0.5C1057.6,356.5,1057.3,356.5,1057.1,356.5z"/>
			<path id="Trazado_2317" class="st2" d="M1061.9,355.8c-0.1-0.3,0.1-0.4,0.4-0.4c0.2,0,0.4-0.1,0.5,0c0.1,0.1,0.1,0.3,0,0.4
				c0,0,0,0-0.1,0.1c-0.1,0-0.3,0.1-0.4,0.1C1062.2,355.9,1062,355.9,1061.9,355.8z"/>
			<path id="Trazado_2318" class="st2" d="M1066.6,355.5c-0.1-0.1-0.1-0.3,0-0.4c0,0,0,0,0,0c0.1,0,0.2-0.1,0.3-0.1
				c0.2,0,0.4-0.1,0.5,0s0.1,0.4-0.1,0.4c-0.1,0-0.1,0-0.2,0C1066.9,355.4,1066.7,355.5,1066.6,355.5z"/>
			<path id="Trazado_2319" class="st2" d="M1036.4,320.6c-0.6-0.3-0.2-0.6-0.1-0.3c0.3,0.2,0.7,0.2,1,0c0.1,0,0.1,0,0.2,0
				c0.1,0.2-0.1,0.3-0.3,0.3C1037,320.7,1036.7,320.7,1036.4,320.6z"/>
			<path id="Trazado_2320" class="st2" d="M1037.5,319.6c-0.2,0-0.4,0-0.5-0.2c0-0.1,0-0.1,0.1-0.1c0,0,0.1,0,0.1,0
				c0,0,0.1,0.1,0.1,0.1c0.2,0,0.3,0,0.5,0c0.1,0,0.2,0.2,0.1,0.2C1037.8,319.6,1037.7,319.6,1037.5,319.6z"/>
			<path id="Trazado_2321" class="st2" d="M1040.9,318.3c-0.1-0.2-0.2-0.3-0.4-0.3c-0.1,0.1-0.2-0.1-0.2-0.1c0.1-0.2,0.4-0.1,0.5,0
				s0.4,0.5,0.2,0.6C1041,318.4,1041,318.3,1040.9,318.3z"/>
			<path id="Trazado_2322" class="st2" d="M1051.1,316.9c-0.1,0-0.1-0.1-0.1-0.2c0,0,0-0.1,0.1-0.1c0.2-0.1,0.4-0.3,0.7-0.4
				c0.5-0.3,1-0.6,1.5-0.9c0.8-0.4,1.5-0.9,2.2-1.3c1-0.6,2.1-1.1,3.1-1.6c0.1,0,0.2,0,0.2,0.1c0,0.1,0,0.1,0,0.2
				c-0.1,0.1-0.2,0.1-0.4,0.2c-0.6,0.3-1.2,0.7-1.9,1c-1.3,0.7-2.5,1.4-3.7,2.1c-0.5,0.3-1,0.6-1.5,0.9
				C1051.2,316.9,1051.1,316.9,1051.1,316.9z"/>
			<path id="Trazado_2323" class="st2" d="M1059.6,312.2c-0.1-0.1,0-0.2,0.1-0.3c0.1-0.1,0.3-0.1,0.3,0s-0.1,0.2-0.2,0.2
				C1059.8,312.2,1059.7,312.3,1059.6,312.2z"/>
			<path id="Trazado_2324" class="st2" d="M1062.7,313.8c-0.3,0-0.4-0.7-0.5-0.9c-0.1-0.3-0.3-0.6-0.4-0.9c-0.2-0.3-0.3-0.6-0.5-1
				l-0.2-0.4c0-0.1-0.1-0.2,0-0.2c0-0.1,0.1-0.1,0.2,0c0,0,0,0,0,0c0.2-0.1,0.2,0.1,0.3,0.2c0.1,0.2,0.2,0.4,0.3,0.5
				c0.2,0,0.2,0.2,0.3,0.3c0.1,0.3,0.3,0.6,0.4,0.8c0.1,0.2,0.2,0.4,0.3,0.6c0,0.1,0.1,0.2,0,0.3c0.1,0.2,0.2,0.3,0.2,0.5
				c0,0.1-0.1,0.1-0.1,0.1c0,0,0,0,0,0C1062.8,313.8,1062.7,313.8,1062.7,313.8z"/>
			<path id="Trazado_2325" class="st2" d="M1040.1,365.5c-0.1-0.3-0.3-0.6-0.4-0.8c-0.1-0.1-0.2-0.3,0-0.4c0.1,0,0.1,0.1,0.1,0.1
				c0.1,0.1,0.1,0.3,0.2,0.4c0.1,0.2,0.2,0.3,0.2,0.5c0,0.1,0.1,0.2,0,0.2C1040.2,365.6,1040.1,365.6,1040.1,365.5z"/>
			<path id="Trazado_2326" class="st2" d="M1041.1,364.2c-0.2,0-0.9-0.1-0.9-0.4c0-0.1,0.1-0.1,0.1-0.1c0,0,0,0,0.1,0
				c0.2,0.1,0.5,0.1,0.7,0.2C1041.2,364,1041.2,364.2,1041.1,364.2z"/>
			<path id="Trazado_2327" class="st2" d="M1048.8,351.6c-0.2,0-0.4-0.1-0.7-0.2c-0.1,0-0.1-0.3,0-0.3c0.2,0.1,0.4,0.1,0.6,0.2
				c0.1,0,0.1,0.1,0.1,0.2C1049,351.6,1048.9,351.6,1048.8,351.6C1048.9,351.6,1048.9,351.6,1048.8,351.6z"/>
			<path id="Trazado_2328" class="st2" d="M1031.4,376.2c-0.2-0.3-0.3-0.6-0.5-0.8c-0.1-0.1-0.1-0.1-0.1-0.2c0-0.2,0.3,0,0.3,0.1
				c0.2,0.3,0.4,0.6,0.5,0.8C1031.6,376.2,1031.5,376.4,1031.4,376.2z"/>
			<path id="Trazado_2329" class="st2" d="M1151.3,315.4c-0.1,0-0.2,0-0.3-0.1c-0.1,0-0.2-0.2-0.1-0.3c0,0,0.1,0,0.1,0
				c0.2,0,0.4,0.1,0.6,0.1c0.1,0,0.1,0.1,0.1,0.1C1151.8,315.4,1151.4,315.4,1151.3,315.4z"/>
			<path id="Trazado_2330" class="st2" d="M1151.5,315.9c-0.2,0-0.5,0-0.4-0.3c0.1-0.1,0.2,0,0.3,0c0.1,0,0.3,0,0.4,0
				c0.1,0,0.1,0,0.1,0.1C1152,315.9,1151.6,315.9,1151.5,315.9z"/>
			<path id="Trazado_2331" class="st2" d="M1154.8,317.3c0-0.1-0.2-0.3,0-0.4c0.1,0,0.2,0,0.2,0.1c0,0.1,0,0.1,0.1,0.2
				C1155,317.4,1154.8,317.4,1154.8,317.3z"/>
			<path id="Trazado_2332" class="st2" d="M1155.1,317.1c0-0.1,0-0.1,0-0.2c0-0.1,0.2-0.1,0.2,0s0.1,0.3,0,0.3
				C1155.2,317.2,1155.2,317.1,1155.1,317.1z"/>
			<path id="Trazado_2333" class="st2" d="M1145.5,342.2c-0.3-0.1-0.7-0.3-1-0.5c-0.1-0.1-0.3-0.1-0.4-0.2c-0.1-0.1,0-0.2,0.1-0.2
				c0.4,0.2,0.9,0.4,1.3,0.6C1145.6,342,1145.6,342.2,1145.5,342.2z"/>
			<path id="Trazado_2334" class="st2" d="M1145.2,342.9c-0.3-0.2-0.6-0.4-0.9-0.6c-0.1-0.1-0.3-0.2-0.4-0.3c-0.1,0-0.1-0.1-0.1-0.2
				c0-0.1,0.1-0.1,0.1-0.1c0,0,0.1,0,0.1,0.1c0.3,0.2,0.6,0.4,0.9,0.6c0.2,0.1,0.3,0.2,0.4,0.3
				C1145.5,342.9,1145.4,343,1145.2,342.9z"/>
			<path id="Trazado_2335" class="st1" d="M1135,336c-0.3-0.1-0.3-0.5,0-0.5c0.5-0.1,0.9-0.2,1.3-0.5c0.6-0.3,1.2-0.7,1.8-1.2
				c0.3-0.3,0.7-0.5,1.1-0.8c0.5-0.4,1-0.8,1.5-1.2s1-0.8,1.5-1.2c0.3-0.3,0.7-0.5,0.9-0.7c0,0,0,0,0.1-0.1c0.1-0.1,0.2-0.1,0.3,0
				c0,0,0,0,0,0c0.1,0.1,0.1,0.2,0,0.3c-1,0.8-1.9,1.6-2.9,2.3c-0.5,0.4-1,0.8-1.5,1.2c-0.8,0.7-1.7,1.3-2.6,1.8
				C1136,335.8,1135.5,336,1135,336z"/>
			<path id="Trazado_2336" class="st1" d="M1142,335.7c-0.3-0.2,0.1-0.5,0.2-0.8c0.3-0.6,0.6-1.3,0.7-2c0.2-0.7,0.3-1.4,0.2-2.1
				c0-0.3,0-0.7,0-1c0-0.2,0.2-0.1,0.3,0l0,0c0.1,0.1,0.1,0.1,0.1,0.2c0,0.1,0.1,0.1,0.1,0.2c0.1,0.3,0.1,0.7,0,1c0,0,0,0.1,0,0.1
				c-0.1,0.6-0.2,1.2-0.3,1.8c-0.2,0.9-0.6,1.7-1,2.5C1142.2,335.7,1142.1,335.7,1142,335.7C1142,335.7,1142,335.7,1142,335.7z"/>
			<path id="Trazado_2337" class="st2" d="M1102.6,367.6c-0.1-0.1-0.3-0.3-0.2-0.5c0.1-0.1,0.2-0.1,0.2,0c0,0,0,0,0,0
				c0.1,0.1,0.3,0.3,0.2,0.5C1102.8,367.7,1102.7,367.7,1102.6,367.6C1102.6,367.7,1102.6,367.7,1102.6,367.6z"/>
			<path id="Trazado_2338" class="st2" d="M1103.2,367.1c0-0.1,0-0.2,0.1-0.2c0,0,0,0,0,0c0.1,0,0.2,0.1,0.2,0.2
				c0,0.1,0,0.2-0.1,0.2c0,0,0,0,0,0C1103.3,367.3,1103.2,367.2,1103.2,367.1z"/>
			<path id="Trazado_2339" class="st2" d="M1126.5,367.1c-0.2-0.2,0.1-0.4,0.3-0.5c0.2-0.1,0.4-0.3,0.5,0c0.1,0.3-0.3,0.4-0.4,0.5
				c0,0-0.1,0.1-0.1,0.1C1126.7,367.2,1126.6,367.1,1126.5,367.1z"/>
			<path id="Trazado_2340" class="st2" d="M1127.4,367.3c-0.1-0.2,0.2-0.3,0.4-0.4l0.4-0.2c0.1,0,0.2,0,0.2,0.1c0,0,0,0,0,0
				c0,0.1,0,0.2-0.1,0.2c-0.1,0.1-0.2,0.1-0.4,0.2C1127.7,367.3,1127.5,367.5,1127.4,367.3z"/>
			<path id="Trazado_2341" class="st4" d="M1086.7,305.3c-1.1,0-2.2-0.2-3.4-0.2c-0.1,0-0.2-0.1-0.2-0.2c0-0.2,0.3-0.2,0.5-0.2
				c1.4,0.1,2.8,0.2,4.2,0.2h0.2c0.1,0,0.2,0.2,0.1,0.3c0,0-0.1,0.1-0.1,0.1C1087.5,305.3,1087.1,305.3,1086.7,305.3z"/>
			<path id="Trazado_2342" class="st4" d="M1086.3,306.5c-0.4,0-0.7,0-1.1-0.1c-0.1,0-0.1-0.1-0.1-0.2c0,0,0,0,0,0
				c0-0.1,0.1-0.2,0.2-0.2c0.7,0,1.4,0,2,0c1.2-0.1,2.3-0.1,3.5-0.1c0.2,0,0.2,0.4,0,0.4c-0.6,0-1.2,0-1.7,0
				C1088.1,306.5,1087.2,306.6,1086.3,306.5z"/>
			<path id="Trazado_2343" class="st4" d="M1114.9,327.1c-0.2,0-0.2-0.3,0-0.4c0.7,0,1.3,0,2-0.1c0.5-0.1,1.1-0.1,1.6-0.2
				c0.2,0,0.3,0,0.5-0.1c0.2,0,0.2,0.2,0.1,0.3l0,0l0,0c-0.1,0.2-0.3,0.2-0.5,0.2s-0.4,0-0.6,0.1
				C1117,327.1,1115.9,327.1,1114.9,327.1z"/>
			<path id="Trazado_2344" class="st4" d="M1113.2,329c-0.2,0-0.2-0.4,0-0.4c0.4,0,0.9-0.1,1.3-0.1c0.8-0.1,1.5-0.2,2.3-0.3
				c0.4-0.1,0.8-0.1,1.2-0.2c0.1,0,0.2,0.1,0.2,0.2c0,0.1,0,0.1-0.1,0.2c-0.4,0-0.8,0.1-1.2,0.2c-0.4,0.1-0.8,0.1-1.1,0.1
				C1114.8,328.8,1114,329,1113.2,329z"/>
			<path id="Trazado_2345" class="st4" d="M1113.7,331.1c0-0.1,0.1-0.2,0.2-0.2c0.4,0,0.8-0.1,1.2-0.1c0.6,0,1.1-0.1,1.7-0.2
				c0.2,0,0.3,0,0.5,0c0.1,0,0.1,0.1,0.1,0.2c0,0,0,0,0,0c0,0.1-0.1,0.2-0.2,0.2c-0.9,0-1.7,0.2-2.6,0.3l-0.8,0.1
				C1113.8,331.3,1113.7,331.2,1113.7,331.1C1113.7,331.1,1113.7,331.1,1113.7,331.1z"/>
			<path id="Trazado_2346" class="st4" d="M1091.5,308.8c-1.1-0.1-2.2-0.1-3.3-0.3c-0.2,0-0.1-0.4,0-0.3c1.3,0.1,2.6,0.2,3.9,0.2
				c0.1,0,0.1,0.1,0.1,0.2c0,0.1-0.1,0.2-0.2,0.2C1092,308.8,1091.7,308.8,1091.5,308.8z"/>
		</g>
	</g>
</g>
</svg>
