<?xml version="1.0" encoding="utf-8"?>
<!-- Generator: Adobe Illustrator 27.0.1, SVG Export Plug-In . SVG Version: 6.00 Build 0)  -->
<svg version="1.1" id="Capa_1" xmlns="http://www.w3.org/2000/svg" xmlns:xlink="http://www.w3.org/1999/xlink" x="0px" y="0px"
	 viewBox="0 0 1280 397" style="enable-background:new 0 0 1280 397;" xml:space="preserve">
<style type="text/css">
	.st0{clip-path:url(#SVGID_00000173870831034815741570000004243962827320852396_);}
	.st1{fill:#FFFFFF;}
	.st2{clip-path:url(#SVGID_00000179645459926508973510000014696345935724883369_);}
</style>
<g>
	<defs>
		<rect id="SVGID_1_" y="-0.1" width="1280" height="397"/>
	</defs>
	<clipPath id="SVGID_00000176760527888530936200000001411097388928276897_">
		<use xlink:href="#SVGID_1_"  style="overflow:visible;"/>
	</clipPath>
	<g id="Linea_contenidos" style="clip-path:url(#SVGID_00000176760527888530936200000001411097388928276897_);">
		<g id="Grupo_3200" transform="translate(0 -90)">
			<path id="Trazado_59" class="st1" d="M1242.5,188c-51.5,70.6-181.3,12.9-211.1-8.1c-7.8-5.5-46.9-36.3-26.2-46.5
				c7.5-3.7,17.2-3.4,23.4,2.6c6.4,6.2,8.3,16,8.9,24.6c0.6,8.3,0.4,17.8-2.5,25.7c-4.1,11-17.4,15.1-28.1,15
				c-19.5-0.1-35.4-13.4-54.2-16.4c-17.2-2.8-41.2,7.1-30.9,27.8c2.4,4.8,12.2,16.1,15.6,5.3c3-9.4-9.9-18.8-17.5-20.9
				c-10.7-3-22.8,3-26.9,13.2c-4.4,11-0.6,24,1.1,35.2c7,45.5,11.9,91.3,14.8,137.3c0.7,11.4,1.8,22.8,1.6,34.2
				c-0.1,8.2-1.7,16.1-6.9,22.6c-10.4,12.9-28.8,17-44.3,19.4c-22,3.5-44.3,3.2-66.4,2.2c-23.8-1.1-47.7-2.7-71.5-4.2
				c-47.7-3.2-95.3-6.9-142.9-10.9c-95.3-8-190.7-15.5-285.7-26.7c-22.6-2.7-45.2-5.6-67.7-8.8c-20.2-2.9-40.7-5.6-59.9-12.9
				c-16.1-6.1-30.4-15.6-41.1-29.3c-10.4-13.4-17-29.4-21.3-45.7c-4.7-17.8-6.8-36.2-8.2-54.6c-1.9-23.9-2.8-47.8-2.5-71.8
				c0.1-11.3,0.3-22.6,1.2-33.9c0.6-8,1.9-16.2,6.2-23.1c8.2-13.1,24.4-16.4,38.7-17.2c22.7-1.3,45.6-0.5,68.3-0.6l71.2-0.3
				l145.1-0.7l287.5-1.4c21.7-0.1,43.9-1.4,65.6,0.8c16.8,1.7,33.7,6.6,46,18.7c16.6,16.3,24.1,40.5,29.5,62.6
				c11.3,46.6,18.5,94.2,21.3,142.1c1.3,21.6,2,43.8-1.7,65.2c-1.8,10.4-5.3,26.6-17.2,30.1c-4.4,1.3-9.6,0.9-14.1,0.9
				c-8.4,0.1-16.8,0.2-25.3,0.2c-30.5,0.1-61,0.2-91.5,0.4c-48.8,0.3-97.6,0.9-146.4,1.7c-67,1.1-134,2.6-201,4.6
				c-86,2.4-172,5.5-257.9,9c-36,1.5-74-0.5-103.8-23.3c-29-22.2-15.2-15.3,0.2-3C28.6,441,46.7,447.7,65,451.1
				c20.1,3.7,40.1,2.6,60.3,1.7c22-0.9,44-1.8,66-2.6c41.2-1.5,82.4-3,123.5-4.3c69.4-2.2,138.8-4,208.3-5.4
				c52.3-1,104.7-1.8,157-2.4c35.4-0.3,70.9-0.6,106.3-0.7c18.7-0.1,37.4,0,56.2-0.4c5.3-0.1,10.8,0.3,15.1-3.4
				c10.9-9.3,11.8-29.6,12.7-42.6c3.3-47.7-3.8-96.7-12-143.6c-3.4-19.1-7.1-38.2-12.4-56.8c-2.8-10.1-6.6-19.8-11.2-29.1
				c-9.3-18.5-23.4-31.4-43.8-36.5c-19.8-4.9-40.8-3.6-61-3.5l-68.6,0.3L523,122.6l-277,1.3l-69.9,0.3c-18.6,0.1-39.8-2.4-57.7,3.8
				c-23.2,8-22.9,32-23.5,52.7c-0.7,22.6-0.5,45.3,0.8,67.9c2.1,36.9,4.5,77.7,24.5,109.9c22,35.5,62,43.3,100.3,48.9
				c91.4,13.5,183.5,21,275.4,29.1c91.7,8,183.4,15.8,275.3,21.1c22.2,1.3,44.5,2.7,66.7,1.3c19-1.2,42-3.2,57.7-15.1
				c9.3-7,12.5-16.6,12.5-28c-0.1-11.4-1-22.9-1.7-34.3c-1.4-22.3-3.3-44.5-5.7-66.7c-2.5-23.4-5.6-46.7-9.1-69.9
				c-2.3-15-7.4-34,6.3-45.1c10.5-8.5,24.4-7.1,34.3,1.5c5.6,4.9,13.8,19.4,2.4,23.3c-8.5,2.9-15.3-9.8-17-16
				c-3.1-11.1,3.2-20.1,13.7-24.2c15.3-6,30.9-0.1,45.2,5.9c9.5,4,19.1,8.2,29.6,8.5c9.1,0.2,20.4-2.4,25.5-10.8
				c3.9-6.5,3.9-16.2,3.8-23.5c-0.2-9.2-1.7-21-9.1-27.4c-7.2-6.3-27.5-4.6-23.4,8.4c3.9,12.2,16.9,22.6,26.7,30
				c29.7,22.3,157.7,81,212.9,10.8"/>
			<g id="Grupo_3182" transform="translate(1213.845 127.391)">
				
					<rect id="Rectángulo_1594" x="-20.6" y="46.9" transform="matrix(0.5792 -0.8152 0.8152 0.5792 -22.809 50.112)" class="st1" width="115.5" height="0.6"/>
				<g id="Grupo_3178">
					<g>
						<defs>
							<rect id="SVGID_00000119800132776114960520000001462653814012622502_" x="0" y="-0.1" width="70.9" height="94.5"/>
						</defs>
						<clipPath id="SVGID_00000072260246424128334340000002565263260317673907_">
							<use xlink:href="#SVGID_00000119800132776114960520000001462653814012622502_"  style="overflow:visible;"/>
						</clipPath>
						<g id="Grupo_3177" style="clip-path:url(#SVGID_00000072260246424128334340000002565263260317673907_);">
							<path id="Trazado_2386" class="st1" d="M16.4,42.7c4.9,1.9,10,3,15,4.6c1.4,0.5,2.9,0.9,4.4,1.3l11.1-15.7
								c-3-1-6.1-1.9-9.2-2.8c-3.7-1.2-7.6-2.2-11.3-3.5c-1.8-0.6-2.9-2.4-2.7-4.2c0.1-1.9,1.4-3.4,3.3-3.8c1.8-0.5,3.6-0.6,5.5-0.6
								c5,0.3,9.8,1.8,14.1,4.2c1.2,0.7,2.4,1.4,3.6,2.1l10.1-14.2c-8-6.2-17.2-8.7-27.3-8.9C27,1.2,21.1,1.9,15.6,4.8
								C7.1,9.2,3.2,16.3,3.6,25.8C3.9,34.4,8.9,39.7,16.4,42.7"/>
							<path id="Trazado_2387" class="st1" d="M18,73.6l10.6-14.9c-2.5-0.5-5-1.2-7.3-2.3c-3.5-1.6-6.8-3.7-10.3-5.6L0,64
								c2.6,1.8,5,3.7,7.5,5.1C10.8,71,14.4,72.5,18,73.6"/>
							<path id="Trazado_2388" class="st1" d="M56.6,51.6c-4.3-1.8-8.8-3-13.2-4.4c-1.6-0.5-3.3-1-4.9-1.5L27.6,61
								c3.2,1,6.5,1.8,9.7,2.8c3.1,0.8,6.1,1.9,9.1,3.2c3,1.5,2.8,5.4-0.2,7.1c-0.7,0.4-1.5,0.7-2.3,0.8c-5.6,0.9-11.3,0.1-16.4-2.3
								c-2-0.9-4-2-5.9-3.1l-9.8,13.8c0.8,0.5,1.6,1.1,2.5,1.6c9.8,5.6,20.4,7.3,31.5,6.1c5-0.5,9.8-2.3,13.9-5.2
								C70.1,78.5,72.6,58.3,56.6,51.6"/>
							<path id="Trazado_2389" class="st1" d="M52,39.7c1.5,0.8,2.9,1.7,4.5,2.6L66,28.8c-0.3-0.3-0.5-0.5-0.7-0.6
								c-3.1-2.4-6.6-4.4-10.3-5.8L44.9,36.7C47.4,37.4,49.8,38.4,52,39.7"/>
						</g>
					</g>
				</g>
			</g>
		</g>
	</g>
</g>
</svg>
