<?xml version="1.0" encoding="utf-8"?>
<!-- Generator: Adobe Illustrator 27.0.1, SVG Export Plug-In . SVG Version: 6.00 Build 0)  -->
<svg version="1.1" id="Capa_1" xmlns="http://www.w3.org/2000/svg" xmlns:xlink="http://www.w3.org/1999/xlink" x="0px" y="0px"
	 viewBox="0 0 1280 107" style="enable-background:new 0 0 1280 107;" xml:space="preserve">
<style type="text/css">
	.st0{clip-path:url(#SVGID_00000100365525532183616280000017747359861975126416_);}
	.st1{fill:#D79C3D;}
</style>
<g>
	<defs>
		<rect id="SVGID_1_" width="1280" height="107"/>
	</defs>
	<clipPath id="SVGID_00000051366891457707075170000012272083016793109938_">
		<use xlink:href="#SVGID_1_"  style="overflow:visible;"/>
	</clipPath>
	<g id="Linea_categorías" style="clip-path:url(#SVGID_00000051366891457707075170000012272083016793109938_);">
		<path id="Trazado_1309" class="st1" d="M2,60.5c42.3-28.1,99.3-28.6,150.1-22.8c13.8,1.6,28.8,3,41.1,9s23.4,19.5,15.3,31.3
			c-3.6,5-9.3,8.1-15.5,8.5c-4.4,0.2-8.1-0.7-7-5.1c0.8-2.9,2.2-5.6,4.2-8c9.1-11.2,25.8-13.6,40.7-12.9c57,2.4,110,25.2,166.8,28.9
			c24.5,1.6,53.8,0.7,75-11.4c15.6-9,27.4-29,14.9-43.9c-9.3-11-32.3-13.6-40.5-0.2C436.7,51.1,456,66.8,473.4,72
			c26.5,8,57,7.9,84.6,5.6c29.7-2.4,58.8-8.2,87.7-14.3C766.1,37.6,888.1,13.2,1013,14c30.8,0.1,61.6,1.9,92.2,5.4
			c26.9,3.1,58.8,5.8,80.2,21.6c9.8,7.2,16.7,17.9,17.4,29.1c0.2,2.7,0,5.3-0.6,8c-0.4,1.7-1.4,6.6-3.1,7.5
			c-3.9,2.1-9.5-7.9-10.2-10.3c-3.3-10.2,1.7-20.4,11.1-26.7c11.1-7.4,25.6-9.6,39.3-10.8s27.1-1.8,40-6c0.5-0.1,0.9-0.7,0.7-1.2
			c-0.1-0.5-0.7-0.9-1.2-0.7c0,0-0.1,0-0.1,0c-26.1,8.4-59.2,1.5-81.7,18.2c-13.5,10-17.2,32.6,1.6,40.1c0.5,0.3,1.2,0.1,1.6-0.4
			c7.4-11.1,5.9-24.3-1-35.3c-7.9-12.5-22-20.4-37.3-25.2c-18.4-5.7-38.4-8-57.7-10.2c-21.7-2.5-43.6-4.1-65.5-4.8
			c-89.2-3-178.3,7.5-265.5,23c-43.7,7.8-87,17.2-130.4,26.4c-43.6,9.3-88.7,17.7-133.9,14c-19.2-1.6-46.9-4.3-57.8-20.2
			c-5-7.2-6.2-17.6,0.9-24.2c6.3-5.9,17-5.9,24.9-2.6c19.6,8.2,15.3,30.7,2.3,42.1c-14.7,12.8-38,15.9-58,16.7
			c-42.4,1.7-83.4-10-123.9-18.9c-19.6-4.3-39.4-8.3-59.6-9.9c-16.8-1.4-35.9-0.5-47.6,11.5c-4.1,4-6.6,9.5-6.8,15.2
			c0,0.4,0.2,0.7,0.6,0.9c12.4,5.9,27.8-2.9,29.4-14.3c2.3-16-15-27.3-30.8-31.5c-19.4-5.2-41.3-6.5-61.5-7.5s-40.6-0.3-60.5,3.1
			C38.6,40,18,47.4,0.4,59.1C-0.8,59.9,0.9,61.2,2,60.5L2,60.5L2,60.5z"/>
	</g>
</g>
</svg>
