<?xml version="1.0" encoding="utf-8"?>
<!-- Generator: Adobe Illustrator 27.0.1, SVG Export Plug-In . SVG Version: 6.00 Build 0)  -->
<svg version="1.1" id="Capa_1" xmlns="http://www.w3.org/2000/svg" xmlns:xlink="http://www.w3.org/1999/xlink" x="0px" y="0px"
	 viewBox="0 0 374 119" style="enable-background:new 0 0 374 119;" xml:space="preserve">
<style type="text/css">
	.st0{fill:none;}
	.st1{clip-path:url(#SVGID_00000118366643616595845380000011445253542243322508_);}
	.st2{fill:#FFFFFF;}
	.st3{fill:url(#Craft_panificación_color_00000039814422628853258690000015703697254571570085_);}
	.st4{fill:none;stroke:#FFFFFF;stroke-width:0.75;stroke-miterlimit:10;}
	.st5{clip-path:url(#SVGID_00000160891182362651907530000011350596766607978670_);}
	.st6{clip-path:url(#SVGID_00000160906756353757374970000011531228534255632281_);}
	.st7{fill:url(#academia_craft_ESP_white-2_00000176018419604835781710000004966487080846974857_);}
</style>
<pattern  y="119" width="1260.3" height="401" patternUnits="userSpaceOnUse" id="pattern" viewBox="428.9 -401 1260.3 401" style="overflow:visible;">
	<g>
		<rect x="428.9" y="-401" class="st0" width="1260.3" height="401"/>
		
			<image style="overflow:visible;enable-background:new    ;" width="2118" height="401" xlink:href="FDB15087AD295D97.png"  transform="matrix(1 0 0 -1 0 0)">
		</image>
	</g>
</pattern>
<pattern  y="119" width="2548" height="810.7" patternUnits="userSpaceOnUse" id="pattern-2" viewBox="0 -851.9 2548 810.7" style="overflow:visible;">
	<g>
		<rect x="0" y="-851.9" class="st0" width="2548" height="810.7"/>
		
			<image style="overflow:visible;enable-background:new    ;" width="2548" height="893" xlink:href="FDB15087AD295D95.png"  transform="matrix(1 0 0 -1 0 0)">
		</image>
	</g>
</pattern>
<g>
	<defs>
		<rect id="SVGID_1_" width="374" height="119"/>
	</defs>
	<clipPath id="SVGID_00000103265945969241913160000012175304396284336263_">
		<use xlink:href="#SVGID_1_"  style="overflow:visible;"/>
	</clipPath>
	<g id="Logo_academia-esc" style="clip-path:url(#SVGID_00000103265945969241913160000012175304396284336263_);">
		<g id="Grupo_3162" transform="translate(10 -4)">
			<path id="Trazado_10" class="st2" d="M173.5,169c-0.1-0.1-0.2-0.2-0.3-0.3C173.4,168.7,173.4,168.8,173.5,169"/>
			<path id="Trazado_11" class="st2" d="M173.2,168.6c-0.1-0.1-0.2-0.2-0.3-0.3C173,168.4,173.1,168.5,173.2,168.6"/>
			<path id="Trazado_12" class="st2" d="M174,169.6c-0.1-0.2-0.3-0.4-0.5-0.6C173.7,169.2,173.9,169.4,174,169.6"/>
			<path id="Trazado_13" class="st2" d="M175.3,171.6L175.3,171.6L175.3,171.6"/>
			<path id="Trazado_15" class="st2" d="M174.3,169.9c-0.1-0.1-0.1-0.2-0.2-0.3C174.1,169.7,174.2,169.8,174.3,169.9"/>
			<path id="Trazado_16" class="st2" d="M175.2,171.4c0-0.1-0.1-0.2-0.1-0.3C175.1,171.3,175.2,171.4,175.2,171.4"/>
			<path id="Trazado_17" class="st2" d="M175.1,171.1L175,171L175.1,171.1"/>
			<path id="Trazado_18" class="st2" d="M175.3,171.5L175.3,171.5L175.3,171.5"/>
			<path id="Trazado_19" class="st2" d="M174.5,170.2c-0.1-0.1-0.1-0.2-0.2-0.3C174.4,170,174.4,170.1,174.5,170.2"/>
			<path id="Trazado_20" class="st2" d="M175.3,171.6L175.3,171.6L175.3,171.6"/>
			<path id="Trazado_21" class="st2" d="M174.9,171l-0.1-0.2C174.9,170.8,174.9,170.9,174.9,171"/>
			<path id="Trazado_22" class="st2" d="M174.8,170.7c-0.1-0.1-0.2-0.3-0.3-0.5C174.6,170.4,174.7,170.6,174.8,170.7"/>
			
				<pattern  id="Craft_panificación_color_00000139994543304816142470000008406945127084675457_" xlink:href="#pattern" patternTransform="matrix(0.1443 0 0 -0.1443 -6384.8545 -8719.4141)">
			</pattern>
			
				<rect id="Craft_panificación_color" x="42.6" y="208.9" style="fill:url(#Craft_panificación_color_00000139994543304816142470000008406945127084675457_);" width="305.6" height="33.2"/>
			<line id="Línea_51" class="st4" x1="343.7" y1="203.1" x2="-2.3" y2="203.1"/>
			<g id="Grupo_3141" transform="translate(54.696 34.933)">
				<g>
					<defs>
						<rect id="SVGID_00000018938333468196177620000015519035427998726046_" x="-2.3" y="138.3" width="136.4" height="19.7"/>
					</defs>
					<clipPath id="SVGID_00000176733560058138278930000017597351576721012133_">
						<use xlink:href="#SVGID_00000018938333468196177620000015519035427998726046_"  style="overflow:visible;"/>
					</clipPath>
					
						<g id="Enmascarar_grupo_2" transform="translate(0 0)" style="clip-path:url(#SVGID_00000176733560058138278930000017597351576721012133_);">
						
							<image style="overflow:visible;enable-background:new    ;" width="3072" height="790" id="academia_craft_ESP_white" xlink:href="FDB15087AD295D9B.png"  transform="matrix(5.738476e-02 0 0 5.738476e-02 -3.4845 135.6271)">
						</image>
					</g>
				</g>
				<g>
					<defs>
						<rect id="SVGID_00000171691397416901388870000016826199783374901908_" x="130.5" y="138.3" width="158.6" height="20.9"/>
					</defs>
					<clipPath id="SVGID_00000004520834439080370690000012360661022949671326_">
						<use xlink:href="#SVGID_00000171691397416901388870000016826199783374901908_"  style="overflow:visible;"/>
					</clipPath>
					
						<g id="Enmascarar_grupo_3" transform="translate(132.746 0)" style="clip-path:url(#SVGID_00000004520834439080370690000012360661022949671326_);">
						
							<pattern  id="academia_craft_ESP_white-2_00000085231999785437932600000017177357643156960917_" xlink:href="#pattern-2" patternTransform="matrix(6.249608e-02 0 0 -6.249608e-02 -6624.4014 -7951.0405)">
						</pattern>
						
							<rect id="academia_craft_ESP_white-2" x="-90.1" y="142.1" style="fill:url(#academia_craft_ESP_white-2_00000085231999785437932600000017177357643156960917_);" width="159.2" height="41"/>
					</g>
				</g>
			</g>
		</g>
	</g>
</g>
<g>
	<g>
		<defs>
			<rect id="SVGID_00000113343629940051497800000010618851949927257771_" x="29.2" y="17.8" width="151.4" height="25.3"/>
		</defs>
		<clipPath id="SVGID_00000050646574152384608700000010214415839254748294_">
			<use xlink:href="#SVGID_00000113343629940051497800000010618851949927257771_"  style="overflow:visible;"/>
		</clipPath>
		<g style="clip-path:url(#SVGID_00000050646574152384608700000010214415839254748294_);">
			
				<image style="overflow:visible;" width="2548" height="893" xlink:href="../../../../ACADEMIAS Y ESCUELAS/2022/7-Comercial/PNG Comercial/Logo_Academia_Comercial_white.png"  transform="matrix(6.605355e-02 0 0 6.605355e-02 23.4277 12.0777)">
			</image>
		</g>
	</g>
	<g>
		<defs>
			<rect id="SVGID_00000085228825752222606050000002249466156561971618_" x="178.9" y="17.8" width="179.3" height="28.1"/>
		</defs>
		<clipPath id="SVGID_00000178916228870940177350000007594947997231784336_">
			<use xlink:href="#SVGID_00000085228825752222606050000002249466156561971618_"  style="overflow:visible;"/>
		</clipPath>
		
			<g transform="matrix(1 0 0 1 -1.525879e-05 0)" style="clip-path:url(#SVGID_00000178916228870940177350000007594947997231784336_);">
			
				<image style="overflow:visible;" width="2548" height="893" xlink:href="../../../../ACADEMIAS Y ESCUELAS/2022/7-Comercial/PNG Comercial/Logo_Academia_Comercial_white.png"  transform="matrix(7.338338e-02 0 0 7.338338e-02 173.9523 -14.991)">
			</image>
		</g>
	</g>
</g>
<image style="overflow:visible;" width="2118" height="401" xlink:href="../../../../ACADEMIAS Y ESCUELAS/2022/7-Comercial/Escuelas Comercial/37. Ventas/PNG/Logo_Escuela_Sales_white.png"  transform="matrix(0.1643 0 0 0.1643 18.801 34.9928)">
</image>
<line id="Línea_51_00000165917006480999714580000015598246325102617269_" class="st4" x1="357.5" y1="47.7" x2="0" y2="47.7"/>
</svg>
