<?xml version="1.0" encoding="utf-8"?>
<!-- Generator: Adobe Illustrator 27.0.1, SVG Export Plug-In . SVG Version: 6.00 Build 0)  -->
<svg version="1.1" id="Capa_1" xmlns="http://www.w3.org/2000/svg" xmlns:xlink="http://www.w3.org/1999/xlink" x="0px" y="0px"
	 viewBox="0 0 1280 397" style="enable-background:new 0 0 1280 397;" xml:space="preserve">
<style type="text/css">
	.st0{clip-path:url(#SVGID_00000159454162433456602970000006694628016371558311_);}
	.st1{clip-path:url(#SVGID_00000142858372294545127750000011426031435401329850_);}
	.st2{clip-path:url(#SVGID_00000012459643114855009150000000045728260710312126_);}
	.st3{clip-path:url(#SVGID_00000167392549849167137190000014168786259933596582_);}
	.st4{fill:#FFFFFF;}
	.st5{clip-path:url(#SVGID_00000108273831472828375080000005599885941294310823_);}
</style>
<g>
	<defs>
		<rect id="SVGID_1_" width="1280" height="397"/>
	</defs>
	<clipPath id="SVGID_00000121992171422223546320000010060558732533422247_">
		<use xlink:href="#SVGID_1_"  style="overflow:visible;"/>
	</clipPath>
	<g id="Mujer_compu" style="clip-path:url(#SVGID_00000121992171422223546320000010060558732533422247_);">
		<g id="Grupo_3201" transform="translate(-90)">
			<g id="Grupo_3194" transform="translate(-57 -15.065)">
				<g>
					<defs>
						<rect id="SVGID_00000111891059378882972790000015755646579415943584_" y="0" width="1342.6" height="427.1"/>
					</defs>
					<clipPath id="SVGID_00000097491851418585494840000002654467402064039856_">
						<use xlink:href="#SVGID_00000111891059378882972790000015755646579415943584_"  style="overflow:visible;"/>
					</clipPath>
					<g id="Grupo_3193" style="clip-path:url(#SVGID_00000097491851418585494840000002654467402064039856_);">
						<g id="Grupo_3190">
							<g>
								<defs>
									<rect id="SVGID_00000066500504104097243210000003378975600308649362_" y="0" width="640.9" height="427.1"/>
								</defs>
								<clipPath id="SVGID_00000018197510808761760510000001248872557459184058_">
									<use xlink:href="#SVGID_00000066500504104097243210000003378975600308649362_"  style="overflow:visible;"/>
								</clipPath>
								<g id="Grupo_3189" style="clip-path:url(#SVGID_00000018197510808761760510000001248872557459184058_);">
									
										<image style="overflow:visible;enable-background:new    ;" width="2000" height="1333" id="Rectángulo_1599" xlink:href="B127A7E8CD66E240.png"  transform="matrix(0.3204 0 0 0.3204 4.272461e-04 1.567841e-05)">
									</image>
								</g>
							</g>
						</g>
						<g id="Grupo_3192">
							<g>
								<defs>
									<rect id="SVGID_00000056412233061506261310000002550714048118071725_" y="0" width="1342.6" height="427.1"/>
								</defs>
								<clipPath id="SVGID_00000167398334796437621210000014752202684509307018_">
									<use xlink:href="#SVGID_00000056412233061506261310000002550714048118071725_"  style="overflow:visible;"/>
								</clipPath>
								<g id="Grupo_3191" style="clip-path:url(#SVGID_00000167398334796437621210000014752202684509307018_);">
									<path id="Trazado_2396" class="st4" d="M130.7,304.2c4.4-10.1,16.5-16.2,27.2-12s15.4,16.9,11.7,27.3l2.2-0.3
										c-3.3-6.9,3.5-13,9.7-14.3c7-1.5,12.9,3.7,16.3,9.2c6.1,9.8,6,21.6,9.5,32.3c7.4,23,33.9,27.1,54.7,30.6
										c23.9,4,49.9,5.3,73.7-0.1c19.5-4.4,36.8-15.4,43.8-35c8-22.5,2.1-47.8-3.8-70c-0.2-0.5-0.6-0.9-1.2-0.9
										c-18.6-0.8-37.1-1.2-55.7-1.1c-9.1,0-18.2,0.2-27.3,0.5c-7.9,0.2-16.4-0.3-24.1,1.4c-14.4,3.3-12,19.1-12.2,30.7
										c-0.3,19-0.6,38-0.9,57c0,0.5,0.4,1,0.9,1.2c26.1,6.9,53.1,9.6,80,8.1c17.8-1,43.5-2.2,53.9-19.6
										c5.9-9.8,4.2-21.5,3.3-32.4c-1-12.2,0.1-33,16.8-33.8c6.3-0.3,10.8,4.6,10.6,10.8c0,1.9-0.9,6-3.1,6.6
										c-5.2,1.5-1.9-8.7-1.3-9.8c4-6.8,12.2-6.6,18.4-2.8c6.9,4.3,10.3,11.8,13.2,19c3.9,9.6,8,18.7,14.9,26.5
										c6.6,7.3,14.5,13.5,23.2,18.1c19.1,10.3,40.9,13.9,62.4,13.4c27.9-0.6,55.1-7.3,82.6-11.3c28.7-4.2,57.8-6,86.8-5.3
										c27.5,0.7,56.6,2.3,83.3,9c6.1,1.5,13.2,4.1,16.7,9.8c3.3,5.3,3.7,13.9-2.4,17.4c-7.1,4.1-15.3-3.6-15.5-10.8
										c-0.2-8,7.3-14.2,14.2-16.5c13.1-4.4,28.3,1.1,41.4,3.1c11.8,1.8,23.6,3.1,35.5,3.9c25,1.6,50,0.9,74.8-2.1
										c49.3-5.9,97.1-20.6,141.1-43.6c21.3-11.1,41.7-24.1,60.1-39.6c9.6-8,18.6-16.9,26.8-26.4c6.5-7.6,15.3-16.9,15.6-27.5
										c0.2-6.8-4.6-14.4-11.9-15.1c-7.6-0.7-11.6,6.9-11.7,13.4c-0.2,16.7,15.9,27.4,30.7,29.8c45.2,7.4,66.4-46.4,94.1-71.1
										c9.1-8.2,19.7-14.3,31.9-16.4c1.5-0.3,0.9-2.6-0.6-2.3c-40.1,6.9-55.3,50.7-83.6,74.2c-14.6,12.1-33.4,18-51.5,10.2
										c-7.8-3.4-14.6-9.3-17.3-17.5c-1.6-4.9-2-12.1,2.1-16c7.2-6.6,15.7,3.4,15.4,10.7c-0.4,11.5-11.7,22.4-18.9,30.4
										c-7.1,7.8-14.7,15.1-22.7,21.8c-16.6,14-35,25.9-54.1,36.3c-38.8,21-80.7,35.5-124.1,43c-44,7.7-89,8.1-133.1,1.1
										c-16.5-2.6-39.5-10.5-52.3,4.8c-4,4.8-5.7,11.3-2.8,17.1c2.5,5.1,8.1,9.4,14.1,8.5c14.5-2.2,9.9-21.7,1.4-27.8
										c-7.6-5.4-17.7-6.5-26.7-8c-11.2-1.8-22.5-3.2-33.8-4.3c-47.9-4.5-95.8-1.8-143.2,6.5c-42.9,7.5-90.4,16.4-129.5-8.6
										c-8.6-5.4-16-12.4-21.8-20.7c-5.6-8.3-8.1-17.8-12.6-26.7c-5.6-10.9-23.6-24.4-32.6-9.1c-2.7,4.6-2.7,9.9,1,13.9
										c0.3,0.3,0.8,0.4,1.2,0.3c6.2-2.1,7.9-8.9,5.9-14.7c-2.5-7.3-10.2-9.8-17.2-7.1c-27,10.3-5.9,47.6-17.2,66.3
										c-6.5,10.8-20.2,14.6-31.9,16.4c-15.2,2.2-30.6,2.9-46,2.1c-15.8-0.7-31.4-2.9-46.7-6.5c-5.5-1.3-5.7-2-5.6-7.6
										c0.1-4,0.1-7.9,0.2-11.9l0.4-23.8c0.1-7.9,0.2-15.8,0.4-23.8c0.1-3.4-0.1-6.9,0.8-10.2c1.7-6.3,6.8-8.5,12.7-9.1
										c15.2-1.7,31-1.2,46.3-1.3c15.8-0.1,31.6,0.2,47.4,0.7c3.9,0.1,7.6-0.8,9.2,3c1.1,2.7,1.5,6.1,2.2,8.9
										c1.5,6.5,2.7,13.2,3.5,19.8c3.1,26.3-3.4,52.8-29.4,64.7c-12.5,5.7-26.5,7.4-40.1,8.1c-24.5,1.1-48.9-1.8-72.5-8.5
										c-7.6-2.2-15.6-4.9-21.3-10.7c-10.6-10.9-8.6-27.9-14.5-41.1c-3.7-8.2-11.3-16.8-21.3-14.7c-8.1,1.7-15.2,9.7-11.2,17.9
										c0.5,1,1.9,0.6,2.2-0.3c4.1-11.5-1.4-25.6-13.1-30.2s-25.3,1.8-30.2,13C127.9,304.4,130,305.7,130.7,304.2"/>
								</g>
							</g>
						</g>
					</g>
				</g>
			</g>
			<g id="Grupo_3195" transform="translate(1267.845 75.747)">
				
					<rect id="Rectángulo_1594" x="-20.6" y="47" transform="matrix(0.5792 -0.8152 0.8152 0.5792 -22.8938 50.1558)" class="st4" width="115.5" height="0.6"/>
				<g id="Grupo_3178">
					<g>
						<defs>
							<rect id="SVGID_00000160885870781062468130000001139378779902123197_" x="0" y="0" width="70.9" height="94.5"/>
						</defs>
						<clipPath id="SVGID_00000161624783059706531840000004875625824105113218_">
							<use xlink:href="#SVGID_00000160885870781062468130000001139378779902123197_"  style="overflow:visible;"/>
						</clipPath>
						<g id="Grupo_3177" style="clip-path:url(#SVGID_00000161624783059706531840000004875625824105113218_);">
							<path id="Trazado_2386" class="st4" d="M16.4,42.8c4.9,1.9,10,3,15,4.6c1.4,0.5,2.9,0.9,4.4,1.3l11.1-15.7
								c-3-1-6.1-1.9-9.2-2.8C34,29,30.2,28,26.5,26.7c-1.8-0.6-2.9-2.4-2.7-4.2c0.1-1.9,1.4-3.4,3.3-3.8c1.8-0.5,3.6-0.6,5.5-0.6
								c5,0.3,9.8,1.8,14.1,4.2c1.2,0.7,2.4,1.4,3.6,2.1l10.1-14.2c-8-6.2-17.2-8.7-27.3-8.9C27,1.3,21.1,2,15.6,4.9
								C7.1,9.3,3.2,16.4,3.6,25.9C3.9,34.5,8.9,39.8,16.4,42.8"/>
							<path id="Trazado_2387" class="st4" d="M18,73.7l10.6-14.9c-2.5-0.5-5-1.2-7.3-2.3c-3.5-1.6-6.8-3.7-10.3-5.6L0,64.1
								c2.6,1.8,5,3.7,7.5,5.1C10.8,71.1,14.4,72.6,18,73.7"/>
							<path id="Trazado_2388" class="st4" d="M56.6,51.7c-4.3-1.8-8.8-3-13.2-4.4c-1.6-0.5-3.3-1-4.9-1.5L27.6,61.1
								c3.2,1,6.5,1.8,9.7,2.8c3.1,0.8,6.1,1.9,9.1,3.2c3,1.5,2.8,5.4-0.2,7.1c-0.7,0.4-1.5,0.7-2.3,0.8c-5.6,0.9-11.3,0.1-16.4-2.3
								c-2-0.9-4-2-5.9-3.1l-9.8,13.8c0.8,0.5,1.6,1.1,2.5,1.6c9.8,5.6,20.4,7.3,31.5,6.1c5-0.5,9.8-2.3,13.9-5.2
								C70.1,78.6,72.6,58.4,56.6,51.7"/>
							<path id="Trazado_2389" class="st4" d="M52,39.8c1.5,0.8,2.9,1.7,4.5,2.6L66,28.9c-0.3-0.3-0.5-0.5-0.7-0.6
								c-3.1-2.4-6.6-4.4-10.3-5.8L44.9,36.8C47.4,37.5,49.8,38.5,52,39.8"/>
						</g>
					</g>
				</g>
			</g>
		</g>
	</g>
</g>
</svg>
