<?xml version="1.0" encoding="utf-8"?>
<!-- Generator: Adobe Illustrator 27.0.1, SVG Export Plug-In . SVG Version: 6.00 Build 0)  -->
<svg version="1.1" id="Capa_1" xmlns="http://www.w3.org/2000/svg" xmlns:xlink="http://www.w3.org/1999/xlink" x="0px" y="0px"
	 viewBox="0 0 121 142" style="enable-background:new 0 0 121 142;" xml:space="preserve">
<style type="text/css">
	.st0{clip-path:url(#SVGID_00000078023999582804772500000004455544135895824052_);}
	.st1{fill:#FFFFFF;}
	.st2{fill:#53A11D;}
</style>
<g>
	<defs>
		<rect id="SVGID_1_" width="121" height="142"/>
	</defs>
	<clipPath id="SVGID_00000131348009753907728950000012650060802044448394_">
		<use xlink:href="#SVGID_1_"  style="overflow:visible;"/>
	</clipPath>
	<g id="Progreso_icon" style="clip-path:url(#SVGID_00000131348009753907728950000012650060802044448394_);">
		<g id="Grupo_3199" transform="translate(-1121.521 -384.785)">
			<path id="Trazado_2391" class="st1" d="M1157.2,510.1c0,1.6,1.5,4.6-0.6,5.3c-2.6,0.7-5.2,1.2-7.9,1.4c-0.3,0-0.6,0-0.8-0.2
				c-0.8-1.2-0.8-2.8-0.9-4.1c-0.3-2.1-0.7-4.3-1.2-6.3c-1-3.5-0.7-7.3-1.3-10.9c-0.1-4.1-0.4-8.2-0.9-12.3c-0.8,0-1-1.1-0.7-1.7
				c0.4-1,1.6-0.8,2.5-0.8c1.3-0.1,2.7-0.1,4,0c1.5,0,2.9,0.1,4.4,0.3c0.9,0.2,0.6,1.5,0.8,2.1c1.4,5.7,1.2,11.6,2.2,17.3
				C1156.8,503.5,1156.5,506.8,1157.2,510.1"/>
			<path id="Trazado_2392" class="st1" d="M1177.8,506.5c0.5,3-0.4,3.4-3.1,4.1c-1.6,0.4-3.1,0.9-4.6,1.5c-0.9,0.3-1.8,0.9-2.7,0.7
				c-0.5-0.2-0.6-0.9-0.6-1.4c-0.5-3.2-0.8-6.3-1.2-9.5c-0.7-3.7-1.1-7.4-1.3-11.1c0.1-3.8,0.4-7.5-0.4-11.2
				c-0.4-2.6-0.3-5.2,0.1-7.7c0.1-1.4,0.4-2.6,2-2.6c2.7,0,5.4,0.5,8.1,0c0-0.9,1.2-1.5,1.6-0.4c0.7,4.4,0.4,8.8,0.9,13.3
				c0.5,4.3,0.1,8.6,0.6,12.9C1177.6,498.9,1177.2,502.7,1177.8,506.5"/>
			<path id="Trazado_2393" class="st1" d="M1198.4,494.2c0.1,3.2,0.4,6.5-0.2,9.7c0,1-0.8,1.3-1.7,1.6c-2.2,1-4.6,1.5-7.1,1.6
				c-1.3,0-1.2-1.2-1.3-2.1c-0.7-3.6-1.1-7.2-1-10.9c0-4.5-0.8-9-1-13.5c-0.2-3.7,0.7-7.4,0.7-11.1c0-2.4-0.7-4.7-0.8-7.1
				c0.1-2.8-0.1-6.1,0.5-8.8c0.5-1.1,1.9-1,2.9-1.2c2.1-0.2,4.2-0.5,6.3-0.7c0.3-0.4,0.8-0.4,1.1-0.2c0.2,0.1,0.3,0.3,0.3,0.5
				c0.1,0.6,0,1.2,0.2,1.8c0.2,1.5-0.1,3.1,0.1,4.6c0.2,1.2,0.4,2.4,0.5,3.7c0.1,3.4,0.1,6.7,0.2,10.1c0,4.2-0.9,8.4-0.2,12.6
				C1198.3,487.9,1198.3,491.1,1198.4,494.2"/>
			<path id="Trazado_2394" class="st2" d="M1146.7,477.2c-2.4-1.8-4.3-4.2-5.4-7c-0.3-0.6,0.5-1.7,1.1-1c3.6-3.4,7.3-6.6,11-9.8
				c2.7-2.8,5.8-5.1,9.2-7.1c3.6-2.5,6.5-5.8,10.5-7.6c-0.4-1.3-1-2.5-1.7-3.6c-0.2-0.3-0.3-0.9,0-1.2c3.3-0.9,6.6-1.4,10-1.6
				c1.2,0,3.7-1.4,3.2,0.9c-0.5,3.2-0.7,6.4-1.2,9.6c-0.3,0.9-0.1,1.9-0.6,2.7c-1.1,0.9-3.6-1.4-4.6-1.9c-2,2.5-4.9,4-7,6.4
				c-3.2,3.7-7.5,6.4-10.8,9.9c-2.6,3.3-6.4,5.4-9.5,8.3c-1,0.8-1.9,1.7-2.9,2.5C1147.7,477.1,1147.2,477.3,1146.7,477.2
				 M1147.3,475.2c1.5-1.1,3.2-2.1,4.7-3.1c2-1.5,3.8-3.2,5.4-5.1c1.3-1.2,2.7-2.4,4.1-3.5c1.9-2,4.1-3.8,6-5.8
				c2.2-2,4.6-3.7,6.7-5.8c1.1-1.4,2.3-2.8,3.6-4.1c0.2-0.1,0.4-0.2,0.6-0.1c1.3,0.6,2.3,1.9,3.7,2.3c0.4-3.7,1.9-7.2,1.6-11
				c-1.4,0.3-2.9,0.4-4.4,0.5c-2.3,0.5-4.7,1.2-7.1,1l0,0c0.5,1.3,3.1,3.8,1.8,5.1c-3.3,2-6.3,4.5-9.7,6.4c-2,1.3-3.8,2.8-5.5,4.5
				c-2.4,1.9-5.1,3.7-7.1,6.1c-1.3,1.1-2.7,2.1-4.2,2.9c-1.7,1.4-3.1,2.9-4.8,4.3C1143.4,472.2,1145.1,474.1,1147.3,475.2"/>
			<path id="Trazado_2395" class="st2" d="M1213.8,427.3c0.4-1.7,0.4-3.4,0.2-5.1c-0.7-2-2.3-4.8-4.6-5.1c-0.2,0.1-0.3,0-0.5,0
				c-0.4,0-1,0.2-1.2-0.2c-1.1,0-2.2,0.1-3.2,0.4c-1.8,0.9-3.4,2.2-4.5,3.8c-1,2.3-1.2,4.8-0.8,7.2c1,2.9,5.6,4.2,8.3,4.2
				C1210.8,432.6,1212.8,429.9,1213.8,427.3 M1227.5,422.6c0.9,0.2,1.8,0.8,1.5,1.9c-0.2,2-0.5,4-0.9,6c-0.2,0.8-1.3,0.7-1.9,1
				c-1.8,0.5-3.7,0.8-5.5,1.4c-0.6,0.8-1.1,1.7-1.6,2.5c1.2,1.7,2.2,3.6,3,5.4c0.1,0.2,0.2,0.5,0.1,0.7c-0.1,0.3-0.3,0.5-0.5,0.6
				c-0.8,0.6-1.7,1.2-2.5,1.8c-1.2,0.7-2.2,1.8-3.5,2.3c-0.6,0.1-1-0.5-1.4-0.8c-1.3-1.3-2.7-2.2-3.5-3.9c-0.1,0-0.2,0-0.3,0
				c-0.8,0-1.6,0.1-2.4,0.3c-0.4,1.6-0.9,3.2-1.7,4.6c-0.3,0.5-0.5,1.1-1.2,0.9c-1.9-0.5-3.8-0.2-5.6-0.9c-1.7-0.3,0.4-4.8,0.5-6
				c-0.6-0.2-2.2-0.5-2.7-1.1c-0.9,1.1-2,2-3.1,2.9c-0.6,0.5-1.3,0.9-2,1.1c-2.3-1.1-4.3-3-5.5-5.2c-0.2-0.8,0.3-1.4,0.7-2
				c1.1-1.6,2.3-3,3.6-4.3c-0.3-1.1-1-2.1-1.3-3.3c-0.1-0.5-0.2-0.9-0.4-1.3c-0.7-0.5-1.6-0.2-2.4-0.4c-1.5-0.1-2.8-0.9-4.2-1.1
				c-0.8-0.1-0.6-1.1-0.6-1.7c0.2-2.2,0.6-4.5,1.3-6.6c0.3-0.9,0.6-1.8,0.9-2.7c0,0,0,0,0-0.1c0-0.1,0-0.2,0.1-0.3
				c0.2-0.1,0.4-0.1,0.6-0.1c0.1,0,0.2,0,0.3,0.2c1.5,0.3,3,0.5,4.5,0.5c1.1-1.4,2.3-2.7,3.5-3.9c-0.8-1.6-1.5-3.3-2.3-5
				c0-0.2,0-0.4,0.1-0.6c1.7-1.8,3.7-3.3,5.9-4.5c0.6-0.4,1.2,0.3,1.7,0.7c1.2,1.2,2.3,2.5,3.3,3.9c1.6,0,3.2-0.1,4.7-0.4
				c0.7-1.8,1.5-3.5,2.3-5.1c0.2-0.4,0.4-0.9,0.9-0.9c1.5,0,3,0.3,4.5,0.9c1.4,0.3,2.8,0.9,4.1,1.6c0.5,1.5-0.6,3.4-1.1,4.8
				c-0.1,0.2-0.2,0.4-0.3,0.6c0.2,0.2,0.4,0.4,0.4,0.7c0.5,0.7,1.1,1.3,1.5,2c1.8-0.8,3.4-2.6,5-3.3c2.2,0.7,3.5,4.3,4.2,6.3
				c0.1,0.3,0.2,0.5,0.2,0.8c-0.1,0.5-0.3,0.9-0.7,1.2c-1.2,1.3-2.7,2.1-4,3.3c-0.3,1.1-0.4,2.2-0.4,3.4
				C1224.8,421.9,1226.2,422.2,1227.5,422.6"/>
		</g>
	</g>
</g>
</svg>
