<svg width="1280" height="99" viewBox="0 0 1280 99" fill="none" xmlns="http://www.w3.org/2000/svg">
<path d="M0.0978695 61.1309C42.4979 25.5309 100.798 24.5309 152.898 32.4309C166.598 34.5309 181.298 36.4309 193.198 44.1309C205.498 52.0309 215.498 69.5309 207.998 83.8309C204.998 89.5309 199.298 94.1309 192.798 94.9309C189.498 95.3309 184.798 95.2309 183.798 91.4309C182.898 87.9309 186.298 81.1309 187.998 78.4309C196.798 63.8309 213.798 60.1309 229.698 60.9309C286.598 63.9309 338.898 92.4309 395.498 97.4309C420.498 99.6309 450.498 98.4309 471.598 83.2309C487.598 71.7309 498.498 46.9309 486.498 28.7309C477.898 15.7309 456.498 11.7309 447.698 26.5309C436.298 45.6309 452.498 66.8309 469.798 74.3309C495.298 85.3309 526.598 85.4309 553.798 83.0309C583.998 80.3309 613.598 73.0309 642.798 65.2309C764.998 32.4309 888.798 0.630882 1016.3 2.13088C1047.8 2.53088 1079.4 4.93088 1110.5 9.73088C1137.6 13.9309 1169.9 18.2309 1189.4 39.7309C1198.2 49.5309 1203.9 62.7309 1203.9 75.9309C1203.9 78.6309 1203.1 94.1309 1198.7 94.5309C1196.7 94.7309 1193.2 89.8309 1192.2 88.4309C1190.4 85.8309 1189.3 82.7309 1188.6 79.7309C1185.8 67.2309 1190.3 54.6309 1199.9 46.3309C1210.6 37.1309 1225 34.1309 1238.7 32.5309C1252.7 30.9309 1266.6 30.2309 1279.8 24.8309C1280.5 24.5309 1280.2 23.3309 1279.5 23.6309C1253.4 34.2309 1219.7 25.9309 1197.7 46.6309C1184.6 59.0309 1180.7 86.7309 1199.4 96.2309C1199.7 96.3309 1200.1 96.3309 1200.3 96.0309C1209.5 78.7309 1204.8 57.3309 1193.3 42.3309C1178.8 23.5309 1154.5 16.6309 1132.3 12.2309C1075.8 1.23088 1017.9 -1.16912 960.598 2.23088C902.598 5.63088 845.098 15.0309 788.298 27.2309C730.298 39.8309 673.698 56.9309 616.198 70.8309C587.098 77.8309 557.398 83.3309 527.298 82.9309C512.398 82.7309 497.498 81.1309 482.998 77.5309C470.398 74.3309 457.198 68.6309 450.298 57.0309C443.898 46.2309 442.798 28.2309 455.098 20.9309C465.298 14.8309 479.298 20.0309 485.498 29.5309C493.098 40.9309 490.698 56.8309 484.098 68.0309C476.998 80.2309 464.298 87.7309 450.998 91.8309C398.198 107.931 342.098 85.4309 291.498 71.6309C278.498 68.0309 265.398 64.8309 252.098 62.5309C240.298 60.5309 227.998 58.5309 216.098 60.1309C205.798 61.5309 196.198 65.8309 189.598 74.0309C186.398 78.0309 178.698 90.6309 184.098 94.8309C189.498 98.9309 198.298 95.5309 202.798 91.9309C209.398 86.6309 212.298 78.5309 211.398 70.2309C208.798 45.7309 183.998 36.6309 163.098 32.9309C118.598 25.1309 69.4979 22.4309 27.4979 42.0309C17.3979 46.8309 7.89787 53.0309 -0.802131 60.3309C-1.40213 60.8309 -0.502131 61.7309 0.0978695 61.1309Z" fill="url(#paint0_linear_12_148)"/>
<defs>
<linearGradient id="paint0_linear_12_148" x1="-1.00213" y1="49.5856" x2="1280.23" y2="49.5856" gradientUnits="userSpaceOnUse">
<stop stop-color="#0FB7CF"/>
<stop offset="1" stop-color="#2A3272"/>
</linearGradient>
</defs>
</svg>
