<svg xmlns="http://www.w3.org/2000/svg" viewBox="0 0 96.8338 90.3541"><defs><style>.cls-1{fill:#fff;}</style></defs><title>Asset 3</title><g id="Layer_2" data-name="Layer 2"><g id="Layer_1-2" data-name="Layer 1"><path class="cls-1" d="M85.3393,50.8231l-35.973-31.776a2.4616,2.4616,0,0,0-3.264,0l-35.973,31.776a1.2321,1.2321,0,0,0-.417.924v37.374a1.233,1.233,0,0,0,1.233,1.233h25.287a1.2321,1.2321,0,0,0,1.232-1.233v-23.87a4.9316,4.9316,0,0,1,4.931-4.932h10.678a4.9316,4.9316,0,0,1,4.931,4.932v23.87a1.2321,1.2321,0,0,0,1.232,1.233h25.287a1.233,1.233,0,0,0,1.233-1.233V51.7471a1.2321,1.2321,0,0,0-.417-.924"/><path class="cls-1" d="M95.25,38.493,54.245,2.454a9.8619,9.8619,0,0,0-13.02,0L.219,38.493A.7306.7306,0,0,0,0,38.977v6.311A2.6273,2.6273,0,0,0,4.364,47.26L44.476,11.931a4.93,4.93,0,0,1,6.518,0L88.91,45.326a4.8307,4.8307,0,0,0,5.844.552,4.6641,4.6641,0,0,0,.496-7.385"/></g></g></svg>