<svg width="224" height="198" viewBox="0 0 224 198" fill="none" xmlns="http://www.w3.org/2000/svg">
<path d="M0.374269 180.479L7.33567 180.329L14.3345 180.255L28.2947 180.068L56.2526 179.844L63.2515 179.806L70.2503 179.769L84.2105 179.732L112.168 179.657L140.126 179.732L154.087 179.769L161.085 179.806L168.084 179.844L196.042 180.068L210.002 180.255L217.001 180.329L224 180.479V180.554L112.168 180.591L0.374269 180.554V180.479Z" fill="#131C32"/>
<path d="M173.361 101.578V53.9457H172.126V101.615C143.008 102.288 119.616 126.048 119.616 155.262C149.034 155.262 172.95 131.651 173.361 102.362V101.802C173.361 101.727 173.361 101.652 173.361 101.578Z" fill="url(#paint0_linear_12_82)"/>
<path d="M54.269 101.615V53.9457H53.0339V102.362C53.4456 131.651 77.3614 155.262 106.779 155.262C106.779 126.048 83.3871 102.288 54.269 101.615Z" fill="url(#paint1_linear_12_82)"/>
<path d="M113.815 46.9223V0H112.58V46.9223C86.531 73.5962 86.7556 116.297 113.216 142.709C139.64 116.297 139.827 73.5962 113.815 46.9223Z" fill="url(#paint2_linear_12_82)"/>
<path d="M0 185.896H0.935672V197.103H6.99883V197.664H0V185.896Z" fill="#24305B"/>
<path d="M9.35673 185.896H10.1427V197.813H9.35673V185.896Z" fill="#24305B"/>
<path d="M15.6444 185.896C16.6924 185.896 17.5158 185.97 18.1146 186.083C19.5743 186.456 20.6596 187.129 21.3708 188.137C22.0819 189.109 22.4561 190.341 22.4561 191.798C22.4561 193.33 22.0819 194.6 21.2959 195.646C20.5099 196.692 19.462 197.365 18.1146 197.626C17.5158 197.738 16.8047 197.813 15.9064 197.813H13.324V185.896H15.6444ZM21.5953 191.798C21.5953 190.491 21.2959 189.407 20.6971 188.548C20.0982 187.689 19.2374 187.129 18.1146 186.83C17.7778 186.755 17.3661 186.68 16.9544 186.643C16.5427 186.606 15.9813 186.606 15.2702 186.606H14.0351V197.066H15.3076C15.9439 197.066 16.4678 197.066 16.8421 197.029C17.2164 196.991 17.5906 196.954 17.8901 196.879C19.0129 196.618 19.9111 196.057 20.5474 195.161C21.2959 194.264 21.5953 193.143 21.5953 191.798Z" fill="#24305B"/>
<path d="M25.2632 185.896H32.4117V186.606H26.0491V191.35H32.3368V192.06H26.0491V197.103H32.4117V197.813H25.2632V185.896Z" fill="#24305B"/>
<path d="M37.6515 185.896C38.4 185.896 38.9614 185.933 39.3731 185.97C41.3193 186.344 42.255 187.353 42.255 189.034C42.255 190.005 41.9556 190.79 41.3193 191.425C40.683 192.06 39.8596 192.396 38.8117 192.433V192.471L42.9661 197.776H41.993L37.8386 192.546H35.8175V197.776H35.0316V185.858H37.6515V185.896ZM41.469 189.034C41.469 188.137 41.1322 187.502 40.4585 187.166C39.7848 186.792 38.8117 186.606 37.5766 186.606H35.855V191.836H37.614C38.924 191.836 39.8971 191.612 40.5333 191.163C41.1696 190.752 41.469 190.005 41.469 189.034Z" fill="#24305B"/>
<path d="M44.014 197.776L48.8795 185.858H49.6281L54.531 197.776H53.6702L51.9485 193.554H46.5591L44.8374 197.776H44.014ZM51.6866 192.844L51.2374 191.686C50.2269 189.221 49.5906 187.577 49.3287 186.792H49.2912C49.0292 187.465 48.655 188.473 48.0936 189.818C47.9064 190.229 47.4947 191.238 46.8585 192.844H51.6866Z" fill="#24305B"/>
<path d="M55.8784 197.103L63.4012 186.606H56.0281V185.896H64.2994V186.531L56.7392 197.066H64.3743V197.776H55.8784V197.103Z" fill="#24305B"/>
<path d="M66.545 192.097C66.545 190.79 66.807 189.632 67.3684 188.66C67.9298 187.689 68.6784 186.942 69.6515 186.419C70.6246 185.896 71.7474 185.634 72.9825 185.634C73.5064 185.634 73.993 185.672 74.4421 185.784C74.8912 185.858 75.2281 185.971 75.4152 186.083V186.83C75.1158 186.718 74.7041 186.606 74.255 186.531C73.7684 186.456 73.3193 186.381 72.9076 186.381C71.9345 186.381 71.0363 186.568 70.1754 186.979C69.352 187.39 68.6784 188.025 68.1544 188.847C67.6304 189.669 67.3684 190.715 67.3684 191.911C67.3684 193.629 67.855 194.937 68.7906 195.87C69.7637 196.804 71.1111 197.29 72.8702 197.29C73.5064 197.29 74.255 197.178 75.0784 196.917V192.583H72.3088V191.836H75.8643V197.365C75.6772 197.514 75.2655 197.664 74.6292 197.776C73.993 197.888 73.3567 197.963 72.7205 197.963C70.7743 197.963 69.2772 197.44 68.1918 196.394C67.1064 195.385 66.545 193.928 66.545 192.097Z" fill="#24305B"/>
<path d="M78.6713 191.836C78.6713 190.64 78.8959 189.594 79.345 188.66C79.7942 187.726 80.4304 186.979 81.2538 186.456C82.0772 185.933 83.0129 185.672 84.0608 185.672C85.1462 185.672 86.1193 185.933 86.9053 186.456C87.7287 186.979 88.3649 187.726 88.814 188.66C89.2632 189.594 89.4877 190.678 89.4877 191.873C89.4877 193.031 89.2632 194.115 88.814 195.049C88.3649 195.983 87.7287 196.73 86.9053 197.253C86.0819 197.776 85.1462 198.037 84.1357 198.037C83.0503 198.037 82.0772 197.776 81.2538 197.253C80.4304 196.73 79.7942 195.983 79.345 195.049C78.8959 194.077 78.6713 193.031 78.6713 191.836ZM88.6643 191.836C88.6643 190.678 88.4772 189.706 88.0655 188.884C87.6538 188.063 87.1298 187.427 86.4187 186.979C85.7076 186.531 84.9591 186.344 84.0982 186.344C83.2749 186.344 82.4889 186.568 81.8152 186.979C81.1041 187.427 80.5801 188.025 80.1684 188.884C79.7567 189.706 79.5696 190.678 79.5696 191.836C79.5696 192.994 79.7567 193.965 80.1684 194.787C80.5801 195.609 81.1415 196.244 81.8152 196.655C82.5263 197.066 83.2749 197.29 84.1357 197.29C84.9591 197.29 85.745 197.066 86.4187 196.655C87.0924 196.244 87.6538 195.609 88.0655 194.787C88.4398 193.965 88.6643 192.994 88.6643 191.836Z" fill="#24305B"/>
<path d="M94.6152 197.776L99.4807 185.858H100.229L105.132 197.776H104.271L102.55 193.554H97.1602L95.4386 197.776H94.6152ZM102.288 192.844L101.839 191.686C100.828 189.221 100.192 187.577 99.9298 186.792H99.8924C99.6304 187.465 99.2562 188.473 98.6947 189.818C98.5076 190.229 98.0959 191.238 97.4597 192.844H102.288Z" fill="#24305B"/>
<path d="M116.323 187.502C115.724 187.502 115.163 187.614 114.676 187.801C114.189 187.988 113.74 188.287 113.366 188.66C112.992 189.034 112.73 189.482 112.505 190.043C112.318 190.603 112.206 191.201 112.206 191.911C112.206 192.62 112.281 193.218 112.468 193.741C112.655 194.264 112.917 194.712 113.254 195.086C113.591 195.46 114.002 195.721 114.526 195.908C115.013 196.095 115.574 196.169 116.211 196.169C116.66 196.169 117.109 196.132 117.595 196.057C118.082 195.983 118.494 195.87 118.905 195.758V197.626C118.494 197.738 118.044 197.85 117.558 197.925C117.071 198 116.585 198.037 116.061 198.037C115.05 198.037 114.152 197.888 113.404 197.589C112.655 197.29 111.981 196.879 111.495 196.356C110.971 195.833 110.596 195.198 110.335 194.451C110.073 193.704 109.96 192.919 109.96 192.023C109.96 191.126 110.11 190.267 110.372 189.482C110.634 188.698 111.046 188.025 111.57 187.465C112.094 186.904 112.73 186.456 113.516 186.12C114.302 185.784 115.2 185.634 116.173 185.634C116.66 185.634 117.146 185.672 117.595 185.746C118.044 185.821 118.456 185.896 118.83 186.045V187.913C118.344 187.764 117.895 187.652 117.483 187.614C117.109 187.54 116.697 187.502 116.323 187.502Z" fill="#24305B"/>
<path d="M132.267 191.836C132.267 192.732 132.154 193.592 131.892 194.339C131.63 195.086 131.256 195.758 130.77 196.281C130.283 196.842 129.647 197.253 128.936 197.552C128.225 197.851 127.401 198 126.465 198C125.53 198 124.706 197.851 123.995 197.552C123.284 197.253 122.648 196.842 122.161 196.281C121.675 195.721 121.301 195.086 121.039 194.339C120.777 193.592 120.664 192.732 120.664 191.836C120.664 190.939 120.777 190.08 121.039 189.333C121.301 188.586 121.675 187.913 122.161 187.39C122.648 186.83 123.284 186.419 123.995 186.12C124.706 185.821 125.53 185.672 126.465 185.672C127.401 185.672 128.225 185.821 128.936 186.12C129.647 186.419 130.283 186.83 130.77 187.39C131.256 187.951 131.63 188.586 131.892 189.333C132.154 190.08 132.267 190.939 132.267 191.836ZM130.021 191.836C130.021 191.126 129.946 190.491 129.759 189.93C129.572 189.37 129.347 188.922 129.011 188.586C128.711 188.212 128.337 187.951 127.888 187.764C127.439 187.577 126.989 187.502 126.465 187.502C125.942 187.502 125.455 187.577 125.043 187.764C124.594 187.951 124.22 188.212 123.92 188.586C123.621 188.959 123.359 189.407 123.172 189.93C122.985 190.491 122.91 191.089 122.91 191.836C122.91 192.546 122.985 193.181 123.172 193.741C123.359 194.301 123.584 194.75 123.92 195.086C124.22 195.46 124.594 195.721 125.043 195.908C125.492 196.095 125.942 196.169 126.465 196.169C126.989 196.169 127.476 196.095 127.888 195.908C128.337 195.721 128.711 195.46 129.011 195.086C129.31 194.712 129.572 194.264 129.759 193.741C129.946 193.181 130.021 192.546 130.021 191.836Z" fill="#24305B"/>
<path d="M140.8 191.425C141.661 192.658 142.334 193.704 142.896 194.675H142.933C142.858 193.143 142.821 191.985 142.821 191.275V185.896H144.992V197.813H142.709L138.854 192.321C138.18 191.387 137.469 190.267 136.72 189.034H136.683C136.758 190.491 136.795 191.612 136.795 192.433V197.813H134.625V185.896H136.908L140.8 191.425Z" fill="#24305B"/>
<path d="M153.75 194.376C153.75 194.077 153.675 193.816 153.525 193.629C153.375 193.442 153.188 193.293 152.926 193.181C152.664 193.069 152.402 192.957 152.065 192.882C151.766 192.807 151.429 192.732 151.055 192.658C150.606 192.546 150.157 192.434 149.745 192.284C149.333 192.135 148.959 191.948 148.622 191.686C148.285 191.425 148.061 191.126 147.874 190.752C147.687 190.379 147.574 189.893 147.574 189.333C147.574 188.698 147.687 188.175 147.911 187.689C148.136 187.241 148.435 186.83 148.809 186.531C149.184 186.232 149.633 186.008 150.119 185.858C150.643 185.709 151.205 185.634 151.841 185.634C152.477 185.634 153.113 185.709 153.75 185.821C154.386 185.933 154.947 186.12 155.396 186.307V188.175C154.76 187.913 154.199 187.764 153.6 187.652C153.039 187.54 152.515 187.502 151.991 187.502C151.28 187.502 150.718 187.614 150.344 187.876C149.97 188.137 149.745 188.511 149.745 189.034C149.745 189.333 149.82 189.594 149.932 189.781C150.044 189.968 150.232 190.155 150.456 190.267C150.681 190.379 150.943 190.491 151.205 190.566C151.504 190.64 151.804 190.715 152.103 190.79C152.589 190.902 153.076 191.014 153.563 191.163C154.012 191.313 154.423 191.5 154.798 191.761C155.172 192.023 155.434 192.321 155.658 192.732C155.883 193.143 155.958 193.629 155.958 194.264C155.958 194.899 155.846 195.46 155.584 195.945C155.359 196.431 155.022 196.804 154.573 197.103C154.124 197.402 153.6 197.626 152.964 197.776C152.327 197.925 151.654 198 150.905 198C150.269 198 149.633 197.925 148.996 197.813C148.36 197.701 147.836 197.514 147.425 197.29V195.46C148.023 195.721 148.585 195.908 149.146 196.02C149.708 196.132 150.269 196.207 150.868 196.207C151.205 196.207 151.542 196.169 151.878 196.132C152.215 196.057 152.515 195.983 152.777 195.833C153.039 195.684 153.263 195.497 153.413 195.273C153.675 195.011 153.75 194.712 153.75 194.376Z" fill="#24305B"/>
<path d="M164.229 187.502C163.63 187.502 163.069 187.614 162.582 187.801C162.096 187.988 161.647 188.287 161.273 188.66C160.898 189.034 160.636 189.482 160.412 190.043C160.225 190.603 160.112 191.201 160.112 191.911C160.112 192.62 160.187 193.218 160.374 193.741C160.561 194.264 160.823 194.712 161.16 195.086C161.497 195.46 161.909 195.721 162.433 195.908C162.919 196.095 163.481 196.169 164.117 196.169C164.566 196.169 165.015 196.132 165.502 196.057C165.988 195.983 166.4 195.87 166.812 195.758V197.626C166.4 197.738 165.951 197.85 165.464 197.925C164.978 198 164.491 198.037 163.967 198.037C162.957 198.037 162.058 197.888 161.31 197.589C160.561 197.29 159.888 196.879 159.401 196.356C158.877 195.833 158.503 195.198 158.241 194.451C157.979 193.704 157.867 192.919 157.867 192.023C157.867 191.126 158.016 190.267 158.278 189.482C158.54 188.698 158.952 188.025 159.476 187.465C160 186.904 160.636 186.456 161.422 186.12C162.208 185.784 163.106 185.634 164.08 185.634C164.566 185.634 165.053 185.672 165.502 185.746C165.951 185.821 166.363 185.896 166.737 186.045V187.913C166.25 187.764 165.801 187.652 165.389 187.614C165.015 187.54 164.641 187.502 164.229 187.502Z" fill="#24305B"/>
<path d="M169.095 197.776V185.858H171.266V197.776H169.095Z" fill="#24305B"/>
<path d="M176.318 195.945H182.194V197.776H174.147V185.858H182.194V187.689H176.318V190.752H182.306V192.583H176.318V195.945Z" fill="#24305B"/>
<path d="M190.727 191.425C191.588 192.658 192.262 193.704 192.823 194.675H192.861C192.786 193.143 192.749 191.985 192.749 191.275V185.896H194.919V197.813H192.636L188.744 192.321C188.07 191.387 187.359 190.267 186.611 189.034H186.573C186.648 190.491 186.685 191.612 186.685 192.433V197.813H184.515V185.896H186.798L190.727 191.425Z" fill="#24305B"/>
<path d="M203.602 187.502C203.004 187.502 202.442 187.614 201.956 187.801C201.469 187.988 201.02 188.287 200.646 188.66C200.271 189.034 200.009 189.482 199.785 190.043C199.598 190.603 199.485 191.201 199.485 191.911C199.485 192.62 199.56 193.218 199.747 193.741C199.935 194.264 200.196 194.712 200.533 195.086C200.87 195.46 201.282 195.721 201.806 195.908C202.292 196.095 202.854 196.169 203.49 196.169C203.939 196.169 204.388 196.132 204.875 196.057C205.361 195.983 205.773 195.87 206.185 195.758V197.626C205.773 197.738 205.324 197.85 204.837 197.925C204.351 198 203.864 198.037 203.34 198.037C202.33 198.037 201.432 197.888 200.683 197.589C199.935 197.29 199.261 196.879 198.774 196.356C198.25 195.833 197.876 195.198 197.614 194.451C197.352 193.704 197.24 192.919 197.24 192.023C197.24 191.126 197.389 190.267 197.651 189.482C197.913 188.698 198.325 188.025 198.849 187.465C199.373 186.904 200.009 186.456 200.795 186.12C201.581 185.784 202.48 185.634 203.453 185.634C203.939 185.634 204.426 185.672 204.875 185.746C205.324 185.821 205.736 185.896 206.11 186.045V187.913C205.623 187.764 205.174 187.652 204.763 187.614C204.388 187.54 203.977 187.502 203.602 187.502Z" fill="#24305B"/>
<path d="M208.468 197.776V185.858H210.639V197.776H208.468Z" fill="#24305B"/>
<path d="M220.332 194.75H215.841L214.681 197.776H212.36L217.113 185.858H219.097L223.85 197.776H221.53L220.332 194.75ZM218.087 188.735C217.675 189.968 217.301 191.014 216.964 191.873L216.552 192.919H219.621L219.209 191.873C218.91 191.014 218.536 189.968 218.087 188.735Z" fill="#24305B"/>
<path d="M77.2117 160.193V122.835C71.7099 118.165 66.0959 107.069 63.4386 101.279V171.886C68.2667 172.111 74.5918 165.349 77.2117 160.193Z" fill="url(#paint3_linear_12_82)"/>
<path d="M77.2117 122.797V101.055H63.4386V101.241C66.1333 107.032 71.7099 118.128 77.2117 122.797Z" fill="url(#paint4_linear_12_82)"/>
<path d="M77.2117 160.23V160.193C74.5544 165.349 68.2667 172.11 63.4386 171.886V171.961H109.137V160.23H77.2117Z" fill="url(#paint5_linear_12_82)"/>
<path d="M134.662 120.033C134.999 119.286 135.411 118.613 135.822 118.015C138.255 114.541 141.885 112.785 146.788 112.785C151.28 112.785 154.611 113.831 156.819 115.886C159.027 117.941 160.299 120.855 160.636 125.45H175.27C174.484 117.53 171.602 111.777 166.587 107.406C162.62 103.931 157.642 101.839 151.691 101.129C146.526 103.744 139.34 109.161 134.662 120.033Z" fill="url(#paint6_linear_12_82)"/>
<path d="M135.56 156.383C133.24 152.834 132.08 147.23 132.08 139.571V134.229C132.117 129.335 132.678 125.338 133.764 122.162C134.026 121.415 134.325 120.705 134.625 120.033C139.34 109.162 146.489 103.745 151.616 101.092C150.044 100.905 148.435 100.793 146.713 100.793C140.8 100.793 135.598 102.175 131.144 104.94C126.69 107.705 123.247 111.702 120.814 116.895C118.419 122.088 117.221 128.102 117.221 134.902V139.235C117.221 145.287 118.044 150.592 119.729 155.15C126.241 158.811 134.175 160.716 141.736 160.978C139.153 160.231 137.057 158.699 135.56 156.383Z" fill="url(#paint7_linear_12_82)"/>
<path d="M160.524 149.434C160.187 153.768 158.915 156.532 156.706 158.587C154.461 160.642 151.092 161.688 146.601 161.688C144.842 161.688 143.233 161.463 141.811 161.015C134.25 160.754 126.316 158.848 119.804 155.187C121.076 158.699 122.873 161.8 125.118 164.452C130.32 170.579 137.506 173.642 146.601 173.642C154.91 173.642 161.609 171.438 166.699 167.067C171.789 162.696 174.596 157.092 175.158 149.471H160.524V149.434Z" fill="url(#paint8_linear_12_82)"/>
<defs>
<linearGradient id="paint0_linear_12_82" x1="172.538" y1="104.606" x2="115.806" y2="104.606" gradientUnits="userSpaceOnUse">
<stop stop-color="#B4393D"/>
<stop offset="1" stop-color="#E77582"/>
</linearGradient>
<linearGradient id="paint1_linear_12_82" x1="53.0192" y1="104.607" x2="106.779" y2="104.607" gradientUnits="userSpaceOnUse">
<stop stop-color="#B4393D"/>
<stop offset="1" stop-color="#E77582"/>
</linearGradient>
<linearGradient id="paint2_linear_12_82" x1="113.175" y1="0" x2="113.175" y2="142.698" gradientUnits="userSpaceOnUse">
<stop offset="0.3053" stop-color="#B4393D"/>
<stop offset="1" stop-color="#E77582"/>
</linearGradient>
<linearGradient id="paint3_linear_12_82" x1="73.0289" y1="110.414" x2="65.0871" y2="170.509" gradientUnits="userSpaceOnUse">
<stop stop-color="#13192B"/>
<stop offset="1" stop-color="#1B459A"/>
</linearGradient>
<linearGradient id="paint4_linear_12_82" x1="75.0597" y1="103.41" x2="67.8331" y2="116.511" gradientUnits="userSpaceOnUse">
<stop stop-color="#0051A1"/>
<stop offset="1" stop-color="#2B378B"/>
</linearGradient>
<linearGradient id="paint5_linear_12_82" x1="63.4465" y1="166.059" x2="109.138" y2="166.059" gradientUnits="userSpaceOnUse">
<stop stop-color="#252565"/>
<stop offset="1" stop-color="#14489C"/>
</linearGradient>
<linearGradient id="paint6_linear_12_82" x1="134.646" y1="113.263" x2="175.233" y2="113.263" gradientUnits="userSpaceOnUse">
<stop stop-color="#0051A1"/>
<stop offset="1" stop-color="#2B378B"/>
</linearGradient>
<linearGradient id="paint7_linear_12_82" x1="129.012" y1="155.521" x2="136.347" y2="102.243" gradientUnits="userSpaceOnUse">
<stop stop-color="#13192B"/>
<stop offset="1" stop-color="#1B459A"/>
</linearGradient>
<linearGradient id="paint8_linear_12_82" x1="119.758" y1="161.536" x2="175.136" y2="161.536" gradientUnits="userSpaceOnUse">
<stop stop-color="#252565"/>
<stop offset="1" stop-color="#14489C"/>
</linearGradient>
</defs>
</svg>
